%TF.GenerationSoftware,KiCad,Pcbnew,10.0.6*%
%TF.CreationDate,2026-10-05T16:34:27+02:00*%
%TF.ProjectId,HAL_95,48414c5f-3935-42e6-9b69-6361645f7063,rev?*%
%TF.SameCoordinates,Original*%
%TF.FileFunction,Copper,L2,Inr*%
%TF.FilePolarity,Positive*%
%FSLAX46Y46*%
G04 Gerber Fmt 4.6, Leading zero omitted, Abs format (unit mm)*
G04 Created by KiCad (PCBNEW 10.0.6) date 2026-10-05 16:34:27*
%MOMM*%
%LPD*%
G01*
G04 APERTURE LIST*
%TA.AperFunction,ComponentPad*%
%ADD10C,0.800000*%
%TD*%
%TA.AperFunction,ComponentPad*%
%ADD11C,6.400000*%
%TD*%
%TA.AperFunction,ComponentPad*%
%ADD12O,1.800000X1.000000*%
%TD*%
%TA.AperFunction,ComponentPad*%
%ADD13O,2.100000X1.000000*%
%TD*%
%TA.AperFunction,ViaPad*%
%ADD14C,0.450000*%
%TD*%
G04 APERTURE END LIST*
D10*
%TO.N,GND*%
%TO.C,H1*%
X166225000Y-49800000D03*
X165522056Y-51497056D03*
X165522056Y-48102944D03*
X163825000Y-52200000D03*
D11*
X163825000Y-49800000D03*
D10*
X163825000Y-47400000D03*
X162127944Y-51497056D03*
X162127944Y-48102944D03*
X161425000Y-49800000D03*
%TD*%
D12*
%TO.N,GND*%
%TO.C,J10*%
X220945000Y-55620000D03*
D13*
X216765000Y-55620000D03*
D12*
X220945000Y-64260000D03*
D13*
X216765000Y-64260000D03*
%TD*%
D14*
%TO.N,GND*%
X176620000Y-57900000D03*
%TO.N,Net-(Q2-G)*%
X206425000Y-66487500D03*
X206660000Y-64800000D03*
%TO.N,Net-(U2-AISEN)*%
X167175000Y-76750000D03*
X169290000Y-77590000D03*
%TO.N,Net-(J3-Pin_2)*%
X183725000Y-28300000D03*
X183925000Y-33125000D03*
%TO.N,/Charger_BQ25896/nQON*%
X196400000Y-73800000D03*
X189945000Y-73710000D03*
X192475000Y-62100000D03*
X199400000Y-80700000D03*
%TO.N,GND*%
X185800000Y-70800000D03*
X173530000Y-69030000D03*
X215160000Y-38640000D03*
X172450862Y-74954289D03*
X195310000Y-53980000D03*
X201410000Y-76620000D03*
X177170000Y-44950000D03*
X175080000Y-36150000D03*
X154660000Y-63920000D03*
X198540000Y-31210000D03*
X213750000Y-64090000D03*
X197800000Y-74110000D03*
X184160000Y-60580000D03*
X162325000Y-74050000D03*
X208440000Y-81160000D03*
X172210000Y-82090000D03*
X187900000Y-61640000D03*
X163000000Y-69990000D03*
X192600000Y-73200000D03*
X185270000Y-55100000D03*
X205970000Y-36900000D03*
X179120000Y-65530000D03*
X209620000Y-40360000D03*
X194120000Y-28730000D03*
X179640000Y-29610000D03*
X170650000Y-82720000D03*
X176120000Y-29160000D03*
X213725000Y-82650000D03*
X222560000Y-58140000D03*
X166540000Y-41300000D03*
X167880000Y-42130000D03*
X167440000Y-36950000D03*
X174110000Y-30110000D03*
X207670000Y-85660000D03*
X160000000Y-61800000D03*
X195720000Y-56490000D03*
X206560000Y-82600000D03*
X186190000Y-68960000D03*
X205420000Y-72970000D03*
X162940000Y-81850000D03*
X195080000Y-51530000D03*
X183830000Y-55470000D03*
X182180000Y-39880000D03*
X205210000Y-63050000D03*
X200750000Y-70430000D03*
X164675000Y-69125000D03*
X203831370Y-81218630D03*
X175844975Y-75519974D03*
X183590000Y-54280000D03*
X198820000Y-85160000D03*
X200890000Y-25850000D03*
X167620000Y-70440000D03*
X176880000Y-88070000D03*
X196040000Y-79150000D03*
X191660000Y-79320000D03*
X193340000Y-67350000D03*
X184290000Y-68910000D03*
X210660000Y-73350000D03*
X161890000Y-77080000D03*
X202480000Y-59890000D03*
X172168020Y-73257233D03*
X200980000Y-62790000D03*
X186750000Y-52440000D03*
X202880000Y-75660000D03*
X222560000Y-49140000D03*
X166900000Y-65400000D03*
X177810000Y-80610000D03*
X189610000Y-47490000D03*
X194300000Y-65350000D03*
X205350000Y-78030000D03*
X199040000Y-93980000D03*
X202010000Y-48500000D03*
X173300000Y-51800000D03*
X175620000Y-84750000D03*
X164090000Y-75240000D03*
X199800000Y-90590000D03*
X170580000Y-67950000D03*
X222560000Y-67140000D03*
X184140000Y-59780000D03*
X175350000Y-75025000D03*
X182920000Y-28570000D03*
X208290000Y-39180000D03*
X198610000Y-78610000D03*
X182200000Y-86250000D03*
X185000000Y-46200000D03*
X215080000Y-64260000D03*
X202830000Y-28820000D03*
X190890000Y-49140000D03*
X200070000Y-44380000D03*
X202543566Y-84468566D03*
X173450000Y-67075000D03*
X183700000Y-86250000D03*
X192575000Y-74500000D03*
X213590000Y-65610000D03*
X209230000Y-83340000D03*
X154660000Y-60920000D03*
X213800000Y-78580000D03*
X222560000Y-73140000D03*
X177110000Y-27250000D03*
X154660000Y-66920000D03*
X172800000Y-40540000D03*
X193060000Y-53410000D03*
X203831370Y-82350000D03*
X175660000Y-56400000D03*
X170750000Y-73050000D03*
X197460000Y-75160000D03*
X188220000Y-60510000D03*
X192380000Y-47640000D03*
X192850000Y-60410000D03*
X169960000Y-52010000D03*
X174275000Y-79125000D03*
X202180000Y-72000000D03*
X221750000Y-74660000D03*
X157670000Y-73610000D03*
X185720000Y-29960000D03*
X166910000Y-72460000D03*
X186375000Y-50050000D03*
X187100000Y-41470000D03*
X186600000Y-87000000D03*
X186710000Y-82050000D03*
X199950000Y-84020000D03*
%TO.N,+3.3V*%
X182600000Y-51225000D03*
X190770000Y-78520000D03*
X201825000Y-70450000D03*
X185075000Y-46925000D03*
X205270000Y-38640000D03*
X158956318Y-74716318D03*
X199680000Y-52750000D03*
%TO.N,GND*%
X192230000Y-25850000D03*
X188390000Y-88880000D03*
X170370000Y-89380000D03*
X165750000Y-77110000D03*
X167590000Y-40670000D03*
X166660000Y-34130000D03*
X184890000Y-79910000D03*
X194620000Y-79990000D03*
X171450000Y-69050000D03*
X202700000Y-82350000D03*
X165950000Y-75940000D03*
X154660000Y-69920000D03*
X189300000Y-66700000D03*
X193030000Y-68430000D03*
X203975000Y-60700000D03*
X169300000Y-74560000D03*
X180000000Y-38250000D03*
X210600000Y-41400000D03*
X181790000Y-25850000D03*
X203910000Y-62330000D03*
X197150000Y-64450000D03*
X173865076Y-73540075D03*
X213720000Y-80360000D03*
X222560000Y-52140000D03*
X181220000Y-39080000D03*
X184850000Y-37660000D03*
X198875000Y-88775000D03*
X177900000Y-31630000D03*
X174642893Y-75732106D03*
X194670000Y-77190000D03*
X168900000Y-40100000D03*
X195060000Y-25850000D03*
X181500000Y-63080000D03*
X169070000Y-31760000D03*
X184120000Y-73670000D03*
X207190000Y-38150000D03*
X192990000Y-62680000D03*
X171630000Y-83410000D03*
X197300000Y-83080000D03*
X162417359Y-38372641D03*
X183550000Y-44425000D03*
X183160000Y-71990000D03*
X216400000Y-52300000D03*
X207130000Y-41130000D03*
X156290000Y-54870000D03*
X189090000Y-76580000D03*
X164704719Y-83654719D03*
X154660000Y-49510000D03*
X211940000Y-65370000D03*
X172875127Y-72550126D03*
X176460000Y-76820000D03*
X192300000Y-77500000D03*
X218030000Y-56530000D03*
X207466039Y-88943961D03*
X178450000Y-74650000D03*
X182200000Y-85250000D03*
X177600000Y-67900000D03*
X195920000Y-58080000D03*
X202490000Y-61100000D03*
X182000000Y-91040000D03*
X193000000Y-79300000D03*
X183120000Y-70120000D03*
X215110000Y-76830000D03*
X181440000Y-64990000D03*
X203300000Y-26640000D03*
X184160000Y-56810000D03*
X175137868Y-76227081D03*
X183000000Y-35530000D03*
X202700000Y-81218630D03*
X207174718Y-30684718D03*
X195370000Y-55590000D03*
X211450000Y-81800000D03*
X184850000Y-42975000D03*
X194960000Y-45060000D03*
X190040000Y-83110000D03*
X212380000Y-35980000D03*
X160296039Y-40493961D03*
X196670000Y-72690000D03*
X200540000Y-40900000D03*
X202060000Y-30620000D03*
X189800000Y-64200000D03*
X184090000Y-66370000D03*
X189500000Y-74800000D03*
X207690000Y-85040000D03*
X187360000Y-88140000D03*
X197070000Y-70540000D03*
X202134314Y-81784315D03*
X182200000Y-83250000D03*
X176650000Y-46230000D03*
X200550000Y-72600000D03*
X202580000Y-44760000D03*
X180000000Y-59700000D03*
X178850000Y-60600000D03*
X199810000Y-77300000D03*
X203440000Y-78930000D03*
X183700000Y-83250000D03*
X201350000Y-85820000D03*
X181590000Y-71720000D03*
X158410000Y-68770000D03*
X197980000Y-80040000D03*
X179900000Y-56300000D03*
X201380000Y-89990000D03*
X222560000Y-55140000D03*
X211440000Y-75930000D03*
X197850000Y-63160000D03*
X169500000Y-69100000D03*
X184670000Y-70410000D03*
X181450000Y-33390000D03*
X164900000Y-71440000D03*
X203970000Y-61390000D03*
X178040000Y-93980000D03*
X171460913Y-73964340D03*
X169325000Y-38875000D03*
X176260000Y-32140000D03*
X188380000Y-58930000D03*
X189930000Y-72060000D03*
X202125000Y-84900000D03*
X157650000Y-56550000D03*
X174800000Y-44400000D03*
X199910000Y-70880000D03*
X194200000Y-73200000D03*
X181575000Y-73775000D03*
X196040000Y-93980000D03*
X179500000Y-33410000D03*
X191520000Y-60410000D03*
X189930000Y-60450000D03*
X214880000Y-75170000D03*
X157170000Y-66630000D03*
X207490000Y-74500000D03*
X184100000Y-47200000D03*
X164920000Y-73240000D03*
X194620000Y-31350000D03*
X185700000Y-44375000D03*
X211100000Y-78600000D03*
X184730000Y-41030000D03*
X203675000Y-73625000D03*
X211550000Y-80700000D03*
X222560000Y-46140000D03*
X182200000Y-84250000D03*
X171700000Y-43000000D03*
X176500000Y-63100000D03*
X184040000Y-93980000D03*
X175060000Y-83130000D03*
X204397056Y-81784315D03*
X181970000Y-88560000D03*
X193940000Y-44360000D03*
X197730000Y-81260000D03*
X174780000Y-29130000D03*
X187140000Y-43150000D03*
X177000000Y-55500000D03*
X169880000Y-81870000D03*
X159810000Y-44030000D03*
X205730000Y-57100000D03*
X184160000Y-50130000D03*
X176110000Y-47440000D03*
X175650000Y-34075000D03*
X222560000Y-64140000D03*
X173935787Y-76439213D03*
X203265685Y-82915686D03*
X198960000Y-81410000D03*
X220860000Y-49690000D03*
X202040000Y-93980000D03*
X198250000Y-91260000D03*
X180520000Y-83220000D03*
X188820000Y-79500000D03*
X187950000Y-25850000D03*
X175360000Y-25850000D03*
X154660000Y-72920000D03*
X154660000Y-54920000D03*
X157240000Y-61750000D03*
X178890000Y-48120000D03*
X166530000Y-37800000D03*
X207410000Y-66670000D03*
X209975000Y-83725000D03*
X166350000Y-78400000D03*
X156760000Y-68750000D03*
X158340758Y-77290758D03*
X209470000Y-61920000D03*
X205053398Y-28563398D03*
X196920000Y-76900000D03*
X181440000Y-48190000D03*
X181390000Y-78900000D03*
X167650000Y-68625000D03*
X191640000Y-62390000D03*
X160700000Y-63200000D03*
X173157969Y-74247182D03*
X183210000Y-64220000D03*
X201810000Y-74810000D03*
X190200000Y-81625000D03*
X204750000Y-91690000D03*
X187040000Y-93980000D03*
X185800000Y-40090000D03*
X220193961Y-76216039D03*
X174360051Y-74035050D03*
X202750000Y-78180000D03*
X196220000Y-89125000D03*
X184330000Y-87810000D03*
X201470000Y-79320000D03*
X192020000Y-80360000D03*
X170610000Y-70140000D03*
X154660000Y-51920000D03*
X167580000Y-74280000D03*
X210425000Y-77700000D03*
X215951321Y-80458679D03*
X188410000Y-41430000D03*
X184670000Y-77440000D03*
X158174719Y-42615281D03*
X186760000Y-51320000D03*
X159080000Y-75490000D03*
X217781320Y-41291320D03*
X176300000Y-71550000D03*
X180670000Y-88450000D03*
X174430761Y-76934188D03*
X198430000Y-25850000D03*
X160575000Y-75725000D03*
X199420000Y-85900000D03*
X173920000Y-89080000D03*
X203670000Y-70830000D03*
X210525000Y-53450000D03*
X170902641Y-29887359D03*
X204420000Y-74410000D03*
X200860000Y-73820000D03*
X204250000Y-90710000D03*
X170325000Y-38050000D03*
X194150000Y-64380000D03*
X191800000Y-64200000D03*
X173270000Y-70760000D03*
X166300000Y-66900000D03*
X206800000Y-70820000D03*
X173440812Y-75944239D03*
X157020000Y-63430000D03*
X173190000Y-92140000D03*
X178230000Y-73300000D03*
X198760000Y-44310000D03*
X193680000Y-93980000D03*
X208330000Y-79470000D03*
X185850000Y-48525000D03*
X207020000Y-32900000D03*
X181200000Y-36420000D03*
X198420000Y-58170000D03*
X166320000Y-85310000D03*
X184500000Y-31860000D03*
X185150000Y-58430000D03*
X185210000Y-51670000D03*
X179460000Y-71840000D03*
X181200000Y-56400000D03*
X183400000Y-46370000D03*
X191470000Y-71330000D03*
X211440000Y-38580000D03*
X185880000Y-59360000D03*
X217290000Y-58300000D03*
X182820000Y-33140000D03*
X197060000Y-67300000D03*
X177330000Y-33180000D03*
X172110000Y-32050000D03*
X212400000Y-39620000D03*
X183030000Y-79090000D03*
X200410000Y-66050000D03*
X174900000Y-63300000D03*
X181040000Y-93980000D03*
X219902640Y-43412640D03*
X169570000Y-50100000D03*
X184310000Y-31090000D03*
X201460000Y-67110000D03*
X209210000Y-78040000D03*
X198800000Y-75700000D03*
X203420000Y-58100000D03*
X199430000Y-62670000D03*
X183440000Y-51700000D03*
X202000000Y-41000000D03*
X168410000Y-36050000D03*
X159780000Y-56000000D03*
X216290000Y-74360000D03*
X183700000Y-84250000D03*
X184080000Y-39850000D03*
X185730000Y-88550000D03*
X209630000Y-55350000D03*
X190850000Y-69830000D03*
X178680000Y-59720000D03*
X186020000Y-76960000D03*
X202090000Y-77510000D03*
X211725000Y-79475000D03*
X189325000Y-69100000D03*
X189560000Y-50770000D03*
X196225000Y-90400000D03*
X171955888Y-74459314D03*
X198810000Y-76540000D03*
X174700000Y-46000000D03*
X181590000Y-51660000D03*
X192000000Y-66610000D03*
X178510000Y-50190000D03*
X199990000Y-76220000D03*
X201000000Y-55320000D03*
X215115000Y-55795000D03*
X156219437Y-75169437D03*
X174147919Y-75237132D03*
X177520000Y-69270000D03*
X174200000Y-58010000D03*
X216770000Y-54460000D03*
X174850000Y-42630000D03*
X203223398Y-93186602D03*
X177400000Y-48700000D03*
X192800000Y-56500000D03*
X160090000Y-60360000D03*
X154660000Y-45920000D03*
X182870000Y-81950000D03*
X196910000Y-82390000D03*
X222560000Y-61140000D03*
X175040000Y-93980000D03*
X180250000Y-77725000D03*
X199550000Y-78000000D03*
X184680000Y-75240000D03*
X201000000Y-60675000D03*
X162480000Y-61550000D03*
X172860000Y-82850000D03*
X215220000Y-73490000D03*
X203265685Y-80652944D03*
X192750000Y-49940000D03*
X173652944Y-74742157D03*
X190700000Y-73100000D03*
X207470000Y-35250000D03*
X173370101Y-73045101D03*
X183140000Y-37610000D03*
X163130000Y-71370000D03*
X188820000Y-83210000D03*
X220890000Y-51920000D03*
X184280000Y-61760000D03*
X174560000Y-61690000D03*
X188250000Y-55360000D03*
X193090000Y-32750000D03*
X173130000Y-89010000D03*
X188460000Y-44440000D03*
X174855026Y-74530025D03*
X200320000Y-51360000D03*
X168000000Y-87020000D03*
X164538680Y-36251320D03*
X177800000Y-66075000D03*
X205400000Y-60110000D03*
X172945837Y-75449264D03*
X215340000Y-63200000D03*
X156053398Y-44736602D03*
X172662995Y-73752208D03*
X190980000Y-93980000D03*
X209730000Y-33250000D03*
X181960000Y-53360000D03*
X189790000Y-25850000D03*
X194700000Y-91210000D03*
X188950000Y-56400000D03*
X197030000Y-87660000D03*
X203265685Y-81784315D03*
X218072641Y-78337359D03*
X182360000Y-66070000D03*
X184000000Y-63300000D03*
X183700000Y-85250000D03*
X219490000Y-49910000D03*
X184470000Y-28550000D03*
X154660000Y-47840000D03*
X185840000Y-42140000D03*
X183170000Y-30990000D03*
X201490000Y-53670000D03*
X196170000Y-44360000D03*
X160462078Y-79412078D03*
X161340000Y-76830000D03*
X197100000Y-79140000D03*
X178360000Y-25850000D03*
X210950000Y-82850000D03*
X189010000Y-87410000D03*
X196220000Y-89750000D03*
X180220000Y-69930000D03*
X178530000Y-69460000D03*
X177500000Y-61840000D03*
X210070000Y-58730000D03*
X174800000Y-64800000D03*
X172370000Y-84400000D03*
X179180000Y-67340000D03*
X173023961Y-27766039D03*
X172000000Y-41500000D03*
X207340000Y-57020000D03*
X185600000Y-25850000D03*
X159060000Y-58160000D03*
X186690000Y-78280000D03*
X208800000Y-41600000D03*
X190960000Y-51790000D03*
X221950000Y-47810000D03*
X211500000Y-75120000D03*
X198290000Y-55860000D03*
X222560000Y-70140000D03*
X180200000Y-73250000D03*
X206650000Y-34380000D03*
X154660000Y-57920000D03*
X194450000Y-48250000D03*
X193540000Y-55340000D03*
X217290000Y-61430000D03*
X183210000Y-68130000D03*
X198210000Y-71560000D03*
X194225000Y-74500000D03*
X219500000Y-51840000D03*
X199480000Y-71570000D03*
X208420000Y-34410000D03*
%TO.N,+3.3V*%
X192800000Y-65800000D03*
X165700000Y-66150000D03*
X191370000Y-69000000D03*
X182350000Y-64560000D03*
X203200000Y-69125000D03*
X173010000Y-84670000D03*
X161110000Y-70750000D03*
X185700000Y-46775000D03*
X197680000Y-58840000D03*
X167500000Y-43125000D03*
X195220000Y-54900000D03*
X181850000Y-56000000D03*
X201275000Y-39925000D03*
X197030000Y-62520000D03*
X184475000Y-68145000D03*
X197690000Y-60040000D03*
X202225000Y-69125000D03*
X184225000Y-51150000D03*
X176600000Y-33630000D03*
X190270000Y-66625000D03*
X190937500Y-66562500D03*
X203175000Y-70000000D03*
X192870000Y-31860000D03*
X168550000Y-71670000D03*
X190290000Y-68960000D03*
%TO.N,/STM32/I2C1_SCL_TOF_COLOR*%
X206200000Y-33750000D03*
X186550000Y-49050000D03*
X186450000Y-46575000D03*
X195395000Y-29945000D03*
%TO.N,+5V*%
X161650000Y-57350000D03*
X183700000Y-74975000D03*
X212840000Y-66590000D03*
X182200000Y-76975000D03*
X183700000Y-77975000D03*
X180575000Y-32125000D03*
X183700000Y-75975000D03*
X182200000Y-75975000D03*
X206520000Y-81780000D03*
X177585589Y-70985589D03*
X179325000Y-32150000D03*
X180525000Y-30825000D03*
X181800000Y-87830000D03*
X156980000Y-62500000D03*
X206970000Y-81040000D03*
X183700000Y-76975000D03*
X182200000Y-77975000D03*
X179275000Y-30800000D03*
X155800000Y-70350000D03*
X182200000Y-74975000D03*
%TO.N,Net-(U1-PA10)*%
X218500000Y-52875000D03*
X195250000Y-58040000D03*
%TO.N,/Charger_BQ25896/REGN*%
X205914075Y-83725165D03*
X208450000Y-78425000D03*
%TO.N,/STM32/~{RST}*%
X195644124Y-48794125D03*
X169300000Y-52675000D03*
X184130000Y-59030000D03*
X179200000Y-59025000D03*
%TO.N,/Motor_Driver/BIN1*%
X177297890Y-74219446D03*
X175439360Y-69000000D03*
%TO.N,/Motor_Driver/BIN2*%
X176290000Y-69250000D03*
X177720000Y-72920000D03*
%TO.N,/Motor_Driver/ENCA_OUT1*%
X159860000Y-75580000D03*
X177150000Y-67300000D03*
%TO.N,/Motor_Driver/ENCA_OUT2*%
X160840000Y-76370000D03*
X178460000Y-67460000D03*
%TO.N,/Motor_Driver/~{SLEEP}*%
X174200000Y-62500000D03*
X183777721Y-62530040D03*
%TO.N,/Motor_Driver/ENCB_OUT2*%
X185275000Y-67075000D03*
X172810000Y-88380000D03*
%TO.N,/Motor_Driver/ENCB_OUT1*%
X175460000Y-83980000D03*
X173900000Y-85540000D03*
%TO.N,/STM32/HC05_RX*%
X185100000Y-88075000D03*
X187775000Y-87575000D03*
%TO.N,/Charger_BQ25896/CHARGER_INT*%
X196000000Y-64770000D03*
X201175000Y-77550000D03*
%TO.N,/STM32/BUZZER*%
X178520000Y-33530000D03*
X184600000Y-56075000D03*
%TO.N,/Motor_Driver/PWM_SERVO*%
X192175000Y-61050000D03*
X159870000Y-63710000D03*
%TO.N,/Charger_BQ25896/I2C3_SCL_FG_BQ*%
X198800000Y-72150000D03*
X204667408Y-78944238D03*
%TO.N,/Charger_BQ25896/I2C3_SDA_FG_BQ*%
X194875000Y-75350000D03*
X204008319Y-79432924D03*
X196140000Y-58850000D03*
%TO.N,/STM32/TOF_1_XSHUT*%
X189775000Y-52150000D03*
X210475000Y-42250000D03*
%TO.N,/STM32/TOF_1_GPIO1*%
X189270000Y-52800000D03*
X208800000Y-40700000D03*
%TO.N,/STM32/TOF_2_XSHUT*%
X178250000Y-45100000D03*
X188775000Y-50950000D03*
%TO.N,/STM32/TOF_2_GPIO1*%
X188275000Y-45600000D03*
X176430000Y-45600000D03*
%TO.N,/STM32/NEOPIXEL_PWM*%
X183150000Y-40325000D03*
X187275000Y-46725000D03*
X187275000Y-53025000D03*
X187275000Y-44450000D03*
%TO.N,/STM32/I2C1_SDA_TOF_COLOR*%
X183575000Y-47900000D03*
X185200000Y-41650000D03*
X196645000Y-29445000D03*
X185750000Y-53025000D03*
X210850000Y-38000000D03*
X187300000Y-40450000D03*
X185085000Y-49025000D03*
%TO.N,CELL*%
X194690000Y-81490000D03*
X191200000Y-87800000D03*
X195925000Y-82400000D03*
%TO.N,Net-(U2-BISEN)*%
X171325000Y-80825000D03*
X170760000Y-79030000D03*
%TO.N,/Charger_BQ25896/TS*%
X205383946Y-78783946D03*
X200700000Y-80090000D03*
%TO.N,VBUS*%
X199950000Y-72275000D03*
X204770000Y-63850000D03*
X207890000Y-58750000D03*
X204240000Y-63140000D03*
X215143480Y-57156520D03*
X214840000Y-62350000D03*
%TO.N,/Charger_BQ25896/~{PG}*%
X214864376Y-74435624D03*
X207025000Y-78600000D03*
%TO.N,/Charger_BQ25896/STAT*%
X215625000Y-75225000D03*
X206100000Y-78775000D03*
%TO.N,GND*%
X171980000Y-87960000D03*
X169340000Y-67920000D03*
X196880000Y-73260000D03*
X195760000Y-77760000D03*
X197750000Y-60770000D03*
X207580000Y-71890000D03*
%TD*%
%TA.AperFunction,Conductor*%
%TO.N,GND*%
G36*
X202825838Y-25347660D02*
G01*
X202846480Y-25364294D01*
X222983181Y-45500995D01*
X223016666Y-45562318D01*
X223019500Y-45588676D01*
X223019500Y-74066274D01*
X222999815Y-74133313D01*
X222983181Y-74153955D01*
X202846480Y-94290656D01*
X202785157Y-94324141D01*
X202758799Y-94326975D01*
X174281201Y-94326975D01*
X174214162Y-94307290D01*
X174193520Y-94290656D01*
X168226846Y-88323982D01*
X172384500Y-88323982D01*
X172384500Y-88436018D01*
X172413497Y-88544237D01*
X172469515Y-88641263D01*
X172548737Y-88720485D01*
X172645763Y-88776503D01*
X172753982Y-88805500D01*
X172753984Y-88805500D01*
X172866016Y-88805500D01*
X172866018Y-88805500D01*
X172974237Y-88776503D01*
X173071263Y-88720485D01*
X173150485Y-88641263D01*
X173206503Y-88544237D01*
X173235500Y-88436018D01*
X173235500Y-88323982D01*
X173206503Y-88215763D01*
X173150485Y-88118737D01*
X173071263Y-88039515D01*
X172992839Y-87994237D01*
X172974239Y-87983498D01*
X172974238Y-87983497D01*
X172974237Y-87983497D01*
X172866018Y-87954500D01*
X172753982Y-87954500D01*
X172645763Y-87983497D01*
X172645760Y-87983498D01*
X172548740Y-88039513D01*
X172548734Y-88039517D01*
X172469517Y-88118734D01*
X172469513Y-88118740D01*
X172413498Y-88215760D01*
X172413497Y-88215763D01*
X172384500Y-88323982D01*
X168226846Y-88323982D01*
X167676846Y-87773982D01*
X181374500Y-87773982D01*
X181374500Y-87886018D01*
X181400620Y-87983497D01*
X181403497Y-87994236D01*
X181403498Y-87994239D01*
X181417785Y-88018984D01*
X181459515Y-88091263D01*
X181538737Y-88170485D01*
X181635763Y-88226503D01*
X181743982Y-88255500D01*
X181743984Y-88255500D01*
X181856016Y-88255500D01*
X181856018Y-88255500D01*
X181964237Y-88226503D01*
X182061263Y-88170485D01*
X182140485Y-88091263D01*
X182182216Y-88018982D01*
X184674500Y-88018982D01*
X184674500Y-88131018D01*
X184703497Y-88239237D01*
X184759515Y-88336263D01*
X184838737Y-88415485D01*
X184935763Y-88471503D01*
X185043982Y-88500500D01*
X185043984Y-88500500D01*
X185156016Y-88500500D01*
X185156018Y-88500500D01*
X185264237Y-88471503D01*
X185361263Y-88415485D01*
X185440485Y-88336263D01*
X185496503Y-88239237D01*
X185525500Y-88131018D01*
X185525500Y-88018982D01*
X185496503Y-87910763D01*
X185440485Y-87813737D01*
X185361263Y-87734515D01*
X185264237Y-87678497D01*
X185156018Y-87649500D01*
X185043982Y-87649500D01*
X184935763Y-87678497D01*
X184935760Y-87678498D01*
X184838740Y-87734513D01*
X184838734Y-87734517D01*
X184759517Y-87813734D01*
X184759513Y-87813740D01*
X184703498Y-87910760D01*
X184703497Y-87910763D01*
X184674500Y-88018982D01*
X182182216Y-88018982D01*
X182196503Y-87994237D01*
X182225500Y-87886018D01*
X182225500Y-87773982D01*
X182196503Y-87665763D01*
X182140485Y-87568737D01*
X182090730Y-87518982D01*
X187349500Y-87518982D01*
X187349500Y-87631018D01*
X187377233Y-87734517D01*
X187378497Y-87739236D01*
X187378498Y-87739239D01*
X187381238Y-87743984D01*
X187434515Y-87836263D01*
X187513737Y-87915485D01*
X187610763Y-87971503D01*
X187718982Y-88000500D01*
X187718984Y-88000500D01*
X187831016Y-88000500D01*
X187831018Y-88000500D01*
X187939237Y-87971503D01*
X188036263Y-87915485D01*
X188115485Y-87836263D01*
X188168763Y-87743982D01*
X190774500Y-87743982D01*
X190774500Y-87856018D01*
X190803497Y-87964237D01*
X190859515Y-88061263D01*
X190938737Y-88140485D01*
X191035763Y-88196503D01*
X191143982Y-88225500D01*
X191143984Y-88225500D01*
X191256016Y-88225500D01*
X191256018Y-88225500D01*
X191364237Y-88196503D01*
X191461263Y-88140485D01*
X191540485Y-88061263D01*
X191596503Y-87964237D01*
X191625500Y-87856018D01*
X191625500Y-87743982D01*
X191596503Y-87635763D01*
X191540485Y-87538737D01*
X191461263Y-87459515D01*
X191376817Y-87410760D01*
X191364239Y-87403498D01*
X191364238Y-87403497D01*
X191364237Y-87403497D01*
X191256018Y-87374500D01*
X191143982Y-87374500D01*
X191035763Y-87403497D01*
X191035760Y-87403498D01*
X190938740Y-87459513D01*
X190938734Y-87459517D01*
X190859517Y-87538734D01*
X190859513Y-87538740D01*
X190803498Y-87635760D01*
X190803497Y-87635763D01*
X190774500Y-87743982D01*
X188168763Y-87743982D01*
X188171503Y-87739237D01*
X188200500Y-87631018D01*
X188200500Y-87518982D01*
X188171503Y-87410763D01*
X188115485Y-87313737D01*
X188036263Y-87234515D01*
X187939237Y-87178497D01*
X187831018Y-87149500D01*
X187718982Y-87149500D01*
X187610763Y-87178497D01*
X187610760Y-87178498D01*
X187513740Y-87234513D01*
X187513734Y-87234517D01*
X187434517Y-87313734D01*
X187434513Y-87313740D01*
X187378498Y-87410760D01*
X187378497Y-87410763D01*
X187349500Y-87518982D01*
X182090730Y-87518982D01*
X182061263Y-87489515D01*
X181964237Y-87433497D01*
X181856018Y-87404500D01*
X181743982Y-87404500D01*
X181635763Y-87433497D01*
X181635760Y-87433498D01*
X181538740Y-87489513D01*
X181538734Y-87489517D01*
X181459517Y-87568734D01*
X181459513Y-87568740D01*
X181403498Y-87665760D01*
X181403497Y-87665763D01*
X181374500Y-87773982D01*
X167676846Y-87773982D01*
X165386846Y-85483982D01*
X173474500Y-85483982D01*
X173474500Y-85596018D01*
X173503497Y-85704237D01*
X173559515Y-85801263D01*
X173638737Y-85880485D01*
X173735763Y-85936503D01*
X173843982Y-85965500D01*
X173843984Y-85965500D01*
X173956016Y-85965500D01*
X173956018Y-85965500D01*
X174064237Y-85936503D01*
X174161263Y-85880485D01*
X174240485Y-85801263D01*
X174296503Y-85704237D01*
X174325500Y-85596018D01*
X174325500Y-85483982D01*
X174296503Y-85375763D01*
X174240485Y-85278737D01*
X174161263Y-85199515D01*
X174064237Y-85143497D01*
X173956018Y-85114500D01*
X173843982Y-85114500D01*
X173735763Y-85143497D01*
X173735760Y-85143498D01*
X173638740Y-85199513D01*
X173638734Y-85199517D01*
X173559517Y-85278734D01*
X173559513Y-85278740D01*
X173503498Y-85375760D01*
X173503497Y-85375763D01*
X173474500Y-85483982D01*
X165386846Y-85483982D01*
X164516846Y-84613982D01*
X172584500Y-84613982D01*
X172584500Y-84726018D01*
X172613497Y-84834237D01*
X172669515Y-84931263D01*
X172748737Y-85010485D01*
X172845763Y-85066503D01*
X172953982Y-85095500D01*
X172953984Y-85095500D01*
X173066016Y-85095500D01*
X173066018Y-85095500D01*
X173174237Y-85066503D01*
X173271263Y-85010485D01*
X173350485Y-84931263D01*
X173406503Y-84834237D01*
X173435500Y-84726018D01*
X173435500Y-84613982D01*
X173406503Y-84505763D01*
X173350485Y-84408737D01*
X173271263Y-84329515D01*
X173174237Y-84273497D01*
X173066018Y-84244500D01*
X172953982Y-84244500D01*
X172845763Y-84273497D01*
X172845760Y-84273498D01*
X172748740Y-84329513D01*
X172748734Y-84329517D01*
X172669517Y-84408734D01*
X172669513Y-84408740D01*
X172613498Y-84505760D01*
X172613497Y-84505763D01*
X172584500Y-84613982D01*
X164516846Y-84613982D01*
X163826846Y-83923982D01*
X175034500Y-83923982D01*
X175034500Y-84036018D01*
X175063497Y-84144237D01*
X175119515Y-84241263D01*
X175198737Y-84320485D01*
X175295763Y-84376503D01*
X175403982Y-84405500D01*
X175403984Y-84405500D01*
X175516016Y-84405500D01*
X175516018Y-84405500D01*
X175624237Y-84376503D01*
X175721263Y-84320485D01*
X175800485Y-84241263D01*
X175856503Y-84144237D01*
X175885500Y-84036018D01*
X175885500Y-83923982D01*
X175856503Y-83815763D01*
X175800485Y-83718737D01*
X175750895Y-83669147D01*
X205488575Y-83669147D01*
X205488575Y-83781183D01*
X205517572Y-83889402D01*
X205573590Y-83986428D01*
X205652812Y-84065650D01*
X205749838Y-84121668D01*
X205858057Y-84150665D01*
X205858059Y-84150665D01*
X205970091Y-84150665D01*
X205970093Y-84150665D01*
X206078312Y-84121668D01*
X206175338Y-84065650D01*
X206254560Y-83986428D01*
X206310578Y-83889402D01*
X206339575Y-83781183D01*
X206339575Y-83669147D01*
X206310578Y-83560928D01*
X206254560Y-83463902D01*
X206175338Y-83384680D01*
X206078312Y-83328662D01*
X205970093Y-83299665D01*
X205858057Y-83299665D01*
X205749838Y-83328662D01*
X205749835Y-83328663D01*
X205652815Y-83384678D01*
X205652809Y-83384682D01*
X205573592Y-83463899D01*
X205573588Y-83463905D01*
X205517573Y-83560925D01*
X205517572Y-83560928D01*
X205488575Y-83669147D01*
X175750895Y-83669147D01*
X175721263Y-83639515D01*
X175624237Y-83583497D01*
X175516018Y-83554500D01*
X175403982Y-83554500D01*
X175295763Y-83583497D01*
X175295760Y-83583498D01*
X175198740Y-83639513D01*
X175198734Y-83639517D01*
X175119517Y-83718734D01*
X175119513Y-83718740D01*
X175063498Y-83815760D01*
X175063497Y-83815763D01*
X175034500Y-83923982D01*
X163826846Y-83923982D01*
X162246846Y-82343982D01*
X195499500Y-82343982D01*
X195499500Y-82456018D01*
X195528497Y-82564237D01*
X195584515Y-82661263D01*
X195663737Y-82740485D01*
X195760763Y-82796503D01*
X195868982Y-82825500D01*
X195868984Y-82825500D01*
X195981016Y-82825500D01*
X195981018Y-82825500D01*
X196089237Y-82796503D01*
X196186263Y-82740485D01*
X196265485Y-82661263D01*
X196321503Y-82564237D01*
X196350500Y-82456018D01*
X196350500Y-82343982D01*
X196321503Y-82235763D01*
X196265485Y-82138737D01*
X196186263Y-82059515D01*
X196089237Y-82003497D01*
X195981018Y-81974500D01*
X195868982Y-81974500D01*
X195760763Y-82003497D01*
X195760760Y-82003498D01*
X195663740Y-82059513D01*
X195663734Y-82059517D01*
X195584517Y-82138734D01*
X195584513Y-82138740D01*
X195528498Y-82235760D01*
X195528497Y-82235763D01*
X195499500Y-82343982D01*
X162246846Y-82343982D01*
X161336846Y-81433982D01*
X194264500Y-81433982D01*
X194264500Y-81546018D01*
X194293497Y-81654237D01*
X194349515Y-81751263D01*
X194428737Y-81830485D01*
X194525763Y-81886503D01*
X194633982Y-81915500D01*
X194633984Y-81915500D01*
X194746016Y-81915500D01*
X194746018Y-81915500D01*
X194854237Y-81886503D01*
X194951263Y-81830485D01*
X195030485Y-81751263D01*
X195046236Y-81723982D01*
X206094500Y-81723982D01*
X206094500Y-81836018D01*
X206123497Y-81944237D01*
X206179515Y-82041263D01*
X206258737Y-82120485D01*
X206355763Y-82176503D01*
X206463982Y-82205500D01*
X206463984Y-82205500D01*
X206576016Y-82205500D01*
X206576018Y-82205500D01*
X206684237Y-82176503D01*
X206781263Y-82120485D01*
X206860485Y-82041263D01*
X206916503Y-81944237D01*
X206945500Y-81836018D01*
X206945500Y-81723982D01*
X206917938Y-81621118D01*
X206919601Y-81551274D01*
X206958763Y-81493412D01*
X207021528Y-81466091D01*
X207026016Y-81465500D01*
X207026018Y-81465500D01*
X207134237Y-81436503D01*
X207231263Y-81380485D01*
X207310485Y-81301263D01*
X207366503Y-81204237D01*
X207395500Y-81096018D01*
X207395500Y-80983982D01*
X207366503Y-80875763D01*
X207310485Y-80778737D01*
X207231263Y-80699515D01*
X207134237Y-80643497D01*
X207026018Y-80614500D01*
X206913982Y-80614500D01*
X206805763Y-80643497D01*
X206805760Y-80643498D01*
X206708740Y-80699513D01*
X206708734Y-80699517D01*
X206629517Y-80778734D01*
X206629513Y-80778740D01*
X206573498Y-80875760D01*
X206573497Y-80875763D01*
X206544500Y-80983982D01*
X206544500Y-81096018D01*
X206558834Y-81149515D01*
X206572061Y-81198876D01*
X206570398Y-81268725D01*
X206531235Y-81326588D01*
X206468482Y-81353907D01*
X206463985Y-81354499D01*
X206355763Y-81383497D01*
X206355760Y-81383498D01*
X206258740Y-81439513D01*
X206258734Y-81439517D01*
X206179517Y-81518734D01*
X206179513Y-81518740D01*
X206123498Y-81615760D01*
X206123497Y-81615763D01*
X206094500Y-81723982D01*
X195046236Y-81723982D01*
X195086503Y-81654237D01*
X195115500Y-81546018D01*
X195115500Y-81433982D01*
X195086503Y-81325763D01*
X195030485Y-81228737D01*
X194951263Y-81149515D01*
X194859440Y-81096501D01*
X194854239Y-81093498D01*
X194854238Y-81093497D01*
X194854237Y-81093497D01*
X194746018Y-81064500D01*
X194633982Y-81064500D01*
X194525763Y-81093497D01*
X194525760Y-81093498D01*
X194428740Y-81149513D01*
X194428734Y-81149517D01*
X194349517Y-81228734D01*
X194349513Y-81228740D01*
X194293498Y-81325760D01*
X194293497Y-81325763D01*
X194264500Y-81433982D01*
X161336846Y-81433982D01*
X160671846Y-80768982D01*
X170899500Y-80768982D01*
X170899500Y-80881018D01*
X170928497Y-80989237D01*
X170984515Y-81086263D01*
X171063737Y-81165485D01*
X171160763Y-81221503D01*
X171268982Y-81250500D01*
X171268984Y-81250500D01*
X171381016Y-81250500D01*
X171381018Y-81250500D01*
X171489237Y-81221503D01*
X171586263Y-81165485D01*
X171665485Y-81086263D01*
X171721503Y-80989237D01*
X171750500Y-80881018D01*
X171750500Y-80768982D01*
X171721503Y-80660763D01*
X171711814Y-80643982D01*
X198974500Y-80643982D01*
X198974500Y-80756018D01*
X198980589Y-80778740D01*
X199003497Y-80864236D01*
X199003498Y-80864239D01*
X199022169Y-80896579D01*
X199059515Y-80961263D01*
X199138737Y-81040485D01*
X199235763Y-81096503D01*
X199343982Y-81125500D01*
X199343984Y-81125500D01*
X199456016Y-81125500D01*
X199456018Y-81125500D01*
X199564237Y-81096503D01*
X199661263Y-81040485D01*
X199740485Y-80961263D01*
X199796503Y-80864237D01*
X199825500Y-80756018D01*
X199825500Y-80643982D01*
X199796503Y-80535763D01*
X199740485Y-80438737D01*
X199661263Y-80359515D01*
X199564237Y-80303497D01*
X199456018Y-80274500D01*
X199343982Y-80274500D01*
X199235763Y-80303497D01*
X199235760Y-80303498D01*
X199138740Y-80359513D01*
X199138734Y-80359517D01*
X199059517Y-80438734D01*
X199059513Y-80438740D01*
X199003498Y-80535760D01*
X199003497Y-80535763D01*
X198974500Y-80643982D01*
X171711814Y-80643982D01*
X171665485Y-80563737D01*
X171586263Y-80484515D01*
X171521579Y-80447169D01*
X171489239Y-80428498D01*
X171489238Y-80428497D01*
X171489237Y-80428497D01*
X171381018Y-80399500D01*
X171268982Y-80399500D01*
X171160763Y-80428497D01*
X171160760Y-80428498D01*
X171063740Y-80484513D01*
X171063734Y-80484517D01*
X170984517Y-80563734D01*
X170984513Y-80563740D01*
X170928498Y-80660760D01*
X170928498Y-80660761D01*
X170928497Y-80660763D01*
X170899500Y-80768982D01*
X160671846Y-80768982D01*
X159936846Y-80033982D01*
X200274500Y-80033982D01*
X200274500Y-80146018D01*
X200303497Y-80254237D01*
X200359515Y-80351263D01*
X200438737Y-80430485D01*
X200535763Y-80486503D01*
X200643982Y-80515500D01*
X200643984Y-80515500D01*
X200756016Y-80515500D01*
X200756018Y-80515500D01*
X200864237Y-80486503D01*
X200961263Y-80430485D01*
X201040485Y-80351263D01*
X201096503Y-80254237D01*
X201125500Y-80146018D01*
X201125500Y-80033982D01*
X201096503Y-79925763D01*
X201040485Y-79828737D01*
X200961263Y-79749515D01*
X200864237Y-79693497D01*
X200756018Y-79664500D01*
X200643982Y-79664500D01*
X200535763Y-79693497D01*
X200535760Y-79693498D01*
X200438740Y-79749513D01*
X200438734Y-79749517D01*
X200359517Y-79828734D01*
X200359513Y-79828740D01*
X200303498Y-79925760D01*
X200303497Y-79925763D01*
X200274500Y-80033982D01*
X159936846Y-80033982D01*
X158876846Y-78973982D01*
X170334500Y-78973982D01*
X170334500Y-79086018D01*
X170363497Y-79194237D01*
X170419515Y-79291263D01*
X170498737Y-79370485D01*
X170595763Y-79426503D01*
X170703982Y-79455500D01*
X170703984Y-79455500D01*
X170816016Y-79455500D01*
X170816018Y-79455500D01*
X170924237Y-79426503D01*
X171010142Y-79376906D01*
X203582819Y-79376906D01*
X203582819Y-79488942D01*
X203611816Y-79597161D01*
X203667834Y-79694187D01*
X203747056Y-79773409D01*
X203844082Y-79829427D01*
X203952301Y-79858424D01*
X203952303Y-79858424D01*
X204064335Y-79858424D01*
X204064337Y-79858424D01*
X204172556Y-79829427D01*
X204269582Y-79773409D01*
X204348804Y-79694187D01*
X204404822Y-79597161D01*
X204433819Y-79488942D01*
X204433819Y-79483757D01*
X204453504Y-79416718D01*
X204506308Y-79370963D01*
X204575466Y-79361019D01*
X204589901Y-79363980D01*
X204611390Y-79369738D01*
X204611392Y-79369738D01*
X204723424Y-79369738D01*
X204723426Y-79369738D01*
X204831645Y-79340741D01*
X204928671Y-79284723D01*
X205007893Y-79205501D01*
X205009690Y-79202387D01*
X205011893Y-79200286D01*
X205012841Y-79199052D01*
X205013033Y-79199199D01*
X205060249Y-79154170D01*
X205128855Y-79140939D01*
X205179078Y-79156990D01*
X205219709Y-79180449D01*
X205327928Y-79209446D01*
X205327930Y-79209446D01*
X205439962Y-79209446D01*
X205439964Y-79209446D01*
X205548183Y-79180449D01*
X205645209Y-79124431D01*
X205658765Y-79110875D01*
X205720088Y-79077390D01*
X205789780Y-79082374D01*
X205834127Y-79110875D01*
X205838737Y-79115485D01*
X205935763Y-79171503D01*
X206043982Y-79200500D01*
X206043984Y-79200500D01*
X206156016Y-79200500D01*
X206156018Y-79200500D01*
X206264237Y-79171503D01*
X206361263Y-79115485D01*
X206440485Y-79036263D01*
X206496503Y-78939237D01*
X206497124Y-78936918D01*
X206498181Y-78935183D01*
X206499612Y-78931730D01*
X206500150Y-78931952D01*
X206533484Y-78877259D01*
X206596330Y-78846727D01*
X206665706Y-78855018D01*
X206704580Y-78881328D01*
X206763737Y-78940485D01*
X206860763Y-78996503D01*
X206968982Y-79025500D01*
X206968984Y-79025500D01*
X207081016Y-79025500D01*
X207081018Y-79025500D01*
X207189237Y-78996503D01*
X207286263Y-78940485D01*
X207365485Y-78861263D01*
X207421503Y-78764237D01*
X207450500Y-78656018D01*
X207450500Y-78543982D01*
X207421503Y-78435763D01*
X207420306Y-78433690D01*
X207414050Y-78422853D01*
X207382947Y-78368982D01*
X208024500Y-78368982D01*
X208024500Y-78481018D01*
X208053497Y-78589237D01*
X208109515Y-78686263D01*
X208188737Y-78765485D01*
X208285763Y-78821503D01*
X208393982Y-78850500D01*
X208393984Y-78850500D01*
X208506016Y-78850500D01*
X208506018Y-78850500D01*
X208614237Y-78821503D01*
X208711263Y-78765485D01*
X208790485Y-78686263D01*
X208846503Y-78589237D01*
X208875500Y-78481018D01*
X208875500Y-78368982D01*
X208846503Y-78260763D01*
X208790485Y-78163737D01*
X208711263Y-78084515D01*
X208646579Y-78047169D01*
X208614239Y-78028498D01*
X208614238Y-78028497D01*
X208614237Y-78028497D01*
X208506018Y-77999500D01*
X208393982Y-77999500D01*
X208285763Y-78028497D01*
X208285760Y-78028498D01*
X208188740Y-78084513D01*
X208188734Y-78084517D01*
X208109517Y-78163734D01*
X208109513Y-78163740D01*
X208053498Y-78260760D01*
X208053497Y-78260763D01*
X208024500Y-78368982D01*
X207382947Y-78368982D01*
X207365487Y-78338740D01*
X207365482Y-78338734D01*
X207286265Y-78259517D01*
X207286263Y-78259515D01*
X207189237Y-78203497D01*
X207081018Y-78174500D01*
X206968982Y-78174500D01*
X206860763Y-78203497D01*
X206860760Y-78203498D01*
X206763740Y-78259513D01*
X206763734Y-78259517D01*
X206684517Y-78338734D01*
X206684513Y-78338740D01*
X206628498Y-78435760D01*
X206628496Y-78435765D01*
X206627873Y-78438091D01*
X206626812Y-78439830D01*
X206625388Y-78443270D01*
X206624851Y-78443047D01*
X206591504Y-78497749D01*
X206528655Y-78528274D01*
X206459280Y-78519975D01*
X206420419Y-78493671D01*
X206361265Y-78434517D01*
X206361263Y-78434515D01*
X206264237Y-78378497D01*
X206156018Y-78349500D01*
X206043982Y-78349500D01*
X205935763Y-78378497D01*
X205935760Y-78378498D01*
X205838740Y-78434513D01*
X205838735Y-78434516D01*
X205825176Y-78448075D01*
X205763851Y-78481557D01*
X205694159Y-78476569D01*
X205649818Y-78448070D01*
X205645211Y-78443463D01*
X205645209Y-78443461D01*
X205548183Y-78387443D01*
X205439964Y-78358446D01*
X205327928Y-78358446D01*
X205219709Y-78387443D01*
X205219706Y-78387444D01*
X205122686Y-78443459D01*
X205122680Y-78443463D01*
X205043463Y-78522680D01*
X205043461Y-78522683D01*
X205041659Y-78525805D01*
X205039449Y-78527912D01*
X205038513Y-78529132D01*
X205038322Y-78528986D01*
X204991091Y-78574020D01*
X204922484Y-78587242D01*
X204872272Y-78571191D01*
X204831647Y-78547736D01*
X204831646Y-78547735D01*
X204831645Y-78547735D01*
X204723426Y-78518738D01*
X204611390Y-78518738D01*
X204503171Y-78547735D01*
X204503168Y-78547736D01*
X204406148Y-78603751D01*
X204406142Y-78603755D01*
X204326925Y-78682972D01*
X204326921Y-78682978D01*
X204270906Y-78779998D01*
X204270905Y-78780001D01*
X204241908Y-78888220D01*
X204241908Y-78893404D01*
X204222223Y-78960443D01*
X204169419Y-79006198D01*
X204100261Y-79016142D01*
X204085816Y-79013179D01*
X204064338Y-79007424D01*
X204064337Y-79007424D01*
X203952301Y-79007424D01*
X203844082Y-79036421D01*
X203844079Y-79036422D01*
X203747059Y-79092437D01*
X203747053Y-79092441D01*
X203667836Y-79171658D01*
X203667832Y-79171664D01*
X203611817Y-79268684D01*
X203611816Y-79268687D01*
X203582819Y-79376906D01*
X171010142Y-79376906D01*
X171021263Y-79370485D01*
X171100485Y-79291263D01*
X171156503Y-79194237D01*
X171185500Y-79086018D01*
X171185500Y-78973982D01*
X171156503Y-78865763D01*
X171100485Y-78768737D01*
X171021263Y-78689515D01*
X170924237Y-78633497D01*
X170816018Y-78604500D01*
X170703982Y-78604500D01*
X170595763Y-78633497D01*
X170595760Y-78633498D01*
X170498740Y-78689513D01*
X170498734Y-78689517D01*
X170419517Y-78768734D01*
X170419513Y-78768740D01*
X170363498Y-78865760D01*
X170363497Y-78865763D01*
X170334500Y-78973982D01*
X158876846Y-78973982D01*
X158366846Y-78463982D01*
X190344500Y-78463982D01*
X190344500Y-78576018D01*
X190373497Y-78684237D01*
X190429515Y-78781263D01*
X190508737Y-78860485D01*
X190605763Y-78916503D01*
X190713982Y-78945500D01*
X190713984Y-78945500D01*
X190826016Y-78945500D01*
X190826018Y-78945500D01*
X190934237Y-78916503D01*
X191031263Y-78860485D01*
X191110485Y-78781263D01*
X191166503Y-78684237D01*
X191195500Y-78576018D01*
X191195500Y-78463982D01*
X191166503Y-78355763D01*
X191110485Y-78258737D01*
X191031263Y-78179515D01*
X190961503Y-78139239D01*
X190934239Y-78123498D01*
X190934238Y-78123497D01*
X190934237Y-78123497D01*
X190826018Y-78094500D01*
X190713982Y-78094500D01*
X190605763Y-78123497D01*
X190605760Y-78123498D01*
X190508740Y-78179513D01*
X190508734Y-78179517D01*
X190429517Y-78258734D01*
X190429513Y-78258740D01*
X190373498Y-78355760D01*
X190373497Y-78355763D01*
X190344500Y-78463982D01*
X158366846Y-78463982D01*
X157436846Y-77533982D01*
X168864500Y-77533982D01*
X168864500Y-77646018D01*
X168893497Y-77754237D01*
X168949515Y-77851263D01*
X169028737Y-77930485D01*
X169125763Y-77986503D01*
X169233982Y-78015500D01*
X169233984Y-78015500D01*
X169346016Y-78015500D01*
X169346018Y-78015500D01*
X169454237Y-77986503D01*
X169551263Y-77930485D01*
X169630485Y-77851263D01*
X169686503Y-77754237D01*
X169715500Y-77646018D01*
X169715500Y-77533982D01*
X169686503Y-77425763D01*
X169630485Y-77328737D01*
X169551263Y-77249515D01*
X169454237Y-77193497D01*
X169346018Y-77164500D01*
X169233982Y-77164500D01*
X169125763Y-77193497D01*
X169125760Y-77193498D01*
X169028740Y-77249513D01*
X169028734Y-77249517D01*
X168949517Y-77328734D01*
X168949513Y-77328740D01*
X168893498Y-77425760D01*
X168893497Y-77425763D01*
X168864500Y-77533982D01*
X157436846Y-77533982D01*
X156216846Y-76313982D01*
X160414500Y-76313982D01*
X160414500Y-76426018D01*
X160442850Y-76531820D01*
X160443497Y-76534236D01*
X160443498Y-76534239D01*
X160462169Y-76566579D01*
X160499515Y-76631263D01*
X160578737Y-76710485D01*
X160675763Y-76766503D01*
X160783982Y-76795500D01*
X160783984Y-76795500D01*
X160896016Y-76795500D01*
X160896018Y-76795500D01*
X161004237Y-76766503D01*
X161101263Y-76710485D01*
X161117766Y-76693982D01*
X166749500Y-76693982D01*
X166749500Y-76806018D01*
X166750772Y-76810763D01*
X166778497Y-76914236D01*
X166778498Y-76914239D01*
X166781238Y-76918984D01*
X166834515Y-77011263D01*
X166913737Y-77090485D01*
X167010763Y-77146503D01*
X167118982Y-77175500D01*
X167118984Y-77175500D01*
X167231016Y-77175500D01*
X167231018Y-77175500D01*
X167339237Y-77146503D01*
X167436263Y-77090485D01*
X167515485Y-77011263D01*
X167571503Y-76914237D01*
X167600500Y-76806018D01*
X167600500Y-76693982D01*
X167571503Y-76585763D01*
X167515485Y-76488737D01*
X167436263Y-76409515D01*
X167339237Y-76353497D01*
X167231018Y-76324500D01*
X167118982Y-76324500D01*
X167010763Y-76353497D01*
X167010760Y-76353498D01*
X166913740Y-76409513D01*
X166913734Y-76409517D01*
X166834517Y-76488734D01*
X166834513Y-76488740D01*
X166778498Y-76585760D01*
X166778497Y-76585763D01*
X166749500Y-76693982D01*
X161117766Y-76693982D01*
X161180485Y-76631263D01*
X161236503Y-76534237D01*
X161265500Y-76426018D01*
X161265500Y-76313982D01*
X161236503Y-76205763D01*
X161180485Y-76108737D01*
X161101263Y-76029515D01*
X161004237Y-75973497D01*
X160896018Y-75944500D01*
X160783982Y-75944500D01*
X160675763Y-75973497D01*
X160675760Y-75973498D01*
X160578740Y-76029513D01*
X160578734Y-76029517D01*
X160499517Y-76108734D01*
X160499513Y-76108740D01*
X160443498Y-76205760D01*
X160443497Y-76205763D01*
X160414500Y-76313982D01*
X156216846Y-76313982D01*
X155426846Y-75523982D01*
X159434500Y-75523982D01*
X159434500Y-75636018D01*
X159463497Y-75744237D01*
X159519515Y-75841263D01*
X159598737Y-75920485D01*
X159695763Y-75976503D01*
X159803982Y-76005500D01*
X159803984Y-76005500D01*
X159916016Y-76005500D01*
X159916018Y-76005500D01*
X160024237Y-75976503D01*
X160121263Y-75920485D01*
X160200485Y-75841263D01*
X160256503Y-75744237D01*
X160285500Y-75636018D01*
X160285500Y-75523982D01*
X160256503Y-75415763D01*
X160200485Y-75318737D01*
X160121263Y-75239515D01*
X160024237Y-75183497D01*
X159916018Y-75154500D01*
X159803982Y-75154500D01*
X159695763Y-75183497D01*
X159695760Y-75183498D01*
X159598740Y-75239513D01*
X159598734Y-75239517D01*
X159519517Y-75318734D01*
X159519513Y-75318740D01*
X159463498Y-75415760D01*
X159463497Y-75415763D01*
X159434500Y-75523982D01*
X155426846Y-75523982D01*
X154563164Y-74660300D01*
X158530818Y-74660300D01*
X158530818Y-74772336D01*
X158559815Y-74880555D01*
X158615833Y-74977581D01*
X158695055Y-75056803D01*
X158792081Y-75112821D01*
X158900300Y-75141818D01*
X158900302Y-75141818D01*
X159012334Y-75141818D01*
X159012336Y-75141818D01*
X159120555Y-75112821D01*
X159217581Y-75056803D01*
X159296803Y-74977581D01*
X159330635Y-74918982D01*
X181774500Y-74918982D01*
X181774500Y-75031018D01*
X181796419Y-75112819D01*
X181803497Y-75139236D01*
X181803498Y-75139239D01*
X181804987Y-75141818D01*
X181859515Y-75236263D01*
X181938737Y-75315485D01*
X182010654Y-75357006D01*
X182029025Y-75367613D01*
X182077241Y-75418180D01*
X182090463Y-75486787D01*
X182064495Y-75551652D01*
X182029025Y-75582387D01*
X181938740Y-75634513D01*
X181938734Y-75634517D01*
X181859517Y-75713734D01*
X181859513Y-75713740D01*
X181803498Y-75810760D01*
X181803497Y-75810763D01*
X181774500Y-75918982D01*
X181774500Y-76031018D01*
X181803497Y-76139237D01*
X181859515Y-76236263D01*
X181938737Y-76315485D01*
X182010654Y-76357006D01*
X182029025Y-76367613D01*
X182077241Y-76418180D01*
X182090463Y-76486787D01*
X182064495Y-76551652D01*
X182029025Y-76582387D01*
X181938740Y-76634513D01*
X181938734Y-76634517D01*
X181859517Y-76713734D01*
X181859513Y-76713740D01*
X181803498Y-76810760D01*
X181803497Y-76810763D01*
X181774500Y-76918982D01*
X181774500Y-77031018D01*
X181803497Y-77139237D01*
X181859515Y-77236263D01*
X181938737Y-77315485D01*
X182010654Y-77357006D01*
X182029025Y-77367613D01*
X182077241Y-77418180D01*
X182090463Y-77486787D01*
X182064495Y-77551652D01*
X182029025Y-77582387D01*
X181938740Y-77634513D01*
X181938734Y-77634517D01*
X181859517Y-77713734D01*
X181859513Y-77713740D01*
X181803498Y-77810760D01*
X181803497Y-77810763D01*
X181774500Y-77918982D01*
X181774500Y-78031018D01*
X181803497Y-78139237D01*
X181859515Y-78236263D01*
X181938737Y-78315485D01*
X182035763Y-78371503D01*
X182143982Y-78400500D01*
X182143984Y-78400500D01*
X182256016Y-78400500D01*
X182256018Y-78400500D01*
X182364237Y-78371503D01*
X182461263Y-78315485D01*
X182540485Y-78236263D01*
X182596503Y-78139237D01*
X182625500Y-78031018D01*
X182625500Y-77918982D01*
X182596503Y-77810763D01*
X182540485Y-77713737D01*
X182461263Y-77634515D01*
X182370973Y-77582386D01*
X182322759Y-77531820D01*
X182309535Y-77463213D01*
X182335503Y-77398349D01*
X182370972Y-77367614D01*
X182461263Y-77315485D01*
X182540485Y-77236263D01*
X182596503Y-77139237D01*
X182625500Y-77031018D01*
X182625500Y-76918982D01*
X182596503Y-76810763D01*
X182540485Y-76713737D01*
X182461263Y-76634515D01*
X182370973Y-76582386D01*
X182322759Y-76531820D01*
X182309535Y-76463213D01*
X182335503Y-76398349D01*
X182370972Y-76367614D01*
X182461263Y-76315485D01*
X182540485Y-76236263D01*
X182596503Y-76139237D01*
X182625500Y-76031018D01*
X182625500Y-75918982D01*
X182596503Y-75810763D01*
X182540485Y-75713737D01*
X182461263Y-75634515D01*
X182370973Y-75582386D01*
X182322759Y-75531820D01*
X182309535Y-75463213D01*
X182335503Y-75398349D01*
X182370972Y-75367614D01*
X182461263Y-75315485D01*
X182540485Y-75236263D01*
X182596503Y-75139237D01*
X182625500Y-75031018D01*
X182625500Y-74918982D01*
X183274500Y-74918982D01*
X183274500Y-75031018D01*
X183296419Y-75112819D01*
X183303497Y-75139236D01*
X183303498Y-75139239D01*
X183304987Y-75141818D01*
X183359515Y-75236263D01*
X183438737Y-75315485D01*
X183510654Y-75357006D01*
X183529025Y-75367613D01*
X183577241Y-75418180D01*
X183590463Y-75486787D01*
X183564495Y-75551652D01*
X183529025Y-75582387D01*
X183438740Y-75634513D01*
X183438734Y-75634517D01*
X183359517Y-75713734D01*
X183359513Y-75713740D01*
X183303498Y-75810760D01*
X183303497Y-75810763D01*
X183274500Y-75918982D01*
X183274500Y-76031018D01*
X183303497Y-76139237D01*
X183359515Y-76236263D01*
X183438737Y-76315485D01*
X183510654Y-76357006D01*
X183529025Y-76367613D01*
X183577241Y-76418180D01*
X183590463Y-76486787D01*
X183564495Y-76551652D01*
X183529025Y-76582387D01*
X183438740Y-76634513D01*
X183438734Y-76634517D01*
X183359517Y-76713734D01*
X183359513Y-76713740D01*
X183303498Y-76810760D01*
X183303497Y-76810763D01*
X183274500Y-76918982D01*
X183274500Y-77031018D01*
X183303497Y-77139237D01*
X183359515Y-77236263D01*
X183438737Y-77315485D01*
X183510654Y-77357006D01*
X183529025Y-77367613D01*
X183577241Y-77418180D01*
X183590463Y-77486787D01*
X183564495Y-77551652D01*
X183529025Y-77582387D01*
X183438740Y-77634513D01*
X183438734Y-77634517D01*
X183359517Y-77713734D01*
X183359513Y-77713740D01*
X183303498Y-77810760D01*
X183303497Y-77810763D01*
X183274500Y-77918982D01*
X183274500Y-78031018D01*
X183303497Y-78139237D01*
X183359515Y-78236263D01*
X183438737Y-78315485D01*
X183535763Y-78371503D01*
X183643982Y-78400500D01*
X183643984Y-78400500D01*
X183756016Y-78400500D01*
X183756018Y-78400500D01*
X183864237Y-78371503D01*
X183961263Y-78315485D01*
X184040485Y-78236263D01*
X184096503Y-78139237D01*
X184125500Y-78031018D01*
X184125500Y-77918982D01*
X184096503Y-77810763D01*
X184040485Y-77713737D01*
X183961263Y-77634515D01*
X183870973Y-77582386D01*
X183822759Y-77531822D01*
X183815465Y-77493982D01*
X200749500Y-77493982D01*
X200749500Y-77606018D01*
X200778497Y-77714237D01*
X200834515Y-77811263D01*
X200913737Y-77890485D01*
X201010763Y-77946503D01*
X201118982Y-77975500D01*
X201118984Y-77975500D01*
X201231016Y-77975500D01*
X201231018Y-77975500D01*
X201339237Y-77946503D01*
X201436263Y-77890485D01*
X201515485Y-77811263D01*
X201571503Y-77714237D01*
X201600500Y-77606018D01*
X201600500Y-77493982D01*
X201571503Y-77385763D01*
X201515485Y-77288737D01*
X201436263Y-77209515D01*
X201339237Y-77153497D01*
X201231018Y-77124500D01*
X201118982Y-77124500D01*
X201010763Y-77153497D01*
X201010760Y-77153498D01*
X200913740Y-77209513D01*
X200913734Y-77209517D01*
X200834517Y-77288734D01*
X200834513Y-77288740D01*
X200778498Y-77385760D01*
X200778497Y-77385763D01*
X200749500Y-77493982D01*
X183815465Y-77493982D01*
X183809535Y-77463215D01*
X183835502Y-77398350D01*
X183870972Y-77367614D01*
X183961263Y-77315485D01*
X184040485Y-77236263D01*
X184096503Y-77139237D01*
X184125500Y-77031018D01*
X184125500Y-76918982D01*
X184096503Y-76810763D01*
X184040485Y-76713737D01*
X183961263Y-76634515D01*
X183870973Y-76582386D01*
X183822759Y-76531820D01*
X183809535Y-76463213D01*
X183835503Y-76398349D01*
X183870972Y-76367614D01*
X183961263Y-76315485D01*
X184040485Y-76236263D01*
X184096503Y-76139237D01*
X184125500Y-76031018D01*
X184125500Y-75918982D01*
X184096503Y-75810763D01*
X184040485Y-75713737D01*
X183961263Y-75634515D01*
X183870973Y-75582386D01*
X183822759Y-75531820D01*
X183809535Y-75463213D01*
X183835503Y-75398349D01*
X183870972Y-75367614D01*
X183961263Y-75315485D01*
X183982766Y-75293982D01*
X194449500Y-75293982D01*
X194449500Y-75406018D01*
X194471002Y-75486263D01*
X194478497Y-75514236D01*
X194478498Y-75514239D01*
X194497169Y-75546579D01*
X194534515Y-75611263D01*
X194613737Y-75690485D01*
X194710763Y-75746503D01*
X194818982Y-75775500D01*
X194818984Y-75775500D01*
X194931016Y-75775500D01*
X194931018Y-75775500D01*
X195039237Y-75746503D01*
X195136263Y-75690485D01*
X195215485Y-75611263D01*
X195271503Y-75514237D01*
X195300500Y-75406018D01*
X195300500Y-75293982D01*
X195271503Y-75185763D01*
X195261814Y-75168982D01*
X215199500Y-75168982D01*
X215199500Y-75281018D01*
X215208736Y-75315485D01*
X215228497Y-75389236D01*
X215228498Y-75389239D01*
X215243810Y-75415760D01*
X215284515Y-75486263D01*
X215363737Y-75565485D01*
X215460763Y-75621503D01*
X215568982Y-75650500D01*
X215568984Y-75650500D01*
X215681016Y-75650500D01*
X215681018Y-75650500D01*
X215789237Y-75621503D01*
X215886263Y-75565485D01*
X215965485Y-75486263D01*
X216021503Y-75389237D01*
X216050500Y-75281018D01*
X216050500Y-75168982D01*
X216021503Y-75060763D01*
X215965485Y-74963737D01*
X215886263Y-74884515D01*
X215821579Y-74847169D01*
X215789239Y-74828498D01*
X215789238Y-74828497D01*
X215789237Y-74828497D01*
X215681018Y-74799500D01*
X215568982Y-74799500D01*
X215460763Y-74828497D01*
X215460756Y-74828499D01*
X215372612Y-74879389D01*
X215372606Y-74879394D01*
X215363737Y-74884515D01*
X215284515Y-74963737D01*
X215284210Y-74964264D01*
X215284209Y-74964266D01*
X215228498Y-75060760D01*
X215228497Y-75060763D01*
X215199500Y-75168982D01*
X195261814Y-75168982D01*
X195215485Y-75088737D01*
X195136263Y-75009515D01*
X195071579Y-74972169D01*
X195039239Y-74953498D01*
X195039238Y-74953497D01*
X195039237Y-74953497D01*
X194931018Y-74924500D01*
X194818982Y-74924500D01*
X194710763Y-74953497D01*
X194710760Y-74953498D01*
X194613740Y-75009513D01*
X194613734Y-75009517D01*
X194534517Y-75088734D01*
X194534513Y-75088740D01*
X194478498Y-75185760D01*
X194478497Y-75185763D01*
X194449500Y-75293982D01*
X183982766Y-75293982D01*
X184040485Y-75236263D01*
X184096503Y-75139237D01*
X184125500Y-75031018D01*
X184125500Y-74918982D01*
X184096503Y-74810763D01*
X184040485Y-74713737D01*
X183961263Y-74634515D01*
X183864237Y-74578497D01*
X183756018Y-74549500D01*
X183643982Y-74549500D01*
X183535763Y-74578497D01*
X183535760Y-74578498D01*
X183438740Y-74634513D01*
X183438734Y-74634517D01*
X183359517Y-74713734D01*
X183359513Y-74713740D01*
X183303498Y-74810760D01*
X183303497Y-74810763D01*
X183274500Y-74918982D01*
X182625500Y-74918982D01*
X182596503Y-74810763D01*
X182540485Y-74713737D01*
X182461263Y-74634515D01*
X182364237Y-74578497D01*
X182256018Y-74549500D01*
X182143982Y-74549500D01*
X182035763Y-74578497D01*
X182035760Y-74578498D01*
X181938740Y-74634513D01*
X181938734Y-74634517D01*
X181859517Y-74713734D01*
X181859513Y-74713740D01*
X181803498Y-74810760D01*
X181803497Y-74810763D01*
X181774500Y-74918982D01*
X159330635Y-74918982D01*
X159352821Y-74880555D01*
X159381818Y-74772336D01*
X159381818Y-74660300D01*
X159352821Y-74552081D01*
X159296803Y-74455055D01*
X159217581Y-74375833D01*
X159120555Y-74319815D01*
X159012336Y-74290818D01*
X158900300Y-74290818D01*
X158792081Y-74319815D01*
X158792078Y-74319816D01*
X158695058Y-74375831D01*
X158695052Y-74375835D01*
X158615835Y-74455052D01*
X158615831Y-74455058D01*
X158559816Y-74552078D01*
X158559815Y-74552081D01*
X158530818Y-74660300D01*
X154563164Y-74660300D01*
X154066292Y-74163428D01*
X176872390Y-74163428D01*
X176872390Y-74275464D01*
X176901387Y-74383683D01*
X176957405Y-74480709D01*
X177036627Y-74559931D01*
X177133653Y-74615949D01*
X177241872Y-74644946D01*
X177241874Y-74644946D01*
X177353906Y-74644946D01*
X177353908Y-74644946D01*
X177462127Y-74615949D01*
X177559153Y-74559931D01*
X177638375Y-74480709D01*
X177694393Y-74383683D01*
X177695485Y-74379606D01*
X214438876Y-74379606D01*
X214438876Y-74491642D01*
X214467873Y-74599861D01*
X214523891Y-74696887D01*
X214603113Y-74776109D01*
X214700139Y-74832127D01*
X214808358Y-74861124D01*
X214808360Y-74861124D01*
X214920392Y-74861124D01*
X214920394Y-74861124D01*
X215028613Y-74832127D01*
X215125639Y-74776109D01*
X215204861Y-74696887D01*
X215260879Y-74599861D01*
X215289876Y-74491642D01*
X215289876Y-74379606D01*
X215260879Y-74271387D01*
X215204861Y-74174361D01*
X215125639Y-74095139D01*
X215028613Y-74039121D01*
X214920394Y-74010124D01*
X214808358Y-74010124D01*
X214700139Y-74039121D01*
X214700136Y-74039122D01*
X214603116Y-74095137D01*
X214603110Y-74095141D01*
X214523893Y-74174358D01*
X214523889Y-74174364D01*
X214467874Y-74271384D01*
X214467873Y-74271387D01*
X214438876Y-74379606D01*
X177695485Y-74379606D01*
X177723390Y-74275464D01*
X177723390Y-74163428D01*
X177694393Y-74055209D01*
X177638375Y-73958183D01*
X177559153Y-73878961D01*
X177462127Y-73822943D01*
X177353908Y-73793946D01*
X177241872Y-73793946D01*
X177133653Y-73822943D01*
X177133650Y-73822944D01*
X177036630Y-73878959D01*
X177036624Y-73878963D01*
X176957407Y-73958180D01*
X176957403Y-73958186D01*
X176901388Y-74055206D01*
X176901387Y-74055209D01*
X176872390Y-74163428D01*
X154066292Y-74163428D01*
X154056819Y-74153955D01*
X154023334Y-74092632D01*
X154020500Y-74066274D01*
X154020500Y-73653982D01*
X189519500Y-73653982D01*
X189519500Y-73766018D01*
X189543616Y-73856018D01*
X189548497Y-73874236D01*
X189548498Y-73874239D01*
X189567169Y-73906579D01*
X189604515Y-73971263D01*
X189683737Y-74050485D01*
X189780763Y-74106503D01*
X189888982Y-74135500D01*
X189888984Y-74135500D01*
X190001016Y-74135500D01*
X190001018Y-74135500D01*
X190109237Y-74106503D01*
X190206263Y-74050485D01*
X190285485Y-73971263D01*
X190341503Y-73874237D01*
X190370500Y-73766018D01*
X190370500Y-73743982D01*
X195974500Y-73743982D01*
X195974500Y-73856018D01*
X195979383Y-73874239D01*
X196003497Y-73964236D01*
X196003498Y-73964239D01*
X196022169Y-73996579D01*
X196059515Y-74061263D01*
X196138737Y-74140485D01*
X196235763Y-74196503D01*
X196343982Y-74225500D01*
X196343984Y-74225500D01*
X196456016Y-74225500D01*
X196456018Y-74225500D01*
X196564237Y-74196503D01*
X196661263Y-74140485D01*
X196740485Y-74061263D01*
X196796503Y-73964237D01*
X196825500Y-73856018D01*
X196825500Y-73743982D01*
X196796503Y-73635763D01*
X196740485Y-73538737D01*
X196661263Y-73459515D01*
X196564237Y-73403497D01*
X196456018Y-73374500D01*
X196343982Y-73374500D01*
X196235763Y-73403497D01*
X196235760Y-73403498D01*
X196138740Y-73459513D01*
X196138734Y-73459517D01*
X196059517Y-73538734D01*
X196059513Y-73538740D01*
X196003498Y-73635760D01*
X196003497Y-73635763D01*
X195974500Y-73743982D01*
X190370500Y-73743982D01*
X190370500Y-73653982D01*
X190341503Y-73545763D01*
X190285485Y-73448737D01*
X190206263Y-73369515D01*
X190109237Y-73313497D01*
X190001018Y-73284500D01*
X189888982Y-73284500D01*
X189780763Y-73313497D01*
X189780760Y-73313498D01*
X189683740Y-73369513D01*
X189683734Y-73369517D01*
X189604517Y-73448734D01*
X189604513Y-73448740D01*
X189548498Y-73545760D01*
X189548497Y-73545763D01*
X189519500Y-73653982D01*
X154020500Y-73653982D01*
X154020500Y-72863982D01*
X177294500Y-72863982D01*
X177294500Y-72976018D01*
X177323497Y-73084237D01*
X177379515Y-73181263D01*
X177458737Y-73260485D01*
X177555763Y-73316503D01*
X177663982Y-73345500D01*
X177663984Y-73345500D01*
X177776016Y-73345500D01*
X177776018Y-73345500D01*
X177884237Y-73316503D01*
X177981263Y-73260485D01*
X178060485Y-73181263D01*
X178116503Y-73084237D01*
X178145500Y-72976018D01*
X178145500Y-72863982D01*
X178116503Y-72755763D01*
X178060485Y-72658737D01*
X177981263Y-72579515D01*
X177906348Y-72536263D01*
X177884239Y-72523498D01*
X177884238Y-72523497D01*
X177884237Y-72523497D01*
X177776018Y-72494500D01*
X177663982Y-72494500D01*
X177555763Y-72523497D01*
X177555760Y-72523498D01*
X177458740Y-72579513D01*
X177458734Y-72579517D01*
X177379517Y-72658734D01*
X177379513Y-72658740D01*
X177323498Y-72755760D01*
X177323497Y-72755763D01*
X177294500Y-72863982D01*
X154020500Y-72863982D01*
X154020500Y-71613982D01*
X168124500Y-71613982D01*
X168124500Y-71726018D01*
X168153497Y-71834237D01*
X168209515Y-71931263D01*
X168288737Y-72010485D01*
X168385763Y-72066503D01*
X168493982Y-72095500D01*
X168493984Y-72095500D01*
X168606016Y-72095500D01*
X168606018Y-72095500D01*
X168611683Y-72093982D01*
X198374500Y-72093982D01*
X198374500Y-72206017D01*
X198403497Y-72314236D01*
X198403498Y-72314239D01*
X198422169Y-72346579D01*
X198459515Y-72411263D01*
X198538737Y-72490485D01*
X198635763Y-72546503D01*
X198743982Y-72575500D01*
X198743984Y-72575500D01*
X198856016Y-72575500D01*
X198856018Y-72575500D01*
X198964237Y-72546503D01*
X199061263Y-72490485D01*
X199140485Y-72411263D01*
X199196503Y-72314237D01*
X199222026Y-72218982D01*
X199524500Y-72218982D01*
X199524500Y-72331018D01*
X199553497Y-72439237D01*
X199609515Y-72536263D01*
X199688737Y-72615485D01*
X199785763Y-72671503D01*
X199893982Y-72700500D01*
X199893984Y-72700500D01*
X200006016Y-72700500D01*
X200006018Y-72700500D01*
X200114237Y-72671503D01*
X200211263Y-72615485D01*
X200290485Y-72536263D01*
X200346503Y-72439237D01*
X200375500Y-72331018D01*
X200375500Y-72218982D01*
X200346503Y-72110763D01*
X200290485Y-72013737D01*
X200211263Y-71934515D01*
X200146579Y-71897169D01*
X200114239Y-71878498D01*
X200114238Y-71878497D01*
X200114237Y-71878497D01*
X200006018Y-71849500D01*
X199893982Y-71849500D01*
X199785763Y-71878497D01*
X199785760Y-71878498D01*
X199688740Y-71934513D01*
X199688734Y-71934517D01*
X199609517Y-72013734D01*
X199609513Y-72013740D01*
X199553498Y-72110760D01*
X199553497Y-72110763D01*
X199524500Y-72218982D01*
X199222026Y-72218982D01*
X199225500Y-72206018D01*
X199225500Y-72093982D01*
X199196503Y-71985763D01*
X199140485Y-71888737D01*
X199061263Y-71809515D01*
X198964237Y-71753497D01*
X198856018Y-71724500D01*
X198743982Y-71724500D01*
X198635763Y-71753497D01*
X198635760Y-71753498D01*
X198538740Y-71809513D01*
X198538734Y-71809517D01*
X198459517Y-71888734D01*
X198459513Y-71888740D01*
X198403498Y-71985760D01*
X198403497Y-71985763D01*
X198374500Y-72093982D01*
X168611683Y-72093982D01*
X168714237Y-72066503D01*
X168811263Y-72010485D01*
X168890485Y-71931263D01*
X168946503Y-71834237D01*
X168975500Y-71726018D01*
X168975500Y-71613982D01*
X168946503Y-71505763D01*
X168890485Y-71408737D01*
X168811263Y-71329515D01*
X168714237Y-71273497D01*
X168606018Y-71244500D01*
X168493982Y-71244500D01*
X168385763Y-71273497D01*
X168385760Y-71273498D01*
X168288740Y-71329513D01*
X168288734Y-71329517D01*
X168209517Y-71408734D01*
X168209513Y-71408740D01*
X168153498Y-71505760D01*
X168153497Y-71505763D01*
X168124500Y-71613982D01*
X154020500Y-71613982D01*
X154020500Y-70293982D01*
X155374500Y-70293982D01*
X155374500Y-70406018D01*
X155403497Y-70514237D01*
X155459515Y-70611263D01*
X155538737Y-70690485D01*
X155635763Y-70746503D01*
X155743982Y-70775500D01*
X155743984Y-70775500D01*
X155856016Y-70775500D01*
X155856018Y-70775500D01*
X155964237Y-70746503D01*
X156055206Y-70693982D01*
X160684500Y-70693982D01*
X160684500Y-70806018D01*
X160713497Y-70914237D01*
X160769515Y-71011263D01*
X160848737Y-71090485D01*
X160945763Y-71146503D01*
X161053982Y-71175500D01*
X161053984Y-71175500D01*
X161166016Y-71175500D01*
X161166018Y-71175500D01*
X161274237Y-71146503D01*
X161371263Y-71090485D01*
X161450485Y-71011263D01*
X161497650Y-70929571D01*
X177160089Y-70929571D01*
X177160089Y-71041607D01*
X177189086Y-71149826D01*
X177245104Y-71246852D01*
X177324326Y-71326074D01*
X177421352Y-71382092D01*
X177529571Y-71411089D01*
X177529573Y-71411089D01*
X177641605Y-71411089D01*
X177641607Y-71411089D01*
X177749826Y-71382092D01*
X177846852Y-71326074D01*
X177926074Y-71246852D01*
X177982092Y-71149826D01*
X178011089Y-71041607D01*
X178011089Y-70929571D01*
X177982092Y-70821352D01*
X177926074Y-70724326D01*
X177846852Y-70645104D01*
X177749826Y-70589086D01*
X177641607Y-70560089D01*
X177529571Y-70560089D01*
X177421352Y-70589086D01*
X177421349Y-70589087D01*
X177324329Y-70645102D01*
X177324323Y-70645106D01*
X177245106Y-70724323D01*
X177245102Y-70724329D01*
X177189087Y-70821349D01*
X177189086Y-70821352D01*
X177160089Y-70929571D01*
X161497650Y-70929571D01*
X161506503Y-70914237D01*
X161535500Y-70806018D01*
X161535500Y-70693982D01*
X161506503Y-70585763D01*
X161450485Y-70488737D01*
X161371263Y-70409515D01*
X161344359Y-70393982D01*
X201399500Y-70393982D01*
X201399500Y-70506018D01*
X201428497Y-70614237D01*
X201484515Y-70711263D01*
X201563737Y-70790485D01*
X201660763Y-70846503D01*
X201768982Y-70875500D01*
X201768984Y-70875500D01*
X201881016Y-70875500D01*
X201881018Y-70875500D01*
X201989237Y-70846503D01*
X202086263Y-70790485D01*
X202165485Y-70711263D01*
X202221503Y-70614237D01*
X202250500Y-70506018D01*
X202250500Y-70393982D01*
X202221503Y-70285763D01*
X202165485Y-70188737D01*
X202086263Y-70109515D01*
X202021579Y-70072169D01*
X201989239Y-70053498D01*
X201989238Y-70053497D01*
X201989237Y-70053497D01*
X201881018Y-70024500D01*
X201768982Y-70024500D01*
X201660763Y-70053497D01*
X201660760Y-70053498D01*
X201563740Y-70109513D01*
X201563734Y-70109517D01*
X201484517Y-70188734D01*
X201484513Y-70188740D01*
X201428498Y-70285760D01*
X201428497Y-70285763D01*
X201399500Y-70393982D01*
X161344359Y-70393982D01*
X161274237Y-70353497D01*
X161166018Y-70324500D01*
X161053982Y-70324500D01*
X160945763Y-70353497D01*
X160945760Y-70353498D01*
X160848740Y-70409513D01*
X160848734Y-70409517D01*
X160769517Y-70488734D01*
X160769513Y-70488740D01*
X160713498Y-70585760D01*
X160713497Y-70585763D01*
X160684500Y-70693982D01*
X156055206Y-70693982D01*
X156061263Y-70690485D01*
X156140485Y-70611263D01*
X156196503Y-70514237D01*
X156225500Y-70406018D01*
X156225500Y-70293982D01*
X156196503Y-70185763D01*
X156140485Y-70088737D01*
X156061263Y-70009515D01*
X155964237Y-69953497D01*
X155856018Y-69924500D01*
X155743982Y-69924500D01*
X155635763Y-69953497D01*
X155635760Y-69953498D01*
X155538740Y-70009513D01*
X155538734Y-70009517D01*
X155459517Y-70088734D01*
X155459513Y-70088740D01*
X155403498Y-70185760D01*
X155403497Y-70185763D01*
X155374500Y-70293982D01*
X154020500Y-70293982D01*
X154020500Y-68943982D01*
X175013860Y-68943982D01*
X175013860Y-69056018D01*
X175021830Y-69085760D01*
X175042857Y-69164236D01*
X175042858Y-69164239D01*
X175060030Y-69193982D01*
X175098875Y-69261263D01*
X175178097Y-69340485D01*
X175275123Y-69396503D01*
X175383342Y-69425500D01*
X175383344Y-69425500D01*
X175495376Y-69425500D01*
X175495378Y-69425500D01*
X175603597Y-69396503D01*
X175700623Y-69340485D01*
X175700623Y-69340484D01*
X175707662Y-69336421D01*
X175708952Y-69338655D01*
X175762121Y-69318086D01*
X175830569Y-69332107D01*
X175880571Y-69380908D01*
X175892243Y-69409558D01*
X175893495Y-69414232D01*
X175893496Y-69414236D01*
X175893497Y-69414237D01*
X175949515Y-69511263D01*
X176028737Y-69590485D01*
X176125763Y-69646503D01*
X176233982Y-69675500D01*
X176233984Y-69675500D01*
X176346016Y-69675500D01*
X176346018Y-69675500D01*
X176454237Y-69646503D01*
X176551263Y-69590485D01*
X176630485Y-69511263D01*
X176686503Y-69414237D01*
X176715500Y-69306018D01*
X176715500Y-69193982D01*
X176686503Y-69085763D01*
X176630485Y-68988737D01*
X176551263Y-68909515D01*
X176541680Y-68903982D01*
X189864500Y-68903982D01*
X189864500Y-69016018D01*
X189893497Y-69124237D01*
X189949515Y-69221263D01*
X190028737Y-69300485D01*
X190125763Y-69356503D01*
X190233982Y-69385500D01*
X190233984Y-69385500D01*
X190346016Y-69385500D01*
X190346018Y-69385500D01*
X190454237Y-69356503D01*
X190551263Y-69300485D01*
X190630485Y-69221263D01*
X190686503Y-69124237D01*
X190715500Y-69016018D01*
X190715500Y-68943982D01*
X190944500Y-68943982D01*
X190944500Y-69056018D01*
X190949454Y-69074506D01*
X190949454Y-69074507D01*
X190973497Y-69164236D01*
X190973498Y-69164239D01*
X190990670Y-69193982D01*
X191029515Y-69261263D01*
X191108737Y-69340485D01*
X191205763Y-69396503D01*
X191313982Y-69425500D01*
X191313984Y-69425500D01*
X191426016Y-69425500D01*
X191426018Y-69425500D01*
X191534237Y-69396503D01*
X191631263Y-69340485D01*
X191710485Y-69261263D01*
X191766503Y-69164237D01*
X191792026Y-69068982D01*
X201799500Y-69068982D01*
X201799500Y-69181018D01*
X201821002Y-69261263D01*
X201828497Y-69289236D01*
X201828498Y-69289239D01*
X201844887Y-69317625D01*
X201884515Y-69386263D01*
X201963737Y-69465485D01*
X202060763Y-69521503D01*
X202168982Y-69550500D01*
X202168984Y-69550500D01*
X202281016Y-69550500D01*
X202281018Y-69550500D01*
X202389237Y-69521503D01*
X202486263Y-69465485D01*
X202565485Y-69386263D01*
X202605113Y-69317624D01*
X202655680Y-69269409D01*
X202724287Y-69256186D01*
X202789152Y-69282154D01*
X202819886Y-69317624D01*
X202859515Y-69386263D01*
X202859517Y-69386265D01*
X202938328Y-69465076D01*
X202971813Y-69526399D01*
X202966829Y-69596091D01*
X202924957Y-69652024D01*
X202914576Y-69658871D01*
X202913734Y-69659517D01*
X202834517Y-69738734D01*
X202834513Y-69738740D01*
X202778498Y-69835760D01*
X202778497Y-69835763D01*
X202749500Y-69943982D01*
X202749500Y-70056018D01*
X202778497Y-70164237D01*
X202834515Y-70261263D01*
X202913737Y-70340485D01*
X203010763Y-70396503D01*
X203118982Y-70425500D01*
X203118984Y-70425500D01*
X203231016Y-70425500D01*
X203231018Y-70425500D01*
X203339237Y-70396503D01*
X203436263Y-70340485D01*
X203515485Y-70261263D01*
X203571503Y-70164237D01*
X203600500Y-70056018D01*
X203600500Y-69943982D01*
X203571503Y-69835763D01*
X203515485Y-69738737D01*
X203436671Y-69659923D01*
X203403186Y-69598600D01*
X203408170Y-69528908D01*
X203450042Y-69472975D01*
X203460427Y-69466125D01*
X203461255Y-69465489D01*
X203461263Y-69465485D01*
X203540485Y-69386263D01*
X203596503Y-69289237D01*
X203625500Y-69181018D01*
X203625500Y-69068982D01*
X203596503Y-68960763D01*
X203540485Y-68863737D01*
X203461263Y-68784515D01*
X203396579Y-68747169D01*
X203364239Y-68728498D01*
X203364238Y-68728497D01*
X203364237Y-68728497D01*
X203256018Y-68699500D01*
X203143982Y-68699500D01*
X203035763Y-68728497D01*
X203035760Y-68728498D01*
X202938740Y-68784513D01*
X202938734Y-68784517D01*
X202859517Y-68863734D01*
X202859512Y-68863740D01*
X202819887Y-68932374D01*
X202769320Y-68980590D01*
X202700713Y-68993812D01*
X202635848Y-68967844D01*
X202605113Y-68932374D01*
X202565487Y-68863740D01*
X202565482Y-68863734D01*
X202486265Y-68784517D01*
X202486263Y-68784515D01*
X202421579Y-68747169D01*
X202389239Y-68728498D01*
X202389238Y-68728497D01*
X202389237Y-68728497D01*
X202281018Y-68699500D01*
X202168982Y-68699500D01*
X202060763Y-68728497D01*
X202060760Y-68728498D01*
X201963740Y-68784513D01*
X201963734Y-68784517D01*
X201884517Y-68863734D01*
X201884513Y-68863740D01*
X201828498Y-68960760D01*
X201828497Y-68960763D01*
X201799500Y-69068982D01*
X191792026Y-69068982D01*
X191795500Y-69056018D01*
X191795500Y-68943982D01*
X191766503Y-68835763D01*
X191710485Y-68738737D01*
X191631263Y-68659515D01*
X191534237Y-68603497D01*
X191426018Y-68574500D01*
X191313982Y-68574500D01*
X191205763Y-68603497D01*
X191205760Y-68603498D01*
X191108740Y-68659513D01*
X191108734Y-68659517D01*
X191029517Y-68738734D01*
X191029513Y-68738740D01*
X190973498Y-68835760D01*
X190973495Y-68835767D01*
X190958549Y-68891544D01*
X190958548Y-68891551D01*
X190944500Y-68943982D01*
X190715500Y-68943982D01*
X190715500Y-68903982D01*
X190686503Y-68795763D01*
X190630485Y-68698737D01*
X190551263Y-68619515D01*
X190454237Y-68563497D01*
X190346018Y-68534500D01*
X190233982Y-68534500D01*
X190125763Y-68563497D01*
X190125760Y-68563498D01*
X190028740Y-68619513D01*
X190028734Y-68619517D01*
X189949517Y-68698734D01*
X189949513Y-68698740D01*
X189893498Y-68795760D01*
X189893497Y-68795763D01*
X189864500Y-68903982D01*
X176541680Y-68903982D01*
X176481172Y-68869048D01*
X176454239Y-68853498D01*
X176454238Y-68853497D01*
X176454237Y-68853497D01*
X176346018Y-68824500D01*
X176233982Y-68824500D01*
X176125763Y-68853497D01*
X176125760Y-68853498D01*
X176021698Y-68913579D01*
X176020411Y-68911351D01*
X175967189Y-68931918D01*
X175898746Y-68917869D01*
X175848764Y-68869048D01*
X175837115Y-68840438D01*
X175835863Y-68835763D01*
X175779845Y-68738737D01*
X175700623Y-68659515D01*
X175603597Y-68603497D01*
X175495378Y-68574500D01*
X175383342Y-68574500D01*
X175275123Y-68603497D01*
X175275120Y-68603498D01*
X175178100Y-68659513D01*
X175178094Y-68659517D01*
X175098877Y-68738734D01*
X175098873Y-68738740D01*
X175042858Y-68835760D01*
X175042857Y-68835763D01*
X175013860Y-68943982D01*
X154020500Y-68943982D01*
X154020500Y-68088982D01*
X184049500Y-68088982D01*
X184049500Y-68201018D01*
X184078497Y-68309237D01*
X184134515Y-68406263D01*
X184213737Y-68485485D01*
X184310763Y-68541503D01*
X184418982Y-68570500D01*
X184418984Y-68570500D01*
X184531016Y-68570500D01*
X184531018Y-68570500D01*
X184639237Y-68541503D01*
X184736263Y-68485485D01*
X184815485Y-68406263D01*
X184871503Y-68309237D01*
X184900500Y-68201018D01*
X184900500Y-68088982D01*
X184871503Y-67980763D01*
X184815485Y-67883737D01*
X184736263Y-67804515D01*
X184639237Y-67748497D01*
X184531018Y-67719500D01*
X184418982Y-67719500D01*
X184310763Y-67748497D01*
X184310760Y-67748498D01*
X184213740Y-67804513D01*
X184213734Y-67804517D01*
X184134517Y-67883734D01*
X184134513Y-67883740D01*
X184078498Y-67980760D01*
X184078497Y-67980763D01*
X184049500Y-68088982D01*
X154020500Y-68088982D01*
X154020500Y-67243982D01*
X176724500Y-67243982D01*
X176724500Y-67356018D01*
X176753497Y-67464237D01*
X176809515Y-67561263D01*
X176888737Y-67640485D01*
X176985763Y-67696503D01*
X177093982Y-67725500D01*
X177093984Y-67725500D01*
X177206016Y-67725500D01*
X177206018Y-67725500D01*
X177314237Y-67696503D01*
X177411263Y-67640485D01*
X177490485Y-67561263D01*
X177546503Y-67464237D01*
X177562648Y-67403982D01*
X178034500Y-67403982D01*
X178034500Y-67516018D01*
X178063497Y-67624237D01*
X178119515Y-67721263D01*
X178198737Y-67800485D01*
X178295763Y-67856503D01*
X178403982Y-67885500D01*
X178403984Y-67885500D01*
X178516016Y-67885500D01*
X178516018Y-67885500D01*
X178624237Y-67856503D01*
X178721263Y-67800485D01*
X178800485Y-67721263D01*
X178856503Y-67624237D01*
X178885500Y-67516018D01*
X178885500Y-67403982D01*
X178856503Y-67295763D01*
X178800485Y-67198737D01*
X178721263Y-67119515D01*
X178624237Y-67063497D01*
X178516018Y-67034500D01*
X178403982Y-67034500D01*
X178295763Y-67063497D01*
X178295760Y-67063498D01*
X178198740Y-67119513D01*
X178198734Y-67119517D01*
X178119517Y-67198734D01*
X178119513Y-67198740D01*
X178063498Y-67295760D01*
X178063497Y-67295763D01*
X178034500Y-67403982D01*
X177562648Y-67403982D01*
X177575500Y-67356018D01*
X177575500Y-67243982D01*
X177546503Y-67135763D01*
X177490485Y-67038737D01*
X177470730Y-67018982D01*
X184849500Y-67018982D01*
X184849500Y-67131018D01*
X184867645Y-67198734D01*
X184878497Y-67239236D01*
X184878498Y-67239239D01*
X184881238Y-67243984D01*
X184934515Y-67336263D01*
X185013737Y-67415485D01*
X185110763Y-67471503D01*
X185218982Y-67500500D01*
X185218984Y-67500500D01*
X185331016Y-67500500D01*
X185331018Y-67500500D01*
X185439237Y-67471503D01*
X185536263Y-67415485D01*
X185615485Y-67336263D01*
X185671503Y-67239237D01*
X185700500Y-67131018D01*
X185700500Y-67018982D01*
X185671503Y-66910763D01*
X185615485Y-66813737D01*
X185536263Y-66734515D01*
X185471579Y-66697169D01*
X185439239Y-66678498D01*
X185439238Y-66678497D01*
X185439237Y-66678497D01*
X185331018Y-66649500D01*
X185218982Y-66649500D01*
X185110763Y-66678497D01*
X185110760Y-66678498D01*
X185013740Y-66734513D01*
X185013734Y-66734517D01*
X184934517Y-66813734D01*
X184934513Y-66813740D01*
X184878498Y-66910760D01*
X184878497Y-66910763D01*
X184849500Y-67018982D01*
X177470730Y-67018982D01*
X177411263Y-66959515D01*
X177314237Y-66903497D01*
X177206018Y-66874500D01*
X177093982Y-66874500D01*
X176985763Y-66903497D01*
X176985760Y-66903498D01*
X176888740Y-66959513D01*
X176888734Y-66959517D01*
X176809517Y-67038734D01*
X176809513Y-67038740D01*
X176753498Y-67135760D01*
X176753497Y-67135763D01*
X176724500Y-67243982D01*
X154020500Y-67243982D01*
X154020500Y-66093982D01*
X165274500Y-66093982D01*
X165274500Y-66206018D01*
X165300015Y-66301240D01*
X165303497Y-66314236D01*
X165303498Y-66314239D01*
X165311870Y-66328740D01*
X165359515Y-66411263D01*
X165438737Y-66490485D01*
X165535763Y-66546503D01*
X165643982Y-66575500D01*
X165643984Y-66575500D01*
X165756016Y-66575500D01*
X165756018Y-66575500D01*
X165780344Y-66568982D01*
X189844500Y-66568982D01*
X189844500Y-66681018D01*
X189873497Y-66789237D01*
X189929515Y-66886263D01*
X190008737Y-66965485D01*
X190105763Y-67021503D01*
X190213982Y-67050500D01*
X190213984Y-67050500D01*
X190326016Y-67050500D01*
X190326018Y-67050500D01*
X190434237Y-67021503D01*
X190531263Y-66965485D01*
X190556672Y-66940075D01*
X190617991Y-66906592D01*
X190687683Y-66911576D01*
X190706347Y-66920369D01*
X190773263Y-66959003D01*
X190881482Y-66988000D01*
X190881484Y-66988000D01*
X190993516Y-66988000D01*
X190993518Y-66988000D01*
X191101737Y-66959003D01*
X191198763Y-66902985D01*
X191277985Y-66823763D01*
X191334003Y-66726737D01*
X191363000Y-66618518D01*
X191363000Y-66506482D01*
X191342904Y-66431482D01*
X205999500Y-66431482D01*
X205999500Y-66543518D01*
X206028497Y-66651737D01*
X206084515Y-66748763D01*
X206163737Y-66827985D01*
X206260763Y-66884003D01*
X206368982Y-66913000D01*
X206368984Y-66913000D01*
X206481016Y-66913000D01*
X206481018Y-66913000D01*
X206589237Y-66884003D01*
X206686263Y-66827985D01*
X206765485Y-66748763D01*
X206821503Y-66651737D01*
X206850500Y-66543518D01*
X206850500Y-66533982D01*
X212414500Y-66533982D01*
X212414500Y-66646018D01*
X212443497Y-66754237D01*
X212499515Y-66851263D01*
X212578737Y-66930485D01*
X212675763Y-66986503D01*
X212783982Y-67015500D01*
X212783984Y-67015500D01*
X212896016Y-67015500D01*
X212896018Y-67015500D01*
X213004237Y-66986503D01*
X213101263Y-66930485D01*
X213180485Y-66851263D01*
X213236503Y-66754237D01*
X213265500Y-66646018D01*
X213265500Y-66533982D01*
X213236503Y-66425763D01*
X213180485Y-66328737D01*
X213101263Y-66249515D01*
X213025921Y-66206016D01*
X213004239Y-66193498D01*
X213004238Y-66193497D01*
X213004237Y-66193497D01*
X212896018Y-66164500D01*
X212783982Y-66164500D01*
X212675763Y-66193497D01*
X212675760Y-66193498D01*
X212578740Y-66249513D01*
X212578734Y-66249517D01*
X212499517Y-66328734D01*
X212499513Y-66328740D01*
X212443498Y-66425760D01*
X212443497Y-66425763D01*
X212414500Y-66533982D01*
X206850500Y-66533982D01*
X206850500Y-66431482D01*
X206821503Y-66323263D01*
X206765485Y-66226237D01*
X206686263Y-66147015D01*
X206589237Y-66090997D01*
X206481018Y-66062000D01*
X206368982Y-66062000D01*
X206260763Y-66090997D01*
X206260760Y-66090998D01*
X206163740Y-66147013D01*
X206163734Y-66147017D01*
X206084517Y-66226234D01*
X206084513Y-66226240D01*
X206028498Y-66323260D01*
X206028497Y-66323263D01*
X205999500Y-66431482D01*
X191342904Y-66431482D01*
X191334003Y-66398263D01*
X191277985Y-66301237D01*
X191198763Y-66222015D01*
X191101737Y-66165997D01*
X190993518Y-66137000D01*
X190881482Y-66137000D01*
X190773263Y-66165997D01*
X190773260Y-66165998D01*
X190676240Y-66222013D01*
X190676237Y-66222015D01*
X190650828Y-66247424D01*
X190589504Y-66280908D01*
X190519813Y-66275922D01*
X190501148Y-66267128D01*
X190434239Y-66228498D01*
X190434238Y-66228497D01*
X190434237Y-66228497D01*
X190326018Y-66199500D01*
X190213982Y-66199500D01*
X190105763Y-66228497D01*
X190105760Y-66228498D01*
X190008740Y-66284513D01*
X190008734Y-66284517D01*
X189929517Y-66363734D01*
X189929513Y-66363740D01*
X189873498Y-66460760D01*
X189873497Y-66460763D01*
X189844500Y-66568982D01*
X165780344Y-66568982D01*
X165864237Y-66546503D01*
X165961263Y-66490485D01*
X166040485Y-66411263D01*
X166096503Y-66314237D01*
X166125500Y-66206018D01*
X166125500Y-66093982D01*
X166096503Y-65985763D01*
X166040485Y-65888737D01*
X165961263Y-65809515D01*
X165864237Y-65753497D01*
X165828726Y-65743982D01*
X192374500Y-65743982D01*
X192374500Y-65856018D01*
X192403497Y-65964237D01*
X192459515Y-66061263D01*
X192538737Y-66140485D01*
X192635763Y-66196503D01*
X192743982Y-66225500D01*
X192743984Y-66225500D01*
X192856016Y-66225500D01*
X192856018Y-66225500D01*
X192964237Y-66196503D01*
X193061263Y-66140485D01*
X193140485Y-66061263D01*
X193196503Y-65964237D01*
X193225500Y-65856018D01*
X193225500Y-65743982D01*
X193196503Y-65635763D01*
X193140485Y-65538737D01*
X193061263Y-65459515D01*
X192964237Y-65403497D01*
X192856018Y-65374500D01*
X192743982Y-65374500D01*
X192635763Y-65403497D01*
X192635760Y-65403498D01*
X192538740Y-65459513D01*
X192538734Y-65459517D01*
X192459517Y-65538734D01*
X192459513Y-65538740D01*
X192403498Y-65635760D01*
X192403497Y-65635763D01*
X192374500Y-65743982D01*
X165828726Y-65743982D01*
X165756018Y-65724500D01*
X165643982Y-65724500D01*
X165535763Y-65753497D01*
X165535760Y-65753498D01*
X165438740Y-65809513D01*
X165438734Y-65809517D01*
X165359517Y-65888734D01*
X165359513Y-65888740D01*
X165303498Y-65985760D01*
X165303497Y-65985763D01*
X165274500Y-66093982D01*
X154020500Y-66093982D01*
X154020500Y-64503982D01*
X181924500Y-64503982D01*
X181924500Y-64616018D01*
X181953497Y-64724237D01*
X182009515Y-64821263D01*
X182088737Y-64900485D01*
X182185763Y-64956503D01*
X182293982Y-64985500D01*
X182293984Y-64985500D01*
X182406016Y-64985500D01*
X182406018Y-64985500D01*
X182514237Y-64956503D01*
X182611263Y-64900485D01*
X182690485Y-64821263D01*
X182746503Y-64724237D01*
X182749251Y-64713982D01*
X195574500Y-64713982D01*
X195574500Y-64826018D01*
X195603497Y-64934237D01*
X195659515Y-65031263D01*
X195738737Y-65110485D01*
X195835763Y-65166503D01*
X195943982Y-65195500D01*
X195943984Y-65195500D01*
X196056016Y-65195500D01*
X196056018Y-65195500D01*
X196164237Y-65166503D01*
X196261263Y-65110485D01*
X196340485Y-65031263D01*
X196396503Y-64934237D01*
X196425500Y-64826018D01*
X196425500Y-64743982D01*
X206234500Y-64743982D01*
X206234500Y-64856018D01*
X206263497Y-64964237D01*
X206319515Y-65061263D01*
X206398737Y-65140485D01*
X206495763Y-65196503D01*
X206603982Y-65225500D01*
X206603984Y-65225500D01*
X206716016Y-65225500D01*
X206716018Y-65225500D01*
X206824237Y-65196503D01*
X206921263Y-65140485D01*
X207000485Y-65061263D01*
X207056503Y-64964237D01*
X207085500Y-64856018D01*
X207085500Y-64743982D01*
X207056503Y-64635763D01*
X207000485Y-64538737D01*
X206921263Y-64459515D01*
X206824237Y-64403497D01*
X206716018Y-64374500D01*
X206603982Y-64374500D01*
X206495763Y-64403497D01*
X206495760Y-64403498D01*
X206398740Y-64459513D01*
X206398734Y-64459517D01*
X206319517Y-64538734D01*
X206319513Y-64538740D01*
X206263498Y-64635760D01*
X206263497Y-64635763D01*
X206234500Y-64743982D01*
X196425500Y-64743982D01*
X196425500Y-64713982D01*
X196396503Y-64605763D01*
X196340485Y-64508737D01*
X196261263Y-64429515D01*
X196168219Y-64375796D01*
X196164239Y-64373498D01*
X196164238Y-64373497D01*
X196164237Y-64373497D01*
X196056018Y-64344500D01*
X195943982Y-64344500D01*
X195835763Y-64373497D01*
X195835760Y-64373498D01*
X195738740Y-64429513D01*
X195738734Y-64429517D01*
X195659517Y-64508734D01*
X195659513Y-64508740D01*
X195603498Y-64605760D01*
X195603497Y-64605763D01*
X195574500Y-64713982D01*
X182749251Y-64713982D01*
X182775500Y-64616018D01*
X182775500Y-64503982D01*
X182746503Y-64395763D01*
X182690485Y-64298737D01*
X182611263Y-64219515D01*
X182514237Y-64163497D01*
X182406018Y-64134500D01*
X182293982Y-64134500D01*
X182185763Y-64163497D01*
X182185760Y-64163498D01*
X182088740Y-64219513D01*
X182088734Y-64219517D01*
X182009517Y-64298734D01*
X182009513Y-64298740D01*
X181953498Y-64395760D01*
X181953497Y-64395763D01*
X181924500Y-64503982D01*
X154020500Y-64503982D01*
X154020500Y-63653982D01*
X159444500Y-63653982D01*
X159444500Y-63766018D01*
X159473497Y-63874237D01*
X159529515Y-63971263D01*
X159608737Y-64050485D01*
X159705763Y-64106503D01*
X159813982Y-64135500D01*
X159813984Y-64135500D01*
X159926016Y-64135500D01*
X159926018Y-64135500D01*
X160034237Y-64106503D01*
X160131263Y-64050485D01*
X160210485Y-63971263D01*
X160266503Y-63874237D01*
X160295500Y-63766018D01*
X160295500Y-63653982D01*
X160266503Y-63545763D01*
X160210485Y-63448737D01*
X160131263Y-63369515D01*
X160066579Y-63332169D01*
X160034239Y-63313498D01*
X160034238Y-63313497D01*
X160034237Y-63313497D01*
X159926018Y-63284500D01*
X159813982Y-63284500D01*
X159705763Y-63313497D01*
X159705760Y-63313498D01*
X159608740Y-63369513D01*
X159608734Y-63369517D01*
X159529517Y-63448734D01*
X159529513Y-63448740D01*
X159473498Y-63545760D01*
X159473497Y-63545763D01*
X159444500Y-63653982D01*
X154020500Y-63653982D01*
X154020500Y-63083982D01*
X203814500Y-63083982D01*
X203814500Y-63196018D01*
X203843497Y-63304237D01*
X203899515Y-63401263D01*
X203978737Y-63480485D01*
X204075763Y-63536503D01*
X204183982Y-63565500D01*
X204183984Y-63565500D01*
X204244122Y-63565500D01*
X204311161Y-63585185D01*
X204356916Y-63637989D01*
X204366860Y-63707147D01*
X204363899Y-63721580D01*
X204344500Y-63793982D01*
X204344500Y-63906018D01*
X204373497Y-64014237D01*
X204429515Y-64111263D01*
X204508737Y-64190485D01*
X204605763Y-64246503D01*
X204713982Y-64275500D01*
X204713984Y-64275500D01*
X204826016Y-64275500D01*
X204826018Y-64275500D01*
X204934237Y-64246503D01*
X205031263Y-64190485D01*
X205110485Y-64111263D01*
X205111215Y-64109999D01*
X215429163Y-64109999D01*
X215429164Y-64110000D01*
X215955192Y-64110000D01*
X215935444Y-64144204D01*
X215915000Y-64220504D01*
X215915000Y-64299496D01*
X215935444Y-64375796D01*
X215955192Y-64410000D01*
X215429163Y-64410000D01*
X215445741Y-64493343D01*
X215445744Y-64493353D01*
X215506047Y-64638939D01*
X215506052Y-64638948D01*
X215593598Y-64769969D01*
X215593601Y-64769973D01*
X215705026Y-64881398D01*
X215705030Y-64881401D01*
X215836051Y-64968947D01*
X215836060Y-64968952D01*
X215981648Y-65029256D01*
X215981656Y-65029258D01*
X216136202Y-65059999D01*
X216136206Y-65060000D01*
X216615000Y-65060000D01*
X216615000Y-64560000D01*
X216915000Y-64560000D01*
X216915000Y-65060000D01*
X217393794Y-65060000D01*
X217393797Y-65059999D01*
X217548343Y-65029258D01*
X217548351Y-65029256D01*
X217693939Y-64968952D01*
X217693948Y-64968947D01*
X217824969Y-64881401D01*
X217824973Y-64881398D01*
X217936398Y-64769973D01*
X217936401Y-64769969D01*
X218023947Y-64638948D01*
X218023952Y-64638939D01*
X218084255Y-64493353D01*
X218084258Y-64493343D01*
X218100836Y-64410000D01*
X217574808Y-64410000D01*
X217594556Y-64375796D01*
X217615000Y-64299496D01*
X217615000Y-64220504D01*
X217594556Y-64144204D01*
X217574808Y-64110000D01*
X218100836Y-64110000D01*
X218100836Y-64109999D01*
X219759163Y-64109999D01*
X219759164Y-64110000D01*
X220285192Y-64110000D01*
X220265444Y-64144204D01*
X220245000Y-64220504D01*
X220245000Y-64299496D01*
X220265444Y-64375796D01*
X220285192Y-64410000D01*
X219759163Y-64410000D01*
X219775741Y-64493343D01*
X219775744Y-64493353D01*
X219836047Y-64638939D01*
X219836052Y-64638948D01*
X219923598Y-64769969D01*
X219923601Y-64769973D01*
X220035026Y-64881398D01*
X220035030Y-64881401D01*
X220166051Y-64968947D01*
X220166060Y-64968952D01*
X220311648Y-65029256D01*
X220311656Y-65029258D01*
X220466202Y-65059999D01*
X220466206Y-65060000D01*
X220795000Y-65060000D01*
X220795000Y-64560000D01*
X221095000Y-64560000D01*
X221095000Y-65060000D01*
X221423794Y-65060000D01*
X221423797Y-65059999D01*
X221578343Y-65029258D01*
X221578351Y-65029256D01*
X221723939Y-64968952D01*
X221723948Y-64968947D01*
X221854969Y-64881401D01*
X221854973Y-64881398D01*
X221966398Y-64769973D01*
X221966401Y-64769969D01*
X222053947Y-64638948D01*
X222053952Y-64638939D01*
X222114255Y-64493353D01*
X222114258Y-64493343D01*
X222130836Y-64410000D01*
X221604808Y-64410000D01*
X221624556Y-64375796D01*
X221645000Y-64299496D01*
X221645000Y-64220504D01*
X221624556Y-64144204D01*
X221604808Y-64110000D01*
X222130836Y-64110000D01*
X222130836Y-64109999D01*
X222114258Y-64026656D01*
X222114255Y-64026646D01*
X222053952Y-63881060D01*
X222053947Y-63881051D01*
X221966401Y-63750030D01*
X221966398Y-63750026D01*
X221854973Y-63638601D01*
X221854969Y-63638598D01*
X221723948Y-63551052D01*
X221723939Y-63551047D01*
X221578351Y-63490743D01*
X221578343Y-63490741D01*
X221423797Y-63460000D01*
X221095000Y-63460000D01*
X221095000Y-63960000D01*
X220795000Y-63960000D01*
X220795000Y-63460000D01*
X220466202Y-63460000D01*
X220311656Y-63490741D01*
X220311648Y-63490743D01*
X220166060Y-63551047D01*
X220166051Y-63551052D01*
X220035030Y-63638598D01*
X220035026Y-63638601D01*
X219923601Y-63750026D01*
X219923598Y-63750030D01*
X219836052Y-63881051D01*
X219836047Y-63881060D01*
X219775744Y-64026646D01*
X219775741Y-64026656D01*
X219759163Y-64109999D01*
X218100836Y-64109999D01*
X218084258Y-64026656D01*
X218084255Y-64026646D01*
X218023952Y-63881060D01*
X218023947Y-63881051D01*
X217936401Y-63750030D01*
X217936398Y-63750026D01*
X217824973Y-63638601D01*
X217824969Y-63638598D01*
X217693948Y-63551052D01*
X217693938Y-63551047D01*
X217554744Y-63493391D01*
X217500341Y-63449550D01*
X217478276Y-63383256D01*
X217495555Y-63315556D01*
X217540197Y-63271443D01*
X217545457Y-63268406D01*
X217584226Y-63246023D01*
X217681023Y-63149226D01*
X217749469Y-63030674D01*
X217784900Y-62898446D01*
X217784900Y-62761554D01*
X217749469Y-62629326D01*
X217739041Y-62611265D01*
X217724487Y-62586056D01*
X217681023Y-62510774D01*
X217584226Y-62413977D01*
X217549003Y-62393641D01*
X217465677Y-62345532D01*
X217465678Y-62345532D01*
X217429220Y-62335763D01*
X217333446Y-62310100D01*
X217196554Y-62310100D01*
X217100780Y-62335763D01*
X217064322Y-62345532D01*
X216945777Y-62413975D01*
X216945771Y-62413979D01*
X216848979Y-62510771D01*
X216848975Y-62510777D01*
X216780532Y-62629322D01*
X216780531Y-62629326D01*
X216745100Y-62761554D01*
X216745100Y-62898446D01*
X216780531Y-63030674D01*
X216780532Y-63030677D01*
X216828641Y-63114003D01*
X216848977Y-63149226D01*
X216848979Y-63149228D01*
X216949694Y-63249943D01*
X216983179Y-63311266D01*
X216978195Y-63380958D01*
X216949695Y-63425305D01*
X216915000Y-63460000D01*
X216915000Y-63960000D01*
X216615000Y-63960000D01*
X216615000Y-63460000D01*
X216136202Y-63460000D01*
X215981656Y-63490741D01*
X215981648Y-63490743D01*
X215836060Y-63551047D01*
X215836051Y-63551052D01*
X215705030Y-63638598D01*
X215705026Y-63638601D01*
X215593601Y-63750026D01*
X215593598Y-63750030D01*
X215506052Y-63881051D01*
X215506047Y-63881060D01*
X215445744Y-64026646D01*
X215445741Y-64026656D01*
X215429163Y-64109999D01*
X205111215Y-64109999D01*
X205130963Y-64075795D01*
X205134266Y-64070071D01*
X205166503Y-64014237D01*
X205195500Y-63906018D01*
X205195500Y-63793982D01*
X205166503Y-63685763D01*
X205110485Y-63588737D01*
X205031263Y-63509515D01*
X204934237Y-63453497D01*
X204826018Y-63424500D01*
X204765878Y-63424500D01*
X204698839Y-63404815D01*
X204653084Y-63352011D01*
X204643140Y-63282853D01*
X204646100Y-63268419D01*
X204665500Y-63196018D01*
X204665500Y-63083982D01*
X204636503Y-62975763D01*
X204580485Y-62878737D01*
X204501263Y-62799515D01*
X204404237Y-62743497D01*
X204296018Y-62714500D01*
X204183982Y-62714500D01*
X204075763Y-62743497D01*
X204075760Y-62743498D01*
X203978740Y-62799513D01*
X203978734Y-62799517D01*
X203899517Y-62878734D01*
X203899513Y-62878740D01*
X203843498Y-62975760D01*
X203843497Y-62975763D01*
X203814500Y-63083982D01*
X154020500Y-63083982D01*
X154020500Y-62443982D01*
X156554500Y-62443982D01*
X156554500Y-62556018D01*
X156569304Y-62611265D01*
X156583497Y-62664236D01*
X156583498Y-62664239D01*
X156595043Y-62684236D01*
X156639515Y-62761263D01*
X156718737Y-62840485D01*
X156815763Y-62896503D01*
X156923982Y-62925500D01*
X156923984Y-62925500D01*
X157036016Y-62925500D01*
X157036018Y-62925500D01*
X157144237Y-62896503D01*
X157241263Y-62840485D01*
X157320485Y-62761263D01*
X157376503Y-62664237D01*
X157405500Y-62556018D01*
X157405500Y-62443982D01*
X173774500Y-62443982D01*
X173774500Y-62556018D01*
X173789304Y-62611265D01*
X173803497Y-62664236D01*
X173803498Y-62664239D01*
X173815043Y-62684236D01*
X173859515Y-62761263D01*
X173938737Y-62840485D01*
X174035763Y-62896503D01*
X174143982Y-62925500D01*
X174143984Y-62925500D01*
X174256016Y-62925500D01*
X174256018Y-62925500D01*
X174364237Y-62896503D01*
X174461263Y-62840485D01*
X174540485Y-62761263D01*
X174596503Y-62664237D01*
X174625500Y-62556018D01*
X174625500Y-62474022D01*
X183352221Y-62474022D01*
X183352221Y-62586058D01*
X183381218Y-62694277D01*
X183437236Y-62791303D01*
X183516458Y-62870525D01*
X183613484Y-62926543D01*
X183721703Y-62955540D01*
X183721705Y-62955540D01*
X183833737Y-62955540D01*
X183833739Y-62955540D01*
X183941958Y-62926543D01*
X184038984Y-62870525D01*
X184118206Y-62791303D01*
X184174224Y-62694277D01*
X184203221Y-62586058D01*
X184203221Y-62474022D01*
X184174224Y-62365803D01*
X184118206Y-62268777D01*
X184038984Y-62189555D01*
X183941958Y-62133537D01*
X183833739Y-62104540D01*
X183721703Y-62104540D01*
X183613484Y-62133537D01*
X183613481Y-62133538D01*
X183516461Y-62189553D01*
X183516455Y-62189557D01*
X183437238Y-62268774D01*
X183437234Y-62268780D01*
X183381219Y-62365800D01*
X183381218Y-62365803D01*
X183352221Y-62474022D01*
X174625500Y-62474022D01*
X174625500Y-62443982D01*
X174596503Y-62335763D01*
X174540485Y-62238737D01*
X174461263Y-62159515D01*
X174364237Y-62103497D01*
X174256018Y-62074500D01*
X174143982Y-62074500D01*
X174035763Y-62103497D01*
X174035760Y-62103498D01*
X173938740Y-62159513D01*
X173938734Y-62159517D01*
X173859517Y-62238734D01*
X173859513Y-62238740D01*
X173803498Y-62335760D01*
X173803497Y-62335763D01*
X173774500Y-62443982D01*
X157405500Y-62443982D01*
X157376503Y-62335763D01*
X157320485Y-62238737D01*
X157241263Y-62159515D01*
X157144237Y-62103497D01*
X157036018Y-62074500D01*
X156923982Y-62074500D01*
X156815763Y-62103497D01*
X156815760Y-62103498D01*
X156718740Y-62159513D01*
X156718734Y-62159517D01*
X156639517Y-62238734D01*
X156639513Y-62238740D01*
X156583498Y-62335760D01*
X156583497Y-62335763D01*
X156554500Y-62443982D01*
X154020500Y-62443982D01*
X154020500Y-62043982D01*
X192049500Y-62043982D01*
X192049500Y-62156018D01*
X192078497Y-62264237D01*
X192134515Y-62361263D01*
X192213737Y-62440485D01*
X192310763Y-62496503D01*
X192418982Y-62525500D01*
X192418984Y-62525500D01*
X192531016Y-62525500D01*
X192531018Y-62525500D01*
X192639237Y-62496503D01*
X192695565Y-62463982D01*
X196604500Y-62463982D01*
X196604500Y-62576018D01*
X196613945Y-62611265D01*
X196633497Y-62684236D01*
X196633498Y-62684239D01*
X196639295Y-62694279D01*
X196689515Y-62781263D01*
X196768737Y-62860485D01*
X196865763Y-62916503D01*
X196973982Y-62945500D01*
X196973984Y-62945500D01*
X197086016Y-62945500D01*
X197086018Y-62945500D01*
X197194237Y-62916503D01*
X197291263Y-62860485D01*
X197370485Y-62781263D01*
X197426503Y-62684237D01*
X197455500Y-62576018D01*
X197455500Y-62463982D01*
X197426503Y-62355763D01*
X197390834Y-62293982D01*
X214414500Y-62293982D01*
X214414500Y-62406018D01*
X214443497Y-62514237D01*
X214499515Y-62611263D01*
X214578737Y-62690485D01*
X214675763Y-62746503D01*
X214783982Y-62775500D01*
X214783984Y-62775500D01*
X214896016Y-62775500D01*
X214896018Y-62775500D01*
X215004237Y-62746503D01*
X215101263Y-62690485D01*
X215180485Y-62611263D01*
X215236503Y-62514237D01*
X215265500Y-62406018D01*
X215265500Y-62293982D01*
X215236503Y-62185763D01*
X215180485Y-62088737D01*
X215101263Y-62009515D01*
X215004237Y-61953497D01*
X214896018Y-61924500D01*
X214783982Y-61924500D01*
X214675763Y-61953497D01*
X214675760Y-61953498D01*
X214578740Y-62009513D01*
X214578734Y-62009517D01*
X214499517Y-62088734D01*
X214499513Y-62088740D01*
X214443498Y-62185760D01*
X214443497Y-62185763D01*
X214414500Y-62293982D01*
X197390834Y-62293982D01*
X197370485Y-62258737D01*
X197291263Y-62179515D01*
X197194237Y-62123497D01*
X197086018Y-62094500D01*
X196973982Y-62094500D01*
X196865763Y-62123497D01*
X196865760Y-62123498D01*
X196768740Y-62179513D01*
X196768734Y-62179517D01*
X196689517Y-62258734D01*
X196689513Y-62258740D01*
X196633498Y-62355760D01*
X196633497Y-62355763D01*
X196604500Y-62463982D01*
X192695565Y-62463982D01*
X192736263Y-62440485D01*
X192815485Y-62361263D01*
X192871503Y-62264237D01*
X192900500Y-62156018D01*
X192900500Y-62043982D01*
X192871503Y-61935763D01*
X192815485Y-61838737D01*
X192736263Y-61759515D01*
X192639237Y-61703497D01*
X192531018Y-61674500D01*
X192418982Y-61674500D01*
X192310763Y-61703497D01*
X192293211Y-61713630D01*
X192293206Y-61713632D01*
X192213737Y-61759515D01*
X192213734Y-61759517D01*
X192134517Y-61838734D01*
X192134513Y-61838740D01*
X192078498Y-61935760D01*
X192078497Y-61935763D01*
X192049500Y-62043982D01*
X154020500Y-62043982D01*
X154020500Y-60993982D01*
X191749500Y-60993982D01*
X191749500Y-61106018D01*
X191778497Y-61214237D01*
X191834515Y-61311263D01*
X191913737Y-61390485D01*
X192010763Y-61446503D01*
X192118982Y-61475500D01*
X192118984Y-61475500D01*
X192223941Y-61475500D01*
X192231018Y-61475500D01*
X192339237Y-61446503D01*
X192436263Y-61390485D01*
X192515485Y-61311263D01*
X192571503Y-61214237D01*
X192600500Y-61106018D01*
X192600500Y-60993982D01*
X192571503Y-60885763D01*
X192515485Y-60788737D01*
X192436263Y-60709515D01*
X192339237Y-60653497D01*
X192231018Y-60624500D01*
X192118982Y-60624500D01*
X192010763Y-60653497D01*
X192010760Y-60653498D01*
X191913740Y-60709513D01*
X191913734Y-60709517D01*
X191834517Y-60788734D01*
X191834513Y-60788740D01*
X191778498Y-60885760D01*
X191778497Y-60885763D01*
X191749500Y-60993982D01*
X154020500Y-60993982D01*
X154020500Y-59983982D01*
X197264500Y-59983982D01*
X197264500Y-60096018D01*
X197293497Y-60204237D01*
X197349515Y-60301263D01*
X197428737Y-60380485D01*
X197525763Y-60436503D01*
X197633982Y-60465500D01*
X197633984Y-60465500D01*
X197746016Y-60465500D01*
X197746018Y-60465500D01*
X197854237Y-60436503D01*
X197951263Y-60380485D01*
X198030485Y-60301263D01*
X198086503Y-60204237D01*
X198115500Y-60096018D01*
X198115500Y-59983982D01*
X198086503Y-59875763D01*
X198030485Y-59778737D01*
X197951263Y-59699515D01*
X197854237Y-59643497D01*
X197746018Y-59614500D01*
X197633982Y-59614500D01*
X197525763Y-59643497D01*
X197525760Y-59643498D01*
X197428740Y-59699513D01*
X197428734Y-59699517D01*
X197349517Y-59778734D01*
X197349513Y-59778740D01*
X197293498Y-59875760D01*
X197293497Y-59875763D01*
X197264500Y-59983982D01*
X154020500Y-59983982D01*
X154020500Y-58968982D01*
X178774500Y-58968982D01*
X178774500Y-59081018D01*
X178792047Y-59146502D01*
X178803497Y-59189236D01*
X178803498Y-59189239D01*
X178804218Y-59190486D01*
X178859515Y-59286263D01*
X178938737Y-59365485D01*
X179035763Y-59421503D01*
X179143982Y-59450500D01*
X179143984Y-59450500D01*
X179256016Y-59450500D01*
X179256018Y-59450500D01*
X179364237Y-59421503D01*
X179461263Y-59365485D01*
X179540485Y-59286263D01*
X179596503Y-59189237D01*
X179625500Y-59081018D01*
X179625500Y-58973982D01*
X183704500Y-58973982D01*
X183704500Y-59086018D01*
X183733497Y-59194237D01*
X183789515Y-59291263D01*
X183868737Y-59370485D01*
X183965763Y-59426503D01*
X184073982Y-59455500D01*
X184073984Y-59455500D01*
X184186016Y-59455500D01*
X184186018Y-59455500D01*
X184294237Y-59426503D01*
X184391263Y-59370485D01*
X184470485Y-59291263D01*
X184526503Y-59194237D01*
X184555500Y-59086018D01*
X184555500Y-58973982D01*
X184526503Y-58865763D01*
X184526501Y-58865759D01*
X184526500Y-58865756D01*
X184516165Y-58847856D01*
X184516164Y-58847855D01*
X184492009Y-58806018D01*
X184485060Y-58793982D01*
X195714500Y-58793982D01*
X195714500Y-58906018D01*
X195743497Y-59014237D01*
X195799515Y-59111263D01*
X195878737Y-59190485D01*
X195975763Y-59246503D01*
X196083982Y-59275500D01*
X196083984Y-59275500D01*
X196196016Y-59275500D01*
X196196018Y-59275500D01*
X196304237Y-59246503D01*
X196401263Y-59190485D01*
X196480485Y-59111263D01*
X196536503Y-59014237D01*
X196565500Y-58906018D01*
X196565500Y-58793982D01*
X196562821Y-58783982D01*
X197254500Y-58783982D01*
X197254500Y-58896018D01*
X197275391Y-58973982D01*
X197283497Y-59004236D01*
X197283498Y-59004239D01*
X197289272Y-59014239D01*
X197339515Y-59101263D01*
X197418737Y-59180485D01*
X197515763Y-59236503D01*
X197623982Y-59265500D01*
X197623984Y-59265500D01*
X197736016Y-59265500D01*
X197736018Y-59265500D01*
X197844237Y-59236503D01*
X197941263Y-59180485D01*
X198020485Y-59101263D01*
X198076503Y-59004237D01*
X198105500Y-58896018D01*
X198105500Y-58783982D01*
X198081385Y-58693982D01*
X207464500Y-58693982D01*
X207464500Y-58806018D01*
X207493497Y-58914237D01*
X207549515Y-59011263D01*
X207628737Y-59090485D01*
X207725763Y-59146503D01*
X207833982Y-59175500D01*
X207833984Y-59175500D01*
X207946016Y-59175500D01*
X207946018Y-59175500D01*
X208054237Y-59146503D01*
X208151263Y-59090485D01*
X208230485Y-59011263D01*
X208286503Y-58914237D01*
X208315500Y-58806018D01*
X208315500Y-58693982D01*
X208286503Y-58585763D01*
X208230485Y-58488737D01*
X208151263Y-58409515D01*
X208054237Y-58353497D01*
X207946018Y-58324500D01*
X207833982Y-58324500D01*
X207725763Y-58353497D01*
X207725760Y-58353498D01*
X207628740Y-58409513D01*
X207628734Y-58409517D01*
X207549517Y-58488734D01*
X207549513Y-58488740D01*
X207493498Y-58585760D01*
X207493497Y-58585763D01*
X207464500Y-58693982D01*
X198081385Y-58693982D01*
X198076503Y-58675763D01*
X198020485Y-58578737D01*
X197941263Y-58499515D01*
X197844237Y-58443497D01*
X197736018Y-58414500D01*
X197623982Y-58414500D01*
X197515763Y-58443497D01*
X197515760Y-58443498D01*
X197418740Y-58499513D01*
X197418734Y-58499517D01*
X197339517Y-58578734D01*
X197339513Y-58578740D01*
X197283498Y-58675760D01*
X197283497Y-58675763D01*
X197254500Y-58783982D01*
X196562821Y-58783982D01*
X196536503Y-58685763D01*
X196480485Y-58588737D01*
X196401263Y-58509515D01*
X196304237Y-58453497D01*
X196196018Y-58424500D01*
X196083982Y-58424500D01*
X195975763Y-58453497D01*
X195975760Y-58453498D01*
X195878740Y-58509513D01*
X195878734Y-58509517D01*
X195799517Y-58588734D01*
X195799513Y-58588740D01*
X195743498Y-58685760D01*
X195743497Y-58685763D01*
X195714500Y-58793982D01*
X184485060Y-58793982D01*
X184470485Y-58768737D01*
X184391263Y-58689515D01*
X184294237Y-58633497D01*
X184186018Y-58604500D01*
X184073982Y-58604500D01*
X183965763Y-58633497D01*
X183965760Y-58633498D01*
X183868740Y-58689513D01*
X183868734Y-58689517D01*
X183789517Y-58768734D01*
X183789513Y-58768740D01*
X183733498Y-58865760D01*
X183733497Y-58865763D01*
X183704500Y-58973982D01*
X179625500Y-58973982D01*
X179625500Y-58968982D01*
X179596503Y-58860763D01*
X179540485Y-58763737D01*
X179461263Y-58684515D01*
X179364237Y-58628497D01*
X179256018Y-58599500D01*
X179143982Y-58599500D01*
X179035763Y-58628497D01*
X179035760Y-58628498D01*
X178938740Y-58684513D01*
X178938734Y-58684517D01*
X178859517Y-58763734D01*
X178859513Y-58763740D01*
X178803498Y-58860760D01*
X178803497Y-58860763D01*
X178774500Y-58968982D01*
X154020500Y-58968982D01*
X154020500Y-57983982D01*
X194824500Y-57983982D01*
X194824500Y-58096018D01*
X194853497Y-58204237D01*
X194909515Y-58301263D01*
X194988737Y-58380485D01*
X195085763Y-58436503D01*
X195193982Y-58465500D01*
X195193984Y-58465500D01*
X195306016Y-58465500D01*
X195306018Y-58465500D01*
X195414237Y-58436503D01*
X195511263Y-58380485D01*
X195590485Y-58301263D01*
X195646503Y-58204237D01*
X195675500Y-58096018D01*
X195675500Y-57983982D01*
X195646503Y-57875763D01*
X195590485Y-57778737D01*
X195511263Y-57699515D01*
X195414237Y-57643497D01*
X195306018Y-57614500D01*
X195193982Y-57614500D01*
X195085763Y-57643497D01*
X195085760Y-57643498D01*
X194988740Y-57699513D01*
X194988734Y-57699517D01*
X194909517Y-57778734D01*
X194909513Y-57778740D01*
X194853498Y-57875760D01*
X194853497Y-57875763D01*
X194824500Y-57983982D01*
X154020500Y-57983982D01*
X154020500Y-57293982D01*
X161224500Y-57293982D01*
X161224500Y-57406018D01*
X161253497Y-57514237D01*
X161309515Y-57611263D01*
X161388737Y-57690485D01*
X161485763Y-57746503D01*
X161593982Y-57775500D01*
X161593984Y-57775500D01*
X161706016Y-57775500D01*
X161706018Y-57775500D01*
X161814237Y-57746503D01*
X161911263Y-57690485D01*
X161990485Y-57611263D01*
X162046503Y-57514237D01*
X162075500Y-57406018D01*
X162075500Y-57293982D01*
X162046503Y-57185763D01*
X161997278Y-57100502D01*
X214717980Y-57100502D01*
X214717980Y-57212538D01*
X214746977Y-57320757D01*
X214802995Y-57417783D01*
X214882217Y-57497005D01*
X214979243Y-57553023D01*
X215087462Y-57582020D01*
X215087464Y-57582020D01*
X215199496Y-57582020D01*
X215199498Y-57582020D01*
X215307717Y-57553023D01*
X215404743Y-57497005D01*
X215483965Y-57417783D01*
X215539983Y-57320757D01*
X215568980Y-57212538D01*
X215568980Y-57100502D01*
X215539983Y-56992283D01*
X215483965Y-56895257D01*
X215404743Y-56816035D01*
X215307717Y-56760017D01*
X215199498Y-56731020D01*
X215087462Y-56731020D01*
X214979243Y-56760017D01*
X214979240Y-56760018D01*
X214882220Y-56816033D01*
X214882214Y-56816037D01*
X214802997Y-56895254D01*
X214802993Y-56895260D01*
X214746978Y-56992280D01*
X214746977Y-56992283D01*
X214717980Y-57100502D01*
X161997278Y-57100502D01*
X161990485Y-57088737D01*
X161911263Y-57009515D01*
X161814237Y-56953497D01*
X161706018Y-56924500D01*
X161593982Y-56924500D01*
X161485763Y-56953497D01*
X161485760Y-56953498D01*
X161388740Y-57009513D01*
X161388734Y-57009517D01*
X161309517Y-57088734D01*
X161309513Y-57088740D01*
X161253498Y-57185760D01*
X161253497Y-57185763D01*
X161224500Y-57293982D01*
X154020500Y-57293982D01*
X154020500Y-55943982D01*
X181424500Y-55943982D01*
X181424500Y-56056018D01*
X181453497Y-56164237D01*
X181509515Y-56261263D01*
X181588737Y-56340485D01*
X181685763Y-56396503D01*
X181793982Y-56425500D01*
X181793984Y-56425500D01*
X181906016Y-56425500D01*
X181906018Y-56425500D01*
X182014237Y-56396503D01*
X182111263Y-56340485D01*
X182190485Y-56261263D01*
X182246503Y-56164237D01*
X182275500Y-56056018D01*
X182275500Y-56018982D01*
X184174500Y-56018982D01*
X184174500Y-56131018D01*
X184203497Y-56239237D01*
X184259515Y-56336263D01*
X184338737Y-56415485D01*
X184435763Y-56471503D01*
X184543982Y-56500500D01*
X184543984Y-56500500D01*
X184656016Y-56500500D01*
X184656018Y-56500500D01*
X184764237Y-56471503D01*
X184861263Y-56415485D01*
X184940485Y-56336263D01*
X184996503Y-56239237D01*
X185025500Y-56131018D01*
X185025500Y-56018982D01*
X184996503Y-55910763D01*
X184940485Y-55813737D01*
X184861263Y-55734515D01*
X184764237Y-55678497D01*
X184656018Y-55649500D01*
X184543982Y-55649500D01*
X184435763Y-55678497D01*
X184435760Y-55678498D01*
X184338740Y-55734513D01*
X184338734Y-55734517D01*
X184259517Y-55813734D01*
X184259513Y-55813740D01*
X184203498Y-55910760D01*
X184203497Y-55910763D01*
X184174500Y-56018982D01*
X182275500Y-56018982D01*
X182275500Y-55943982D01*
X182246503Y-55835763D01*
X182190485Y-55738737D01*
X182111263Y-55659515D01*
X182014237Y-55603497D01*
X181906018Y-55574500D01*
X181793982Y-55574500D01*
X181685763Y-55603497D01*
X181685760Y-55603498D01*
X181588740Y-55659513D01*
X181588734Y-55659517D01*
X181509517Y-55738734D01*
X181509513Y-55738740D01*
X181453498Y-55835760D01*
X181453497Y-55835763D01*
X181424500Y-55943982D01*
X154020500Y-55943982D01*
X154020500Y-55469999D01*
X215429163Y-55469999D01*
X215429164Y-55470000D01*
X215955192Y-55470000D01*
X215935444Y-55504204D01*
X215915000Y-55580504D01*
X215915000Y-55659496D01*
X215935444Y-55735796D01*
X215955192Y-55770000D01*
X215429163Y-55770000D01*
X215445741Y-55853343D01*
X215445744Y-55853353D01*
X215506047Y-55998939D01*
X215506052Y-55998948D01*
X215593598Y-56129969D01*
X215593601Y-56129973D01*
X215705026Y-56241398D01*
X215705030Y-56241401D01*
X215836051Y-56328947D01*
X215836060Y-56328952D01*
X215981648Y-56389256D01*
X215981656Y-56389258D01*
X216136202Y-56419999D01*
X216136206Y-56420000D01*
X216615000Y-56420000D01*
X216615000Y-55920000D01*
X216915000Y-55920000D01*
X216915000Y-56420000D01*
X216949694Y-56454694D01*
X216983179Y-56516017D01*
X216978195Y-56585709D01*
X216949695Y-56630056D01*
X216848976Y-56730775D01*
X216848975Y-56730777D01*
X216780532Y-56849322D01*
X216780531Y-56849326D01*
X216745100Y-56981554D01*
X216745100Y-57118446D01*
X216780531Y-57250674D01*
X216780532Y-57250677D01*
X216828641Y-57334003D01*
X216848977Y-57369226D01*
X216945774Y-57466023D01*
X217029103Y-57514133D01*
X217064322Y-57534467D01*
X217064323Y-57534467D01*
X217064326Y-57534469D01*
X217196554Y-57569900D01*
X217196556Y-57569900D01*
X217333444Y-57569900D01*
X217333446Y-57569900D01*
X217465674Y-57534469D01*
X217584226Y-57466023D01*
X217681023Y-57369226D01*
X217749469Y-57250674D01*
X217784900Y-57118446D01*
X217784900Y-56981554D01*
X217749469Y-56849326D01*
X217681023Y-56730774D01*
X217584226Y-56633977D01*
X217584223Y-56633975D01*
X217584219Y-56633972D01*
X217540196Y-56608555D01*
X217491981Y-56557988D01*
X217478759Y-56489380D01*
X217504727Y-56424516D01*
X217554745Y-56386608D01*
X217693935Y-56328954D01*
X217693948Y-56328947D01*
X217824969Y-56241401D01*
X217824973Y-56241398D01*
X217936398Y-56129973D01*
X217936401Y-56129969D01*
X218023947Y-55998948D01*
X218023952Y-55998939D01*
X218084255Y-55853353D01*
X218084258Y-55853343D01*
X218100836Y-55770000D01*
X217574808Y-55770000D01*
X217594556Y-55735796D01*
X217615000Y-55659496D01*
X217615000Y-55580504D01*
X217594556Y-55504204D01*
X217574808Y-55470000D01*
X218100836Y-55470000D01*
X218100836Y-55469999D01*
X219759163Y-55469999D01*
X219759164Y-55470000D01*
X220285192Y-55470000D01*
X220265444Y-55504204D01*
X220245000Y-55580504D01*
X220245000Y-55659496D01*
X220265444Y-55735796D01*
X220285192Y-55770000D01*
X219759163Y-55770000D01*
X219775741Y-55853343D01*
X219775744Y-55853353D01*
X219836047Y-55998939D01*
X219836052Y-55998948D01*
X219923598Y-56129969D01*
X219923601Y-56129973D01*
X220035026Y-56241398D01*
X220035030Y-56241401D01*
X220166051Y-56328947D01*
X220166060Y-56328952D01*
X220311648Y-56389256D01*
X220311656Y-56389258D01*
X220466202Y-56419999D01*
X220466206Y-56420000D01*
X220795000Y-56420000D01*
X220795000Y-55920000D01*
X221095000Y-55920000D01*
X221095000Y-56420000D01*
X221423794Y-56420000D01*
X221423797Y-56419999D01*
X221578343Y-56389258D01*
X221578351Y-56389256D01*
X221723939Y-56328952D01*
X221723948Y-56328947D01*
X221854969Y-56241401D01*
X221854973Y-56241398D01*
X221966398Y-56129973D01*
X221966401Y-56129969D01*
X222053947Y-55998948D01*
X222053952Y-55998939D01*
X222114255Y-55853353D01*
X222114258Y-55853343D01*
X222130836Y-55770000D01*
X221604808Y-55770000D01*
X221624556Y-55735796D01*
X221645000Y-55659496D01*
X221645000Y-55580504D01*
X221624556Y-55504204D01*
X221604808Y-55470000D01*
X222130836Y-55470000D01*
X222130836Y-55469999D01*
X222114258Y-55386656D01*
X222114255Y-55386646D01*
X222053952Y-55241060D01*
X222053947Y-55241051D01*
X221966401Y-55110030D01*
X221966398Y-55110026D01*
X221854973Y-54998601D01*
X221854969Y-54998598D01*
X221723948Y-54911052D01*
X221723939Y-54911047D01*
X221578351Y-54850743D01*
X221578343Y-54850741D01*
X221423797Y-54820000D01*
X221095000Y-54820000D01*
X221095000Y-55320000D01*
X220795000Y-55320000D01*
X220795000Y-54820000D01*
X220466202Y-54820000D01*
X220311656Y-54850741D01*
X220311648Y-54850743D01*
X220166060Y-54911047D01*
X220166051Y-54911052D01*
X220035030Y-54998598D01*
X220035026Y-54998601D01*
X219923601Y-55110026D01*
X219923598Y-55110030D01*
X219836052Y-55241051D01*
X219836047Y-55241060D01*
X219775744Y-55386646D01*
X219775741Y-55386656D01*
X219759163Y-55469999D01*
X218100836Y-55469999D01*
X218084258Y-55386656D01*
X218084255Y-55386646D01*
X218023952Y-55241060D01*
X218023947Y-55241051D01*
X217936401Y-55110030D01*
X217936398Y-55110026D01*
X217824973Y-54998601D01*
X217824969Y-54998598D01*
X217693948Y-54911052D01*
X217693939Y-54911047D01*
X217548351Y-54850743D01*
X217548343Y-54850741D01*
X217393797Y-54820000D01*
X216915000Y-54820000D01*
X216915000Y-55320000D01*
X216615000Y-55320000D01*
X216615000Y-54820000D01*
X216136202Y-54820000D01*
X215981656Y-54850741D01*
X215981648Y-54850743D01*
X215836060Y-54911047D01*
X215836051Y-54911052D01*
X215705030Y-54998598D01*
X215705026Y-54998601D01*
X215593601Y-55110026D01*
X215593598Y-55110030D01*
X215506052Y-55241051D01*
X215506047Y-55241060D01*
X215445744Y-55386646D01*
X215445741Y-55386656D01*
X215429163Y-55469999D01*
X154020500Y-55469999D01*
X154020500Y-54843982D01*
X194794500Y-54843982D01*
X194794500Y-54956018D01*
X194823497Y-55064237D01*
X194879515Y-55161263D01*
X194958737Y-55240485D01*
X195055763Y-55296503D01*
X195163982Y-55325500D01*
X195163984Y-55325500D01*
X195276016Y-55325500D01*
X195276018Y-55325500D01*
X195384237Y-55296503D01*
X195481263Y-55240485D01*
X195560485Y-55161263D01*
X195616503Y-55064237D01*
X195645500Y-54956018D01*
X195645500Y-54843982D01*
X195616503Y-54735763D01*
X195560485Y-54638737D01*
X195481263Y-54559515D01*
X195384237Y-54503497D01*
X195276018Y-54474500D01*
X195163982Y-54474500D01*
X195055763Y-54503497D01*
X195055760Y-54503498D01*
X194958740Y-54559513D01*
X194958734Y-54559517D01*
X194879517Y-54638734D01*
X194879513Y-54638740D01*
X194823498Y-54735760D01*
X194823497Y-54735763D01*
X194794500Y-54843982D01*
X154020500Y-54843982D01*
X154020500Y-52618982D01*
X168874500Y-52618982D01*
X168874500Y-52731018D01*
X168898071Y-52818984D01*
X168903497Y-52839236D01*
X168903498Y-52839239D01*
X168915923Y-52860760D01*
X168959515Y-52936263D01*
X169038737Y-53015485D01*
X169135763Y-53071503D01*
X169243982Y-53100500D01*
X169243984Y-53100500D01*
X169356016Y-53100500D01*
X169356018Y-53100500D01*
X169464237Y-53071503D01*
X169561263Y-53015485D01*
X169607766Y-52968982D01*
X185324500Y-52968982D01*
X185324500Y-53081018D01*
X185353497Y-53189237D01*
X185409515Y-53286263D01*
X185488737Y-53365485D01*
X185585763Y-53421503D01*
X185693982Y-53450500D01*
X185693984Y-53450500D01*
X185806016Y-53450500D01*
X185806018Y-53450500D01*
X185914237Y-53421503D01*
X186011263Y-53365485D01*
X186090485Y-53286263D01*
X186146503Y-53189237D01*
X186175500Y-53081018D01*
X186175500Y-52968982D01*
X186849500Y-52968982D01*
X186849500Y-53081018D01*
X186878497Y-53189237D01*
X186934515Y-53286263D01*
X187013737Y-53365485D01*
X187110763Y-53421503D01*
X187218982Y-53450500D01*
X187218984Y-53450500D01*
X187331016Y-53450500D01*
X187331018Y-53450500D01*
X187439237Y-53421503D01*
X187536263Y-53365485D01*
X187615485Y-53286263D01*
X187671503Y-53189237D01*
X187700500Y-53081018D01*
X187700500Y-52968982D01*
X187671503Y-52860763D01*
X187615485Y-52763737D01*
X187595730Y-52743982D01*
X188844500Y-52743982D01*
X188844500Y-52856018D01*
X188866002Y-52936263D01*
X188873497Y-52964236D01*
X188873498Y-52964239D01*
X188876238Y-52968984D01*
X188929515Y-53061263D01*
X189008737Y-53140485D01*
X189105763Y-53196503D01*
X189213982Y-53225500D01*
X189213984Y-53225500D01*
X189326016Y-53225500D01*
X189326018Y-53225500D01*
X189434237Y-53196503D01*
X189531263Y-53140485D01*
X189610485Y-53061263D01*
X189666503Y-52964237D01*
X189695500Y-52856018D01*
X189695500Y-52743982D01*
X189692180Y-52731591D01*
X189693075Y-52693982D01*
X199254500Y-52693982D01*
X199254500Y-52806018D01*
X199279375Y-52898851D01*
X199283497Y-52914236D01*
X199283498Y-52914239D01*
X199296211Y-52936259D01*
X199339515Y-53011263D01*
X199418737Y-53090485D01*
X199515763Y-53146503D01*
X199623982Y-53175500D01*
X199623984Y-53175500D01*
X199736016Y-53175500D01*
X199736018Y-53175500D01*
X199844237Y-53146503D01*
X199941263Y-53090485D01*
X200020485Y-53011263D01*
X200076503Y-52914237D01*
X200102026Y-52818982D01*
X218074500Y-52818982D01*
X218074500Y-52931018D01*
X218103497Y-53039237D01*
X218159515Y-53136263D01*
X218238737Y-53215485D01*
X218335763Y-53271503D01*
X218443982Y-53300500D01*
X218443984Y-53300500D01*
X218556016Y-53300500D01*
X218556018Y-53300500D01*
X218664237Y-53271503D01*
X218761263Y-53215485D01*
X218840485Y-53136263D01*
X218896503Y-53039237D01*
X218925500Y-52931018D01*
X218925500Y-52818982D01*
X218896503Y-52710763D01*
X218840485Y-52613737D01*
X218761263Y-52534515D01*
X218684996Y-52490482D01*
X218664239Y-52478498D01*
X218664238Y-52478497D01*
X218664237Y-52478497D01*
X218556018Y-52449500D01*
X218443982Y-52449500D01*
X218335763Y-52478497D01*
X218335760Y-52478498D01*
X218238740Y-52534513D01*
X218238734Y-52534517D01*
X218159517Y-52613734D01*
X218159513Y-52613740D01*
X218103498Y-52710760D01*
X218103497Y-52710763D01*
X218074500Y-52818982D01*
X200102026Y-52818982D01*
X200105500Y-52806018D01*
X200105500Y-52693982D01*
X200076503Y-52585763D01*
X200020485Y-52488737D01*
X199941263Y-52409515D01*
X199844237Y-52353497D01*
X199736018Y-52324500D01*
X199623982Y-52324500D01*
X199515763Y-52353497D01*
X199515760Y-52353498D01*
X199418740Y-52409513D01*
X199418734Y-52409517D01*
X199339517Y-52488734D01*
X199339513Y-52488740D01*
X199283498Y-52585760D01*
X199283497Y-52585763D01*
X199254500Y-52693982D01*
X189693075Y-52693982D01*
X189693843Y-52661744D01*
X189733006Y-52603881D01*
X189792592Y-52577021D01*
X189802213Y-52575500D01*
X189831018Y-52575500D01*
X189939237Y-52546503D01*
X190036263Y-52490485D01*
X190115485Y-52411263D01*
X190171503Y-52314237D01*
X190200500Y-52206018D01*
X190200500Y-52093982D01*
X190171503Y-51985763D01*
X190115485Y-51888737D01*
X190036263Y-51809515D01*
X189939237Y-51753497D01*
X189831018Y-51724500D01*
X189718982Y-51724500D01*
X189610763Y-51753497D01*
X189610760Y-51753498D01*
X189513740Y-51809513D01*
X189513734Y-51809517D01*
X189434517Y-51888734D01*
X189434513Y-51888740D01*
X189378498Y-51985760D01*
X189378497Y-51985763D01*
X189349500Y-52093982D01*
X189349500Y-52206017D01*
X189352820Y-52218407D01*
X189351157Y-52288256D01*
X189311994Y-52346119D01*
X189247766Y-52373623D01*
X189233045Y-52374500D01*
X189213982Y-52374500D01*
X189105763Y-52403497D01*
X189105760Y-52403498D01*
X189008740Y-52459513D01*
X189008734Y-52459517D01*
X188929517Y-52538734D01*
X188929513Y-52538740D01*
X188873498Y-52635760D01*
X188873497Y-52635763D01*
X188844500Y-52743982D01*
X187595730Y-52743982D01*
X187536263Y-52684515D01*
X187439237Y-52628497D01*
X187331018Y-52599500D01*
X187218982Y-52599500D01*
X187110763Y-52628497D01*
X187110760Y-52628498D01*
X187013740Y-52684513D01*
X187013734Y-52684517D01*
X186934517Y-52763734D01*
X186934513Y-52763740D01*
X186878498Y-52860760D01*
X186878497Y-52860763D01*
X186849500Y-52968982D01*
X186175500Y-52968982D01*
X186146503Y-52860763D01*
X186090485Y-52763737D01*
X186011263Y-52684515D01*
X185914237Y-52628497D01*
X185806018Y-52599500D01*
X185693982Y-52599500D01*
X185585763Y-52628497D01*
X185585760Y-52628498D01*
X185488740Y-52684513D01*
X185488734Y-52684517D01*
X185409517Y-52763734D01*
X185409513Y-52763740D01*
X185353498Y-52860760D01*
X185353497Y-52860763D01*
X185324500Y-52968982D01*
X169607766Y-52968982D01*
X169640485Y-52936263D01*
X169696503Y-52839237D01*
X169725500Y-52731018D01*
X169725500Y-52618982D01*
X169696503Y-52510763D01*
X169640485Y-52413737D01*
X169561263Y-52334515D01*
X169464237Y-52278497D01*
X169356018Y-52249500D01*
X169243982Y-52249500D01*
X169135763Y-52278497D01*
X169135760Y-52278498D01*
X169038740Y-52334513D01*
X169038734Y-52334517D01*
X168959517Y-52413734D01*
X168959513Y-52413740D01*
X168903498Y-52510760D01*
X168903497Y-52510763D01*
X168874500Y-52618982D01*
X154020500Y-52618982D01*
X154020500Y-51168982D01*
X182174500Y-51168982D01*
X182174500Y-51281018D01*
X182203497Y-51389237D01*
X182259515Y-51486263D01*
X182338737Y-51565485D01*
X182435763Y-51621503D01*
X182543982Y-51650500D01*
X182543984Y-51650500D01*
X182656016Y-51650500D01*
X182656018Y-51650500D01*
X182764237Y-51621503D01*
X182861263Y-51565485D01*
X182940485Y-51486263D01*
X182996503Y-51389237D01*
X183025500Y-51281018D01*
X183025500Y-51168982D01*
X183005404Y-51093982D01*
X183799500Y-51093982D01*
X183799500Y-51206018D01*
X183828497Y-51314237D01*
X183884515Y-51411263D01*
X183963737Y-51490485D01*
X184060763Y-51546503D01*
X184168982Y-51575500D01*
X184168984Y-51575500D01*
X184281016Y-51575500D01*
X184281018Y-51575500D01*
X184389237Y-51546503D01*
X184486263Y-51490485D01*
X184565485Y-51411263D01*
X184621503Y-51314237D01*
X184650500Y-51206018D01*
X184650500Y-51093982D01*
X184621503Y-50985763D01*
X184568513Y-50893982D01*
X188349500Y-50893982D01*
X188349500Y-51006018D01*
X188373071Y-51093984D01*
X188378497Y-51114236D01*
X188378498Y-51114239D01*
X188380640Y-51117949D01*
X188434515Y-51211263D01*
X188513737Y-51290485D01*
X188610763Y-51346503D01*
X188718982Y-51375500D01*
X188718984Y-51375500D01*
X188831016Y-51375500D01*
X188831018Y-51375500D01*
X188939237Y-51346503D01*
X189036263Y-51290485D01*
X189115485Y-51211263D01*
X189171503Y-51114237D01*
X189200500Y-51006018D01*
X189200500Y-50893982D01*
X189171503Y-50785763D01*
X189115485Y-50688737D01*
X189036263Y-50609515D01*
X188939237Y-50553497D01*
X188831018Y-50524500D01*
X188718982Y-50524500D01*
X188610763Y-50553497D01*
X188610760Y-50553498D01*
X188513740Y-50609513D01*
X188513734Y-50609517D01*
X188434517Y-50688734D01*
X188434513Y-50688740D01*
X188378498Y-50785760D01*
X188378497Y-50785763D01*
X188349500Y-50893982D01*
X184568513Y-50893982D01*
X184565485Y-50888737D01*
X184486263Y-50809515D01*
X184389237Y-50753497D01*
X184281018Y-50724500D01*
X184168982Y-50724500D01*
X184060763Y-50753497D01*
X184060760Y-50753498D01*
X183963740Y-50809513D01*
X183963734Y-50809517D01*
X183884517Y-50888734D01*
X183884513Y-50888740D01*
X183828498Y-50985760D01*
X183828497Y-50985763D01*
X183799500Y-51093982D01*
X183005404Y-51093982D01*
X182996503Y-51060763D01*
X182940485Y-50963737D01*
X182861263Y-50884515D01*
X182764237Y-50828497D01*
X182656018Y-50799500D01*
X182543982Y-50799500D01*
X182435763Y-50828497D01*
X182435760Y-50828498D01*
X182338740Y-50884513D01*
X182338734Y-50884517D01*
X182259517Y-50963734D01*
X182259513Y-50963740D01*
X182203498Y-51060760D01*
X182203497Y-51060763D01*
X182174500Y-51168982D01*
X154020500Y-51168982D01*
X154020500Y-48968982D01*
X184659500Y-48968982D01*
X184659500Y-49081018D01*
X184666199Y-49106017D01*
X184688497Y-49189236D01*
X184688498Y-49189239D01*
X184689300Y-49190628D01*
X184744515Y-49286263D01*
X184823737Y-49365485D01*
X184920763Y-49421503D01*
X185028982Y-49450500D01*
X185028984Y-49450500D01*
X185141016Y-49450500D01*
X185141018Y-49450500D01*
X185249237Y-49421503D01*
X185346263Y-49365485D01*
X185425485Y-49286263D01*
X185481503Y-49189237D01*
X185510500Y-49081018D01*
X185510500Y-48993982D01*
X186124500Y-48993982D01*
X186124500Y-49106018D01*
X186153497Y-49214237D01*
X186209515Y-49311263D01*
X186288737Y-49390485D01*
X186385763Y-49446503D01*
X186493982Y-49475500D01*
X186493984Y-49475500D01*
X186606016Y-49475500D01*
X186606018Y-49475500D01*
X186714237Y-49446503D01*
X186811263Y-49390485D01*
X186890485Y-49311263D01*
X186946503Y-49214237D01*
X186975500Y-49106018D01*
X186975500Y-48993982D01*
X186946503Y-48885763D01*
X186890485Y-48788737D01*
X186839855Y-48738107D01*
X195218624Y-48738107D01*
X195218624Y-48850143D01*
X195247621Y-48958362D01*
X195303639Y-49055388D01*
X195382861Y-49134610D01*
X195479887Y-49190628D01*
X195588106Y-49219625D01*
X195588108Y-49219625D01*
X195700140Y-49219625D01*
X195700142Y-49219625D01*
X195808361Y-49190628D01*
X195905387Y-49134610D01*
X195984609Y-49055388D01*
X196040627Y-48958362D01*
X196069624Y-48850143D01*
X196069624Y-48738107D01*
X196040627Y-48629888D01*
X195984609Y-48532862D01*
X195905387Y-48453640D01*
X195808361Y-48397622D01*
X195700142Y-48368625D01*
X195588106Y-48368625D01*
X195479887Y-48397622D01*
X195479884Y-48397623D01*
X195382864Y-48453638D01*
X195382858Y-48453642D01*
X195303641Y-48532859D01*
X195303637Y-48532865D01*
X195247622Y-48629885D01*
X195247621Y-48629888D01*
X195218624Y-48738107D01*
X186839855Y-48738107D01*
X186811263Y-48709515D01*
X186714237Y-48653497D01*
X186606018Y-48624500D01*
X186493982Y-48624500D01*
X186385763Y-48653497D01*
X186385760Y-48653498D01*
X186288740Y-48709513D01*
X186288734Y-48709517D01*
X186209517Y-48788734D01*
X186209513Y-48788740D01*
X186153498Y-48885760D01*
X186153497Y-48885763D01*
X186124500Y-48993982D01*
X185510500Y-48993982D01*
X185510500Y-48968982D01*
X185481503Y-48860763D01*
X185425485Y-48763737D01*
X185346263Y-48684515D01*
X185281579Y-48647169D01*
X185249239Y-48628498D01*
X185249238Y-48628497D01*
X185249237Y-48628497D01*
X185141018Y-48599500D01*
X185028982Y-48599500D01*
X184920763Y-48628497D01*
X184920760Y-48628498D01*
X184823740Y-48684513D01*
X184823734Y-48684517D01*
X184744517Y-48763734D01*
X184744513Y-48763740D01*
X184688498Y-48860760D01*
X184688497Y-48860763D01*
X184659500Y-48968982D01*
X154020500Y-48968982D01*
X154020500Y-47843982D01*
X183149500Y-47843982D01*
X183149500Y-47956018D01*
X183178497Y-48064237D01*
X183234515Y-48161263D01*
X183313737Y-48240485D01*
X183410763Y-48296503D01*
X183518982Y-48325500D01*
X183518984Y-48325500D01*
X183631016Y-48325500D01*
X183631018Y-48325500D01*
X183739237Y-48296503D01*
X183836263Y-48240485D01*
X183915485Y-48161263D01*
X183971503Y-48064237D01*
X184000500Y-47956018D01*
X184000500Y-47843982D01*
X183971503Y-47735763D01*
X183915485Y-47638737D01*
X183836263Y-47559515D01*
X183739237Y-47503497D01*
X183631018Y-47474500D01*
X183518982Y-47474500D01*
X183410763Y-47503497D01*
X183410760Y-47503498D01*
X183313740Y-47559513D01*
X183313734Y-47559517D01*
X183234517Y-47638734D01*
X183234513Y-47638740D01*
X183178498Y-47735760D01*
X183178497Y-47735763D01*
X183149500Y-47843982D01*
X154020500Y-47843982D01*
X154020500Y-46868982D01*
X184649500Y-46868982D01*
X184649500Y-46981018D01*
X184678497Y-47089237D01*
X184734515Y-47186263D01*
X184813737Y-47265485D01*
X184910763Y-47321503D01*
X185018982Y-47350500D01*
X185018984Y-47350500D01*
X185131016Y-47350500D01*
X185131018Y-47350500D01*
X185239237Y-47321503D01*
X185336263Y-47265485D01*
X185402566Y-47199181D01*
X185463885Y-47165699D01*
X185527680Y-47170261D01*
X185527912Y-47169399D01*
X185532386Y-47170597D01*
X185533577Y-47170683D01*
X185535442Y-47171416D01*
X185535759Y-47171501D01*
X185535763Y-47171503D01*
X185643982Y-47200500D01*
X185643984Y-47200500D01*
X185756016Y-47200500D01*
X185756018Y-47200500D01*
X185864237Y-47171503D01*
X185961263Y-47115485D01*
X186040485Y-47036263D01*
X186067847Y-46988869D01*
X186118412Y-46940656D01*
X186187019Y-46927432D01*
X186237232Y-46943483D01*
X186285763Y-46971503D01*
X186393982Y-47000500D01*
X186393984Y-47000500D01*
X186506016Y-47000500D01*
X186506018Y-47000500D01*
X186614237Y-46971503D01*
X186711263Y-46915485D01*
X186712620Y-46914127D01*
X186714044Y-46913349D01*
X186717709Y-46910538D01*
X186718147Y-46911109D01*
X186773938Y-46880640D01*
X186843630Y-46885619D01*
X186899567Y-46927487D01*
X186907691Y-46939802D01*
X186934515Y-46986263D01*
X187013737Y-47065485D01*
X187110763Y-47121503D01*
X187218982Y-47150500D01*
X187218984Y-47150500D01*
X187331016Y-47150500D01*
X187331018Y-47150500D01*
X187439237Y-47121503D01*
X187536263Y-47065485D01*
X187615485Y-46986263D01*
X187671503Y-46889237D01*
X187700500Y-46781018D01*
X187700500Y-46668982D01*
X187671503Y-46560763D01*
X187615485Y-46463737D01*
X187536263Y-46384515D01*
X187439237Y-46328497D01*
X187331018Y-46299500D01*
X187218982Y-46299500D01*
X187110763Y-46328497D01*
X187110760Y-46328498D01*
X187013740Y-46384513D01*
X187013730Y-46384520D01*
X187012369Y-46385882D01*
X187010938Y-46386662D01*
X187007291Y-46389462D01*
X187006854Y-46388892D01*
X186951044Y-46419363D01*
X186881352Y-46414374D01*
X186825422Y-46372498D01*
X186817313Y-46360205D01*
X186790485Y-46313737D01*
X186711263Y-46234515D01*
X186614237Y-46178497D01*
X186506018Y-46149500D01*
X186393982Y-46149500D01*
X186285763Y-46178497D01*
X186285760Y-46178498D01*
X186188740Y-46234513D01*
X186188734Y-46234517D01*
X186109517Y-46313734D01*
X186109511Y-46313743D01*
X186082152Y-46361129D01*
X186031585Y-46409344D01*
X185962978Y-46422566D01*
X185912766Y-46406515D01*
X185864239Y-46378498D01*
X185864238Y-46378497D01*
X185864237Y-46378497D01*
X185756018Y-46349500D01*
X185643982Y-46349500D01*
X185535763Y-46378497D01*
X185535760Y-46378498D01*
X185438740Y-46434513D01*
X185438733Y-46434518D01*
X185372434Y-46500816D01*
X185311110Y-46534301D01*
X185247319Y-46529737D01*
X185247088Y-46530601D01*
X185242605Y-46529399D01*
X185241419Y-46529315D01*
X185239560Y-46528584D01*
X185239238Y-46528497D01*
X185239237Y-46528497D01*
X185131018Y-46499500D01*
X185018982Y-46499500D01*
X184910763Y-46528497D01*
X184910760Y-46528498D01*
X184813740Y-46584513D01*
X184813734Y-46584517D01*
X184734517Y-46663734D01*
X184734513Y-46663740D01*
X184678498Y-46760760D01*
X184678497Y-46760763D01*
X184649500Y-46868982D01*
X154020500Y-46868982D01*
X154020500Y-45588676D01*
X154029144Y-45559235D01*
X154032463Y-45543982D01*
X176004500Y-45543982D01*
X176004500Y-45656018D01*
X176033497Y-45764237D01*
X176089515Y-45861263D01*
X176168737Y-45940485D01*
X176265763Y-45996503D01*
X176373982Y-46025500D01*
X176373984Y-46025500D01*
X176486016Y-46025500D01*
X176486018Y-46025500D01*
X176594237Y-45996503D01*
X176691263Y-45940485D01*
X176770485Y-45861263D01*
X176826503Y-45764237D01*
X176855500Y-45656018D01*
X176855500Y-45543982D01*
X187849500Y-45543982D01*
X187849500Y-45656018D01*
X187878497Y-45764237D01*
X187934515Y-45861263D01*
X188013737Y-45940485D01*
X188110763Y-45996503D01*
X188218982Y-46025500D01*
X188218984Y-46025500D01*
X188331016Y-46025500D01*
X188331018Y-46025500D01*
X188439237Y-45996503D01*
X188536263Y-45940485D01*
X188615485Y-45861263D01*
X188671503Y-45764237D01*
X188700500Y-45656018D01*
X188700500Y-45543982D01*
X188671503Y-45435763D01*
X188615485Y-45338737D01*
X188536263Y-45259515D01*
X188439237Y-45203497D01*
X188331018Y-45174500D01*
X188218982Y-45174500D01*
X188110763Y-45203497D01*
X188110760Y-45203498D01*
X188013740Y-45259513D01*
X188013734Y-45259517D01*
X187934517Y-45338734D01*
X187934513Y-45338740D01*
X187878498Y-45435760D01*
X187878497Y-45435763D01*
X187849500Y-45543982D01*
X176855500Y-45543982D01*
X176826503Y-45435763D01*
X176770485Y-45338737D01*
X176691263Y-45259515D01*
X176594237Y-45203497D01*
X176486018Y-45174500D01*
X176373982Y-45174500D01*
X176265763Y-45203497D01*
X176265760Y-45203498D01*
X176168740Y-45259513D01*
X176168734Y-45259517D01*
X176089517Y-45338734D01*
X176089513Y-45338740D01*
X176033498Y-45435760D01*
X176033497Y-45435763D01*
X176004500Y-45543982D01*
X154032463Y-45543982D01*
X154035668Y-45529249D01*
X154039422Y-45524233D01*
X154040185Y-45521637D01*
X154056819Y-45500995D01*
X154513832Y-45043982D01*
X177824500Y-45043982D01*
X177824500Y-45156018D01*
X177853497Y-45264237D01*
X177909515Y-45361263D01*
X177988737Y-45440485D01*
X178085763Y-45496503D01*
X178193982Y-45525500D01*
X178193984Y-45525500D01*
X178306016Y-45525500D01*
X178306018Y-45525500D01*
X178414237Y-45496503D01*
X178511263Y-45440485D01*
X178590485Y-45361263D01*
X178646503Y-45264237D01*
X178675500Y-45156018D01*
X178675500Y-45043982D01*
X178646503Y-44935763D01*
X178590485Y-44838737D01*
X178511263Y-44759515D01*
X178414237Y-44703497D01*
X178306018Y-44674500D01*
X178193982Y-44674500D01*
X178085763Y-44703497D01*
X178085760Y-44703498D01*
X177988740Y-44759513D01*
X177988734Y-44759517D01*
X177909517Y-44838734D01*
X177909513Y-44838740D01*
X177853498Y-44935760D01*
X177853497Y-44935763D01*
X177824500Y-45043982D01*
X154513832Y-45043982D01*
X155163832Y-44393982D01*
X186849500Y-44393982D01*
X186849500Y-44506018D01*
X186878497Y-44614237D01*
X186934515Y-44711263D01*
X187013737Y-44790485D01*
X187110763Y-44846503D01*
X187218982Y-44875500D01*
X187218984Y-44875500D01*
X187331016Y-44875500D01*
X187331018Y-44875500D01*
X187439237Y-44846503D01*
X187536263Y-44790485D01*
X187615485Y-44711263D01*
X187671503Y-44614237D01*
X187700500Y-44506018D01*
X187700500Y-44393982D01*
X187671503Y-44285763D01*
X187615485Y-44188737D01*
X187536263Y-44109515D01*
X187439237Y-44053497D01*
X187331018Y-44024500D01*
X187218982Y-44024500D01*
X187110763Y-44053497D01*
X187110760Y-44053498D01*
X187013740Y-44109513D01*
X187013734Y-44109517D01*
X186934517Y-44188734D01*
X186934513Y-44188740D01*
X186878498Y-44285760D01*
X186878497Y-44285763D01*
X186849500Y-44393982D01*
X155163832Y-44393982D01*
X156488832Y-43068982D01*
X167074500Y-43068982D01*
X167074500Y-43181018D01*
X167103497Y-43289237D01*
X167159515Y-43386263D01*
X167238737Y-43465485D01*
X167335763Y-43521503D01*
X167443982Y-43550500D01*
X167443984Y-43550500D01*
X167556016Y-43550500D01*
X167556018Y-43550500D01*
X167664237Y-43521503D01*
X167761263Y-43465485D01*
X167840485Y-43386263D01*
X167896503Y-43289237D01*
X167925500Y-43181018D01*
X167925500Y-43068982D01*
X167896503Y-42960763D01*
X167840485Y-42863737D01*
X167761263Y-42784515D01*
X167664237Y-42728497D01*
X167556018Y-42699500D01*
X167443982Y-42699500D01*
X167335763Y-42728497D01*
X167335760Y-42728498D01*
X167238740Y-42784513D01*
X167238734Y-42784517D01*
X167159517Y-42863734D01*
X167159513Y-42863740D01*
X167103498Y-42960760D01*
X167103497Y-42960763D01*
X167074500Y-43068982D01*
X156488832Y-43068982D01*
X157363832Y-42193982D01*
X210049500Y-42193982D01*
X210049500Y-42306018D01*
X210078497Y-42414237D01*
X210134515Y-42511263D01*
X210213737Y-42590485D01*
X210310763Y-42646503D01*
X210418982Y-42675500D01*
X210418984Y-42675500D01*
X210531016Y-42675500D01*
X210531018Y-42675500D01*
X210639237Y-42646503D01*
X210736263Y-42590485D01*
X210815485Y-42511263D01*
X210871503Y-42414237D01*
X210900500Y-42306018D01*
X210900500Y-42193982D01*
X210871503Y-42085763D01*
X210815485Y-41988737D01*
X210736263Y-41909515D01*
X210639237Y-41853497D01*
X210531018Y-41824500D01*
X210418982Y-41824500D01*
X210310763Y-41853497D01*
X210310760Y-41853498D01*
X210213740Y-41909513D01*
X210213734Y-41909517D01*
X210134517Y-41988734D01*
X210134513Y-41988740D01*
X210078498Y-42085760D01*
X210078497Y-42085763D01*
X210049500Y-42193982D01*
X157363832Y-42193982D01*
X157963832Y-41593982D01*
X184774500Y-41593982D01*
X184774500Y-41706018D01*
X184803497Y-41814237D01*
X184859515Y-41911263D01*
X184938737Y-41990485D01*
X185035763Y-42046503D01*
X185143982Y-42075500D01*
X185143984Y-42075500D01*
X185256016Y-42075500D01*
X185256018Y-42075500D01*
X185364237Y-42046503D01*
X185461263Y-41990485D01*
X185540485Y-41911263D01*
X185596503Y-41814237D01*
X185625500Y-41706018D01*
X185625500Y-41593982D01*
X185596503Y-41485763D01*
X185540485Y-41388737D01*
X185461263Y-41309515D01*
X185364237Y-41253497D01*
X185256018Y-41224500D01*
X185143982Y-41224500D01*
X185035763Y-41253497D01*
X185035760Y-41253498D01*
X184938740Y-41309513D01*
X184938734Y-41309517D01*
X184859517Y-41388734D01*
X184859513Y-41388740D01*
X184803498Y-41485760D01*
X184803497Y-41485763D01*
X184774500Y-41593982D01*
X157963832Y-41593982D01*
X159288832Y-40268982D01*
X182724500Y-40268982D01*
X182724500Y-40381018D01*
X182739967Y-40438740D01*
X182753497Y-40489236D01*
X182753498Y-40489239D01*
X182772169Y-40521579D01*
X182809515Y-40586263D01*
X182888737Y-40665485D01*
X182985763Y-40721503D01*
X183093982Y-40750500D01*
X183093984Y-40750500D01*
X183206016Y-40750500D01*
X183206018Y-40750500D01*
X183314237Y-40721503D01*
X183411263Y-40665485D01*
X183490485Y-40586263D01*
X183546503Y-40489237D01*
X183572026Y-40393982D01*
X186874500Y-40393982D01*
X186874500Y-40506018D01*
X186903497Y-40614237D01*
X186959515Y-40711263D01*
X187038737Y-40790485D01*
X187135763Y-40846503D01*
X187243982Y-40875500D01*
X187243984Y-40875500D01*
X187356016Y-40875500D01*
X187356018Y-40875500D01*
X187464237Y-40846503D01*
X187561263Y-40790485D01*
X187640485Y-40711263D01*
X187679330Y-40643982D01*
X208374500Y-40643982D01*
X208374500Y-40756018D01*
X208403497Y-40864237D01*
X208459515Y-40961263D01*
X208538737Y-41040485D01*
X208635763Y-41096503D01*
X208743982Y-41125500D01*
X208743984Y-41125500D01*
X208856016Y-41125500D01*
X208856018Y-41125500D01*
X208964237Y-41096503D01*
X209061263Y-41040485D01*
X209140485Y-40961263D01*
X209196503Y-40864237D01*
X209225500Y-40756018D01*
X209225500Y-40643982D01*
X209196503Y-40535763D01*
X209140485Y-40438737D01*
X209061263Y-40359515D01*
X208964237Y-40303497D01*
X208856018Y-40274500D01*
X208743982Y-40274500D01*
X208635763Y-40303497D01*
X208635760Y-40303498D01*
X208538740Y-40359513D01*
X208538734Y-40359517D01*
X208459517Y-40438734D01*
X208459513Y-40438740D01*
X208403498Y-40535760D01*
X208403497Y-40535763D01*
X208374500Y-40643982D01*
X187679330Y-40643982D01*
X187696503Y-40614237D01*
X187725500Y-40506018D01*
X187725500Y-40393982D01*
X187696503Y-40285763D01*
X187640485Y-40188737D01*
X187561263Y-40109515D01*
X187496579Y-40072169D01*
X187464239Y-40053498D01*
X187464238Y-40053497D01*
X187464237Y-40053497D01*
X187356018Y-40024500D01*
X187243982Y-40024500D01*
X187135763Y-40053497D01*
X187135760Y-40053498D01*
X187038740Y-40109513D01*
X187038734Y-40109517D01*
X186959517Y-40188734D01*
X186959513Y-40188740D01*
X186903498Y-40285760D01*
X186903497Y-40285763D01*
X186874500Y-40393982D01*
X183572026Y-40393982D01*
X183575500Y-40381018D01*
X183575500Y-40268982D01*
X183546503Y-40160763D01*
X183490485Y-40063737D01*
X183411263Y-39984515D01*
X183314237Y-39928497D01*
X183206018Y-39899500D01*
X183093982Y-39899500D01*
X182985763Y-39928497D01*
X182985760Y-39928498D01*
X182888740Y-39984513D01*
X182888734Y-39984517D01*
X182809517Y-40063734D01*
X182809513Y-40063740D01*
X182753498Y-40160760D01*
X182753497Y-40160763D01*
X182724500Y-40268982D01*
X159288832Y-40268982D01*
X159688832Y-39868982D01*
X200849500Y-39868982D01*
X200849500Y-39981018D01*
X200871665Y-40063737D01*
X200878497Y-40089236D01*
X200878498Y-40089239D01*
X200890206Y-40109517D01*
X200934515Y-40186263D01*
X201013737Y-40265485D01*
X201110763Y-40321503D01*
X201218982Y-40350500D01*
X201218984Y-40350500D01*
X201331016Y-40350500D01*
X201331018Y-40350500D01*
X201439237Y-40321503D01*
X201536263Y-40265485D01*
X201615485Y-40186263D01*
X201671503Y-40089237D01*
X201700500Y-39981018D01*
X201700500Y-39868982D01*
X201671503Y-39760763D01*
X201615485Y-39663737D01*
X201536263Y-39584515D01*
X201439237Y-39528497D01*
X201331018Y-39499500D01*
X201218982Y-39499500D01*
X201110763Y-39528497D01*
X201110760Y-39528498D01*
X201013740Y-39584513D01*
X201013734Y-39584517D01*
X200934517Y-39663734D01*
X200934513Y-39663740D01*
X200878498Y-39760760D01*
X200878497Y-39760763D01*
X200849500Y-39868982D01*
X159688832Y-39868982D01*
X160973832Y-38583982D01*
X204844500Y-38583982D01*
X204844500Y-38696018D01*
X204873497Y-38804237D01*
X204929515Y-38901263D01*
X205008737Y-38980485D01*
X205105763Y-39036503D01*
X205213982Y-39065500D01*
X205213984Y-39065500D01*
X205326016Y-39065500D01*
X205326018Y-39065500D01*
X205434237Y-39036503D01*
X205531263Y-38980485D01*
X205610485Y-38901263D01*
X205666503Y-38804237D01*
X205695500Y-38696018D01*
X205695500Y-38583982D01*
X205666503Y-38475763D01*
X205610485Y-38378737D01*
X205531263Y-38299515D01*
X205434237Y-38243497D01*
X205326018Y-38214500D01*
X205213982Y-38214500D01*
X205105763Y-38243497D01*
X205105760Y-38243498D01*
X205008740Y-38299513D01*
X205008734Y-38299517D01*
X204929517Y-38378734D01*
X204929513Y-38378740D01*
X204873498Y-38475760D01*
X204873497Y-38475763D01*
X204844500Y-38583982D01*
X160973832Y-38583982D01*
X161613832Y-37943982D01*
X210424500Y-37943982D01*
X210424500Y-38056018D01*
X210453497Y-38164237D01*
X210509515Y-38261263D01*
X210588737Y-38340485D01*
X210685763Y-38396503D01*
X210793982Y-38425500D01*
X210793984Y-38425500D01*
X210906016Y-38425500D01*
X210906018Y-38425500D01*
X211014237Y-38396503D01*
X211111263Y-38340485D01*
X211190485Y-38261263D01*
X211246503Y-38164237D01*
X211275500Y-38056018D01*
X211275500Y-37943982D01*
X211246503Y-37835763D01*
X211190485Y-37738737D01*
X211111263Y-37659515D01*
X211014237Y-37603497D01*
X210906018Y-37574500D01*
X210793982Y-37574500D01*
X210685763Y-37603497D01*
X210685760Y-37603498D01*
X210588740Y-37659513D01*
X210588734Y-37659517D01*
X210509517Y-37738734D01*
X210509513Y-37738740D01*
X210453498Y-37835760D01*
X210453497Y-37835763D01*
X210424500Y-37943982D01*
X161613832Y-37943982D01*
X165983832Y-33573982D01*
X176174500Y-33573982D01*
X176174500Y-33686018D01*
X176203497Y-33794237D01*
X176259515Y-33891263D01*
X176338737Y-33970485D01*
X176435763Y-34026503D01*
X176543982Y-34055500D01*
X176543984Y-34055500D01*
X176656016Y-34055500D01*
X176656018Y-34055500D01*
X176764237Y-34026503D01*
X176861263Y-33970485D01*
X176940485Y-33891263D01*
X176996503Y-33794237D01*
X177025500Y-33686018D01*
X177025500Y-33573982D01*
X176998705Y-33473982D01*
X178094500Y-33473982D01*
X178094500Y-33586018D01*
X178123497Y-33694237D01*
X178179515Y-33791263D01*
X178258737Y-33870485D01*
X178355763Y-33926503D01*
X178463982Y-33955500D01*
X178463984Y-33955500D01*
X178576016Y-33955500D01*
X178576018Y-33955500D01*
X178684237Y-33926503D01*
X178781263Y-33870485D01*
X178860485Y-33791263D01*
X178916503Y-33694237D01*
X178916571Y-33693982D01*
X205774500Y-33693982D01*
X205774500Y-33806018D01*
X205803497Y-33914237D01*
X205859515Y-34011263D01*
X205938737Y-34090485D01*
X206035763Y-34146503D01*
X206143982Y-34175500D01*
X206143984Y-34175500D01*
X206256016Y-34175500D01*
X206256018Y-34175500D01*
X206364237Y-34146503D01*
X206461263Y-34090485D01*
X206540485Y-34011263D01*
X206596503Y-33914237D01*
X206625500Y-33806018D01*
X206625500Y-33693982D01*
X206596503Y-33585763D01*
X206540485Y-33488737D01*
X206461263Y-33409515D01*
X206364237Y-33353497D01*
X206256018Y-33324500D01*
X206143982Y-33324500D01*
X206035763Y-33353497D01*
X206035760Y-33353498D01*
X205938740Y-33409513D01*
X205938734Y-33409517D01*
X205859517Y-33488734D01*
X205859513Y-33488740D01*
X205803498Y-33585760D01*
X205803497Y-33585763D01*
X205774500Y-33693982D01*
X178916571Y-33693982D01*
X178945500Y-33586018D01*
X178945500Y-33473982D01*
X178916503Y-33365763D01*
X178860485Y-33268737D01*
X178781263Y-33189515D01*
X178684237Y-33133497D01*
X178576018Y-33104500D01*
X178463982Y-33104500D01*
X178355763Y-33133497D01*
X178355760Y-33133498D01*
X178258740Y-33189513D01*
X178258734Y-33189517D01*
X178179517Y-33268734D01*
X178179513Y-33268740D01*
X178123498Y-33365760D01*
X178123497Y-33365763D01*
X178094500Y-33473982D01*
X176998705Y-33473982D01*
X176996503Y-33465763D01*
X176940485Y-33368737D01*
X176861263Y-33289515D01*
X176764237Y-33233497D01*
X176656018Y-33204500D01*
X176543982Y-33204500D01*
X176435763Y-33233497D01*
X176435760Y-33233498D01*
X176338740Y-33289513D01*
X176338734Y-33289517D01*
X176259517Y-33368734D01*
X176259513Y-33368740D01*
X176203498Y-33465760D01*
X176203497Y-33465763D01*
X176174500Y-33573982D01*
X165983832Y-33573982D01*
X166488832Y-33068982D01*
X183499500Y-33068982D01*
X183499500Y-33181018D01*
X183523004Y-33268734D01*
X183528497Y-33289236D01*
X183528498Y-33289239D01*
X183528659Y-33289517D01*
X183584515Y-33386263D01*
X183663737Y-33465485D01*
X183760763Y-33521503D01*
X183868982Y-33550500D01*
X183868984Y-33550500D01*
X183981016Y-33550500D01*
X183981018Y-33550500D01*
X184089237Y-33521503D01*
X184186263Y-33465485D01*
X184265485Y-33386263D01*
X184321503Y-33289237D01*
X184350500Y-33181018D01*
X184350500Y-33068982D01*
X184321503Y-32960763D01*
X184265485Y-32863737D01*
X184186263Y-32784515D01*
X184089237Y-32728497D01*
X183981018Y-32699500D01*
X183868982Y-32699500D01*
X183760763Y-32728497D01*
X183760760Y-32728498D01*
X183663740Y-32784513D01*
X183663734Y-32784517D01*
X183584517Y-32863734D01*
X183584513Y-32863740D01*
X183528498Y-32960760D01*
X183528497Y-32960763D01*
X183499500Y-33068982D01*
X166488832Y-33068982D01*
X167463832Y-32093982D01*
X178899500Y-32093982D01*
X178899500Y-32206018D01*
X178928497Y-32314237D01*
X178984515Y-32411263D01*
X179063737Y-32490485D01*
X179160763Y-32546503D01*
X179268982Y-32575500D01*
X179268984Y-32575500D01*
X179381016Y-32575500D01*
X179381018Y-32575500D01*
X179489237Y-32546503D01*
X179586263Y-32490485D01*
X179665485Y-32411263D01*
X179721503Y-32314237D01*
X179750500Y-32206018D01*
X179750500Y-32093982D01*
X179743801Y-32068982D01*
X180149500Y-32068982D01*
X180149500Y-32181018D01*
X180178497Y-32289237D01*
X180234515Y-32386263D01*
X180313737Y-32465485D01*
X180410763Y-32521503D01*
X180518982Y-32550500D01*
X180518984Y-32550500D01*
X180631016Y-32550500D01*
X180631018Y-32550500D01*
X180739237Y-32521503D01*
X180836263Y-32465485D01*
X180915485Y-32386263D01*
X180971503Y-32289237D01*
X181000500Y-32181018D01*
X181000500Y-32068982D01*
X180971503Y-31960763D01*
X180915485Y-31863737D01*
X180855730Y-31803982D01*
X192444500Y-31803982D01*
X192444500Y-31916018D01*
X192473497Y-32024237D01*
X192529515Y-32121263D01*
X192608737Y-32200485D01*
X192705763Y-32256503D01*
X192813982Y-32285500D01*
X192813984Y-32285500D01*
X192926016Y-32285500D01*
X192926018Y-32285500D01*
X193034237Y-32256503D01*
X193131263Y-32200485D01*
X193210485Y-32121263D01*
X193266503Y-32024237D01*
X193295500Y-31916018D01*
X193295500Y-31803982D01*
X193266503Y-31695763D01*
X193210485Y-31598737D01*
X193131263Y-31519515D01*
X193034237Y-31463497D01*
X192926018Y-31434500D01*
X192813982Y-31434500D01*
X192705763Y-31463497D01*
X192705760Y-31463498D01*
X192608740Y-31519513D01*
X192608734Y-31519517D01*
X192529517Y-31598734D01*
X192529513Y-31598740D01*
X192473498Y-31695760D01*
X192473497Y-31695763D01*
X192444500Y-31803982D01*
X180855730Y-31803982D01*
X180836263Y-31784515D01*
X180739237Y-31728497D01*
X180631018Y-31699500D01*
X180518982Y-31699500D01*
X180410763Y-31728497D01*
X180410760Y-31728498D01*
X180313740Y-31784513D01*
X180313734Y-31784517D01*
X180234517Y-31863734D01*
X180234513Y-31863740D01*
X180178498Y-31960760D01*
X180178497Y-31960763D01*
X180149500Y-32068982D01*
X179743801Y-32068982D01*
X179721503Y-31985763D01*
X179665485Y-31888737D01*
X179586263Y-31809515D01*
X179489237Y-31753497D01*
X179381018Y-31724500D01*
X179268982Y-31724500D01*
X179160763Y-31753497D01*
X179160760Y-31753498D01*
X179063740Y-31809513D01*
X179063734Y-31809517D01*
X178984517Y-31888734D01*
X178984513Y-31888740D01*
X178928498Y-31985760D01*
X178928498Y-31985761D01*
X178928497Y-31985763D01*
X178899500Y-32093982D01*
X167463832Y-32093982D01*
X168813832Y-30743982D01*
X178849500Y-30743982D01*
X178849500Y-30856018D01*
X178878497Y-30964237D01*
X178934515Y-31061263D01*
X179013737Y-31140485D01*
X179110763Y-31196503D01*
X179218982Y-31225500D01*
X179218984Y-31225500D01*
X179331016Y-31225500D01*
X179331018Y-31225500D01*
X179439237Y-31196503D01*
X179536263Y-31140485D01*
X179615485Y-31061263D01*
X179671503Y-30964237D01*
X179700500Y-30856018D01*
X179700500Y-30768982D01*
X180099500Y-30768982D01*
X180099500Y-30881018D01*
X180128497Y-30989237D01*
X180184515Y-31086263D01*
X180263737Y-31165485D01*
X180360763Y-31221503D01*
X180468982Y-31250500D01*
X180468984Y-31250500D01*
X180581016Y-31250500D01*
X180581018Y-31250500D01*
X180689237Y-31221503D01*
X180786263Y-31165485D01*
X180865485Y-31086263D01*
X180921503Y-30989237D01*
X180950500Y-30881018D01*
X180950500Y-30768982D01*
X180921503Y-30660763D01*
X180865485Y-30563737D01*
X180786263Y-30484515D01*
X180689237Y-30428497D01*
X180581018Y-30399500D01*
X180468982Y-30399500D01*
X180360763Y-30428497D01*
X180360760Y-30428498D01*
X180263740Y-30484513D01*
X180263734Y-30484517D01*
X180184517Y-30563734D01*
X180184513Y-30563740D01*
X180128498Y-30660760D01*
X180128497Y-30660763D01*
X180099500Y-30768982D01*
X179700500Y-30768982D01*
X179700500Y-30743982D01*
X179671503Y-30635763D01*
X179615485Y-30538737D01*
X179536263Y-30459515D01*
X179439237Y-30403497D01*
X179331018Y-30374500D01*
X179218982Y-30374500D01*
X179110763Y-30403497D01*
X179110760Y-30403498D01*
X179013740Y-30459513D01*
X179013734Y-30459517D01*
X178934517Y-30538734D01*
X178934513Y-30538740D01*
X178878498Y-30635760D01*
X178878497Y-30635763D01*
X178849500Y-30743982D01*
X168813832Y-30743982D01*
X169668832Y-29888982D01*
X194969500Y-29888982D01*
X194969500Y-30001018D01*
X194998497Y-30109237D01*
X195054515Y-30206263D01*
X195133737Y-30285485D01*
X195230763Y-30341503D01*
X195338982Y-30370500D01*
X195338984Y-30370500D01*
X195451016Y-30370500D01*
X195451018Y-30370500D01*
X195559237Y-30341503D01*
X195656263Y-30285485D01*
X195735485Y-30206263D01*
X195791503Y-30109237D01*
X195820500Y-30001018D01*
X195820500Y-29888982D01*
X195791503Y-29780763D01*
X195735485Y-29683737D01*
X195656263Y-29604515D01*
X195559237Y-29548497D01*
X195451018Y-29519500D01*
X195338982Y-29519500D01*
X195230763Y-29548497D01*
X195230760Y-29548498D01*
X195133740Y-29604513D01*
X195133734Y-29604517D01*
X195054517Y-29683734D01*
X195054513Y-29683740D01*
X194998498Y-29780760D01*
X194998497Y-29780763D01*
X194969500Y-29888982D01*
X169668832Y-29888982D01*
X170168832Y-29388982D01*
X196219500Y-29388982D01*
X196219500Y-29501018D01*
X196248497Y-29609237D01*
X196304515Y-29706263D01*
X196383737Y-29785485D01*
X196480763Y-29841503D01*
X196588982Y-29870500D01*
X196588984Y-29870500D01*
X196701016Y-29870500D01*
X196701018Y-29870500D01*
X196809237Y-29841503D01*
X196906263Y-29785485D01*
X196985485Y-29706263D01*
X197041503Y-29609237D01*
X197070500Y-29501018D01*
X197070500Y-29388982D01*
X197041503Y-29280763D01*
X196985485Y-29183737D01*
X196906263Y-29104515D01*
X196809237Y-29048497D01*
X196701018Y-29019500D01*
X196588982Y-29019500D01*
X196480763Y-29048497D01*
X196480760Y-29048498D01*
X196383740Y-29104513D01*
X196383734Y-29104517D01*
X196304517Y-29183734D01*
X196304513Y-29183740D01*
X196248498Y-29280760D01*
X196248497Y-29280763D01*
X196219500Y-29388982D01*
X170168832Y-29388982D01*
X171313832Y-28243982D01*
X183299500Y-28243982D01*
X183299500Y-28356018D01*
X183328497Y-28464237D01*
X183384515Y-28561263D01*
X183463737Y-28640485D01*
X183560763Y-28696503D01*
X183668982Y-28725500D01*
X183668984Y-28725500D01*
X183781016Y-28725500D01*
X183781018Y-28725500D01*
X183889237Y-28696503D01*
X183986263Y-28640485D01*
X184065485Y-28561263D01*
X184121503Y-28464237D01*
X184150500Y-28356018D01*
X184150500Y-28243982D01*
X184121503Y-28135763D01*
X184065485Y-28038737D01*
X183986263Y-27959515D01*
X183889237Y-27903497D01*
X183781018Y-27874500D01*
X183668982Y-27874500D01*
X183560763Y-27903497D01*
X183560760Y-27903498D01*
X183463740Y-27959513D01*
X183463734Y-27959517D01*
X183384517Y-28038734D01*
X183384513Y-28038740D01*
X183328498Y-28135760D01*
X183328497Y-28135763D01*
X183299500Y-28243982D01*
X171313832Y-28243982D01*
X174193520Y-25364294D01*
X174254843Y-25330809D01*
X174281201Y-25327975D01*
X202758799Y-25327975D01*
X202825838Y-25347660D01*
G37*
%TD.AperFunction*%
%TD*%
M02*
