%TF.GenerationSoftware,KiCad,Pcbnew,10.0.6*%
%TF.CreationDate,2026-10-08T09:48:25+02:00*%
%TF.ProjectId,HAL_95,48414c5f-3935-42e6-9b69-6361645f7063,rev?*%
%TF.SameCoordinates,Original*%
%TF.FileFunction,Legend,Bot*%
%TF.FilePolarity,Positive*%
%FSLAX46Y46*%
G04 Gerber Fmt 4.6, Leading zero omitted, Abs format (unit mm)*
G04 Created by KiCad (PCBNEW 10.0.6) date 2026-10-08 09:48:25*
%MOMM*%
%LPD*%
G01*
G04 APERTURE LIST*
%ADD10C,0.375000*%
%ADD11C,0.000000*%
G04 APERTURE END LIST*
D10*
X164568562Y-56911088D02*
X163068562Y-56911088D01*
X163782848Y-56911088D02*
X163782848Y-57768231D01*
X164568562Y-57768231D02*
X163068562Y-57768231D01*
X164139991Y-58411089D02*
X164139991Y-59125375D01*
X164568562Y-58268232D02*
X163068562Y-58768232D01*
X163068562Y-58768232D02*
X164568562Y-59268232D01*
X164568562Y-60482517D02*
X164568562Y-59768231D01*
X164568562Y-59768231D02*
X163068562Y-59768231D01*
X164568562Y-62196803D02*
X164568562Y-62482517D01*
X164568562Y-62482517D02*
X164497134Y-62625374D01*
X164497134Y-62625374D02*
X164425705Y-62696803D01*
X164425705Y-62696803D02*
X164211419Y-62839660D01*
X164211419Y-62839660D02*
X163925705Y-62911089D01*
X163925705Y-62911089D02*
X163354276Y-62911089D01*
X163354276Y-62911089D02*
X163211419Y-62839660D01*
X163211419Y-62839660D02*
X163139991Y-62768232D01*
X163139991Y-62768232D02*
X163068562Y-62625374D01*
X163068562Y-62625374D02*
X163068562Y-62339660D01*
X163068562Y-62339660D02*
X163139991Y-62196803D01*
X163139991Y-62196803D02*
X163211419Y-62125374D01*
X163211419Y-62125374D02*
X163354276Y-62053946D01*
X163354276Y-62053946D02*
X163711419Y-62053946D01*
X163711419Y-62053946D02*
X163854276Y-62125374D01*
X163854276Y-62125374D02*
X163925705Y-62196803D01*
X163925705Y-62196803D02*
X163997134Y-62339660D01*
X163997134Y-62339660D02*
X163997134Y-62625374D01*
X163997134Y-62625374D02*
X163925705Y-62768232D01*
X163925705Y-62768232D02*
X163854276Y-62839660D01*
X163854276Y-62839660D02*
X163711419Y-62911089D01*
X163068562Y-64268231D02*
X163068562Y-63553945D01*
X163068562Y-63553945D02*
X163782848Y-63482517D01*
X163782848Y-63482517D02*
X163711419Y-63553945D01*
X163711419Y-63553945D02*
X163639991Y-63696803D01*
X163639991Y-63696803D02*
X163639991Y-64053945D01*
X163639991Y-64053945D02*
X163711419Y-64196803D01*
X163711419Y-64196803D02*
X163782848Y-64268231D01*
X163782848Y-64268231D02*
X163925705Y-64339660D01*
X163925705Y-64339660D02*
X164282848Y-64339660D01*
X164282848Y-64339660D02*
X164425705Y-64268231D01*
X164425705Y-64268231D02*
X164497134Y-64196803D01*
X164497134Y-64196803D02*
X164568562Y-64053945D01*
X164568562Y-64053945D02*
X164568562Y-63696803D01*
X164568562Y-63696803D02*
X164497134Y-63553945D01*
X164497134Y-63553945D02*
X164425705Y-63482517D01*
X163997134Y-66125373D02*
X163997134Y-67268231D01*
X163782848Y-69125373D02*
X163782848Y-69625373D01*
X164568562Y-69839659D02*
X164568562Y-69125373D01*
X164568562Y-69125373D02*
X163068562Y-69125373D01*
X163068562Y-69125373D02*
X163068562Y-69839659D01*
X164497134Y-70411088D02*
X164568562Y-70625374D01*
X164568562Y-70625374D02*
X164568562Y-70982516D01*
X164568562Y-70982516D02*
X164497134Y-71125374D01*
X164497134Y-71125374D02*
X164425705Y-71196802D01*
X164425705Y-71196802D02*
X164282848Y-71268231D01*
X164282848Y-71268231D02*
X164139991Y-71268231D01*
X164139991Y-71268231D02*
X163997134Y-71196802D01*
X163997134Y-71196802D02*
X163925705Y-71125374D01*
X163925705Y-71125374D02*
X163854276Y-70982516D01*
X163854276Y-70982516D02*
X163782848Y-70696802D01*
X163782848Y-70696802D02*
X163711419Y-70553945D01*
X163711419Y-70553945D02*
X163639991Y-70482516D01*
X163639991Y-70482516D02*
X163497134Y-70411088D01*
X163497134Y-70411088D02*
X163354276Y-70411088D01*
X163354276Y-70411088D02*
X163211419Y-70482516D01*
X163211419Y-70482516D02*
X163139991Y-70553945D01*
X163139991Y-70553945D02*
X163068562Y-70696802D01*
X163068562Y-70696802D02*
X163068562Y-71053945D01*
X163068562Y-71053945D02*
X163139991Y-71268231D01*
X163782848Y-71911087D02*
X163782848Y-72411087D01*
X164568562Y-72625373D02*
X164568562Y-71911087D01*
X164568562Y-71911087D02*
X163068562Y-71911087D01*
X163068562Y-71911087D02*
X163068562Y-72625373D01*
X163211419Y-74339659D02*
X163139991Y-74411087D01*
X163139991Y-74411087D02*
X163068562Y-74553945D01*
X163068562Y-74553945D02*
X163068562Y-74911087D01*
X163068562Y-74911087D02*
X163139991Y-75053945D01*
X163139991Y-75053945D02*
X163211419Y-75125373D01*
X163211419Y-75125373D02*
X163354276Y-75196802D01*
X163354276Y-75196802D02*
X163497134Y-75196802D01*
X163497134Y-75196802D02*
X163711419Y-75125373D01*
X163711419Y-75125373D02*
X164568562Y-74268230D01*
X164568562Y-74268230D02*
X164568562Y-75196802D01*
X163068562Y-76482516D02*
X163068562Y-76196801D01*
X163068562Y-76196801D02*
X163139991Y-76053944D01*
X163139991Y-76053944D02*
X163211419Y-75982516D01*
X163211419Y-75982516D02*
X163425705Y-75839658D01*
X163425705Y-75839658D02*
X163711419Y-75768230D01*
X163711419Y-75768230D02*
X164282848Y-75768230D01*
X164282848Y-75768230D02*
X164425705Y-75839658D01*
X164425705Y-75839658D02*
X164497134Y-75911087D01*
X164497134Y-75911087D02*
X164568562Y-76053944D01*
X164568562Y-76053944D02*
X164568562Y-76339658D01*
X164568562Y-76339658D02*
X164497134Y-76482516D01*
X164497134Y-76482516D02*
X164425705Y-76553944D01*
X164425705Y-76553944D02*
X164282848Y-76625373D01*
X164282848Y-76625373D02*
X163925705Y-76625373D01*
X163925705Y-76625373D02*
X163782848Y-76553944D01*
X163782848Y-76553944D02*
X163711419Y-76482516D01*
X163711419Y-76482516D02*
X163639991Y-76339658D01*
X163639991Y-76339658D02*
X163639991Y-76053944D01*
X163639991Y-76053944D02*
X163711419Y-75911087D01*
X163711419Y-75911087D02*
X163782848Y-75839658D01*
X163782848Y-75839658D02*
X163925705Y-75768230D01*
X163211419Y-77196801D02*
X163139991Y-77268229D01*
X163139991Y-77268229D02*
X163068562Y-77411087D01*
X163068562Y-77411087D02*
X163068562Y-77768229D01*
X163068562Y-77768229D02*
X163139991Y-77911087D01*
X163139991Y-77911087D02*
X163211419Y-77982515D01*
X163211419Y-77982515D02*
X163354276Y-78053944D01*
X163354276Y-78053944D02*
X163497134Y-78053944D01*
X163497134Y-78053944D02*
X163711419Y-77982515D01*
X163711419Y-77982515D02*
X164568562Y-77125372D01*
X164568562Y-77125372D02*
X164568562Y-78053944D01*
X163068562Y-78553943D02*
X163068562Y-79553943D01*
X163068562Y-79553943D02*
X164568562Y-78911086D01*
X165983478Y-56911088D02*
X167269192Y-56911088D01*
X167269192Y-56911088D02*
X167412050Y-56839660D01*
X167412050Y-56839660D02*
X167483478Y-56696803D01*
X167483478Y-56696803D02*
X167483478Y-56625374D01*
X165483478Y-56911088D02*
X165554907Y-56839660D01*
X165554907Y-56839660D02*
X165626335Y-56911088D01*
X165626335Y-56911088D02*
X165554907Y-56982517D01*
X165554907Y-56982517D02*
X165483478Y-56911088D01*
X165483478Y-56911088D02*
X165626335Y-56911088D01*
X165983478Y-57625374D02*
X167483478Y-57625374D01*
X166054907Y-57625374D02*
X165983478Y-57768232D01*
X165983478Y-57768232D02*
X165983478Y-58053946D01*
X165983478Y-58053946D02*
X166054907Y-58196803D01*
X166054907Y-58196803D02*
X166126335Y-58268232D01*
X166126335Y-58268232D02*
X166269192Y-58339660D01*
X166269192Y-58339660D02*
X166697764Y-58339660D01*
X166697764Y-58339660D02*
X166840621Y-58268232D01*
X166840621Y-58268232D02*
X166912050Y-58196803D01*
X166912050Y-58196803D02*
X166983478Y-58053946D01*
X166983478Y-58053946D02*
X166983478Y-57768232D01*
X166983478Y-57768232D02*
X166912050Y-57625374D01*
X166412050Y-60125374D02*
X166412050Y-61268232D01*
X165983478Y-62982517D02*
X166983478Y-63339660D01*
X165983478Y-63696803D02*
X166983478Y-63339660D01*
X166983478Y-63339660D02*
X167340621Y-63196803D01*
X167340621Y-63196803D02*
X167412050Y-63125374D01*
X167412050Y-63125374D02*
X167483478Y-62982517D01*
X166983478Y-64911089D02*
X166197764Y-64911089D01*
X166197764Y-64911089D02*
X166054907Y-64839660D01*
X166054907Y-64839660D02*
X165983478Y-64696803D01*
X165983478Y-64696803D02*
X165983478Y-64411089D01*
X165983478Y-64411089D02*
X166054907Y-64268231D01*
X166912050Y-64911089D02*
X166983478Y-64768231D01*
X166983478Y-64768231D02*
X166983478Y-64411089D01*
X166983478Y-64411089D02*
X166912050Y-64268231D01*
X166912050Y-64268231D02*
X166769192Y-64196803D01*
X166769192Y-64196803D02*
X166626335Y-64196803D01*
X166626335Y-64196803D02*
X166483478Y-64268231D01*
X166483478Y-64268231D02*
X166412050Y-64411089D01*
X166412050Y-64411089D02*
X166412050Y-64768231D01*
X166412050Y-64768231D02*
X166340621Y-64911089D01*
X166983478Y-65625374D02*
X165483478Y-65625374D01*
X166983478Y-66268232D02*
X166197764Y-66268232D01*
X166197764Y-66268232D02*
X166054907Y-66196803D01*
X166054907Y-66196803D02*
X165983478Y-66053946D01*
X165983478Y-66053946D02*
X165983478Y-65839660D01*
X165983478Y-65839660D02*
X166054907Y-65696803D01*
X166054907Y-65696803D02*
X166126335Y-65625374D01*
X165983478Y-66839660D02*
X166983478Y-67196803D01*
X165983478Y-67553946D02*
X166983478Y-67196803D01*
X166983478Y-67196803D02*
X167340621Y-67053946D01*
X167340621Y-67053946D02*
X167412050Y-66982517D01*
X167412050Y-66982517D02*
X167483478Y-66839660D01*
X166983478Y-68768232D02*
X166197764Y-68768232D01*
X166197764Y-68768232D02*
X166054907Y-68696803D01*
X166054907Y-68696803D02*
X165983478Y-68553946D01*
X165983478Y-68553946D02*
X165983478Y-68268232D01*
X165983478Y-68268232D02*
X166054907Y-68125374D01*
X166912050Y-68768232D02*
X166983478Y-68625374D01*
X166983478Y-68625374D02*
X166983478Y-68268232D01*
X166983478Y-68268232D02*
X166912050Y-68125374D01*
X166912050Y-68125374D02*
X166769192Y-68053946D01*
X166769192Y-68053946D02*
X166626335Y-68053946D01*
X166626335Y-68053946D02*
X166483478Y-68125374D01*
X166483478Y-68125374D02*
X166412050Y-68268232D01*
X166412050Y-68268232D02*
X166412050Y-68625374D01*
X166412050Y-68625374D02*
X166340621Y-68768232D01*
X166412050Y-70625374D02*
X166412050Y-71768232D01*
X166983478Y-73625374D02*
X165483478Y-73625374D01*
X166054907Y-73625374D02*
X165983478Y-73768232D01*
X165983478Y-73768232D02*
X165983478Y-74053946D01*
X165983478Y-74053946D02*
X166054907Y-74196803D01*
X166054907Y-74196803D02*
X166126335Y-74268232D01*
X166126335Y-74268232D02*
X166269192Y-74339660D01*
X166269192Y-74339660D02*
X166697764Y-74339660D01*
X166697764Y-74339660D02*
X166840621Y-74268232D01*
X166840621Y-74268232D02*
X166912050Y-74196803D01*
X166912050Y-74196803D02*
X166983478Y-74053946D01*
X166983478Y-74053946D02*
X166983478Y-73768232D01*
X166983478Y-73768232D02*
X166912050Y-73625374D01*
X166983478Y-74982517D02*
X165983478Y-74982517D01*
X165483478Y-74982517D02*
X165554907Y-74911089D01*
X165554907Y-74911089D02*
X165626335Y-74982517D01*
X165626335Y-74982517D02*
X165554907Y-75053946D01*
X165554907Y-75053946D02*
X165483478Y-74982517D01*
X165483478Y-74982517D02*
X165626335Y-74982517D01*
X166983478Y-75911089D02*
X166912050Y-75768232D01*
X166912050Y-75768232D02*
X166769192Y-75696803D01*
X166769192Y-75696803D02*
X165483478Y-75696803D01*
X166983478Y-77125375D02*
X166197764Y-77125375D01*
X166197764Y-77125375D02*
X166054907Y-77053946D01*
X166054907Y-77053946D02*
X165983478Y-76911089D01*
X165983478Y-76911089D02*
X165983478Y-76625375D01*
X165983478Y-76625375D02*
X166054907Y-76482517D01*
X166912050Y-77125375D02*
X166983478Y-76982517D01*
X166983478Y-76982517D02*
X166983478Y-76625375D01*
X166983478Y-76625375D02*
X166912050Y-76482517D01*
X166912050Y-76482517D02*
X166769192Y-76411089D01*
X166769192Y-76411089D02*
X166626335Y-76411089D01*
X166626335Y-76411089D02*
X166483478Y-76482517D01*
X166483478Y-76482517D02*
X166412050Y-76625375D01*
X166412050Y-76625375D02*
X166412050Y-76982517D01*
X166412050Y-76982517D02*
X166340621Y-77125375D01*
X166983478Y-78053946D02*
X166912050Y-77911089D01*
X166912050Y-77911089D02*
X166769192Y-77839660D01*
X166769192Y-77839660D02*
X165483478Y-77839660D01*
X168398394Y-56768231D02*
X169398394Y-57125374D01*
X169398394Y-57125374D02*
X168398394Y-57482517D01*
X169398394Y-58839660D02*
X169398394Y-57982517D01*
X169398394Y-58411088D02*
X167898394Y-58411088D01*
X167898394Y-58411088D02*
X168112680Y-58268231D01*
X168112680Y-58268231D02*
X168255537Y-58125374D01*
X168255537Y-58125374D02*
X168326966Y-57982517D01*
X169255537Y-59482516D02*
X169326966Y-59553945D01*
X169326966Y-59553945D02*
X169398394Y-59482516D01*
X169398394Y-59482516D02*
X169326966Y-59411088D01*
X169326966Y-59411088D02*
X169255537Y-59482516D01*
X169255537Y-59482516D02*
X169398394Y-59482516D01*
X167898394Y-60482517D02*
X167898394Y-60625374D01*
X167898394Y-60625374D02*
X167969823Y-60768231D01*
X167969823Y-60768231D02*
X168041251Y-60839660D01*
X168041251Y-60839660D02*
X168184108Y-60911088D01*
X168184108Y-60911088D02*
X168469823Y-60982517D01*
X168469823Y-60982517D02*
X168826966Y-60982517D01*
X168826966Y-60982517D02*
X169112680Y-60911088D01*
X169112680Y-60911088D02*
X169255537Y-60839660D01*
X169255537Y-60839660D02*
X169326966Y-60768231D01*
X169326966Y-60768231D02*
X169398394Y-60625374D01*
X169398394Y-60625374D02*
X169398394Y-60482517D01*
X169398394Y-60482517D02*
X169326966Y-60339660D01*
X169326966Y-60339660D02*
X169255537Y-60268231D01*
X169255537Y-60268231D02*
X169112680Y-60196802D01*
X169112680Y-60196802D02*
X168826966Y-60125374D01*
X168826966Y-60125374D02*
X168469823Y-60125374D01*
X168469823Y-60125374D02*
X168184108Y-60196802D01*
X168184108Y-60196802D02*
X168041251Y-60268231D01*
X168041251Y-60268231D02*
X167969823Y-60339660D01*
X167969823Y-60339660D02*
X167898394Y-60482517D01*
D11*
%TO.C,G\u002A\u002A\u002A*%
G36*
X201921154Y-70002436D02*
G01*
X202210200Y-70177507D01*
X202242336Y-70210042D01*
X202413147Y-70499099D01*
X202445129Y-70815976D01*
X202350092Y-71119372D01*
X202139846Y-71367981D01*
X201826201Y-71520502D01*
X201745350Y-71534718D01*
X201452220Y-71491988D01*
X201192894Y-71327051D01*
X200998842Y-71076927D01*
X200901537Y-70778635D01*
X200932451Y-70469195D01*
X201046534Y-70258831D01*
X201293649Y-70053525D01*
X201600414Y-69964584D01*
X201921154Y-70002436D01*
G37*
G36*
X190602629Y-50476667D02*
G01*
X190933000Y-50476667D01*
X190933000Y-51365667D01*
X190933000Y-52254667D01*
X190044000Y-52254667D01*
X189155000Y-52254667D01*
X189155000Y-51365667D01*
X189155000Y-50857667D01*
X189556558Y-50857667D01*
X189556862Y-51365667D01*
X189557167Y-51873667D01*
X190054583Y-51873667D01*
X190552000Y-51873667D01*
X190577314Y-51340352D01*
X190602629Y-50807038D01*
X190079593Y-50832352D01*
X189556558Y-50857667D01*
X189155000Y-50857667D01*
X189155000Y-50476667D01*
X190044000Y-50476667D01*
X190602629Y-50476667D01*
G37*
G36*
X201973353Y-48139264D02*
G01*
X201999502Y-48150664D01*
X202214359Y-48278281D01*
X202351779Y-48415567D01*
X202361505Y-48434116D01*
X202419874Y-48637473D01*
X202445092Y-48893209D01*
X202443689Y-48946435D01*
X202352580Y-49255744D01*
X202146768Y-49484401D01*
X201864476Y-49613500D01*
X201543931Y-49624139D01*
X201223356Y-49497413D01*
X201085176Y-49383995D01*
X200927119Y-49126170D01*
X200893568Y-48841545D01*
X200966809Y-48562199D01*
X201129124Y-48320216D01*
X201362798Y-48147678D01*
X201650113Y-48076666D01*
X201973353Y-48139264D01*
G37*
G36*
X193842582Y-67077478D02*
G01*
X194008258Y-67264781D01*
X194065667Y-67537000D01*
X194053218Y-67661630D01*
X193933367Y-67916278D01*
X193721618Y-68088745D01*
X193461587Y-68162617D01*
X193196890Y-68121478D01*
X192971145Y-67948915D01*
X192826152Y-67673570D01*
X192824212Y-67537000D01*
X193134333Y-67537000D01*
X193137530Y-67557482D01*
X193228494Y-67669874D01*
X193383113Y-67761035D01*
X193517783Y-67778344D01*
X193593939Y-67708455D01*
X193642333Y-67537000D01*
X193642218Y-67527141D01*
X193579086Y-67346230D01*
X193435556Y-67288953D01*
X193263783Y-67377312D01*
X193186330Y-67460815D01*
X193134333Y-67537000D01*
X192824212Y-67537000D01*
X192821882Y-67373009D01*
X192979758Y-67097957D01*
X192988295Y-67089031D01*
X193246942Y-66930795D01*
X193435556Y-66928172D01*
X193542844Y-66926680D01*
X193842582Y-67077478D01*
G37*
G36*
X190509663Y-53228331D02*
G01*
X190706373Y-53359823D01*
X190841550Y-53503498D01*
X190860037Y-53543598D01*
X190909375Y-53753746D01*
X190930425Y-54018013D01*
X190896670Y-54287965D01*
X190733883Y-54601157D01*
X190456575Y-54805953D01*
X190087280Y-54879333D01*
X190075075Y-54879305D01*
X189714391Y-54838563D01*
X189464475Y-54705442D01*
X189282876Y-54457694D01*
X189186513Y-54201087D01*
X189176122Y-53977470D01*
X189576375Y-53977470D01*
X189628479Y-54225993D01*
X189766505Y-54408866D01*
X189967433Y-54515044D01*
X190189871Y-54510220D01*
X190410241Y-54344710D01*
X190553099Y-54147164D01*
X190575403Y-53930478D01*
X190441050Y-53692796D01*
X190430845Y-53680660D01*
X190209511Y-53537062D01*
X189942939Y-53510390D01*
X189705594Y-53609117D01*
X189615812Y-53737065D01*
X189576375Y-53977470D01*
X189176122Y-53977470D01*
X189169835Y-53842170D01*
X189280898Y-53529040D01*
X189495058Y-53286394D01*
X189787670Y-53138929D01*
X189942939Y-53126564D01*
X190134086Y-53111342D01*
X190509663Y-53228331D01*
G37*
G36*
X179817006Y-58121253D02*
G01*
X180281918Y-58362713D01*
X180405542Y-58466229D01*
X180650342Y-58748925D01*
X180854421Y-59075228D01*
X180969375Y-59373938D01*
X180993306Y-59627239D01*
X180965868Y-60018074D01*
X180883654Y-60402784D01*
X180759374Y-60701047D01*
X180553729Y-60971532D01*
X180150193Y-61297111D01*
X179676795Y-61493309D01*
X179167888Y-61547904D01*
X178657828Y-61448675D01*
X178362989Y-61342232D01*
X178596758Y-61283560D01*
X178777808Y-61190598D01*
X178967232Y-60938212D01*
X178983368Y-60904117D01*
X179054631Y-60715653D01*
X179041489Y-60567542D01*
X178939518Y-60368935D01*
X178892094Y-60292876D01*
X178722504Y-60123173D01*
X178489383Y-60058708D01*
X178185430Y-60076530D01*
X177906822Y-60213123D01*
X177739274Y-60458984D01*
X177706296Y-60549007D01*
X177666346Y-60599735D01*
X177623768Y-60522299D01*
X177558431Y-60298876D01*
X177554547Y-60284596D01*
X177489678Y-59762526D01*
X177568297Y-59280970D01*
X177768327Y-58855620D01*
X178067693Y-58502170D01*
X178444319Y-58236315D01*
X178876130Y-58073748D01*
X179341051Y-58030163D01*
X179817006Y-58121253D01*
G37*
G36*
X186191667Y-59790000D02*
G01*
X186191667Y-72405333D01*
X185054793Y-72405333D01*
X184926885Y-72404853D01*
X183388563Y-72319187D01*
X181930694Y-72085065D01*
X180549966Y-71701148D01*
X179243069Y-71166100D01*
X178006692Y-70478583D01*
X176837523Y-69637262D01*
X175732253Y-68640799D01*
X174797368Y-67615140D01*
X173949493Y-66465985D01*
X173260682Y-65261831D01*
X172728748Y-63997417D01*
X172351504Y-62667481D01*
X172126761Y-61266762D01*
X172052333Y-59790000D01*
X172079931Y-59183881D01*
X172819864Y-59183881D01*
X172822709Y-60462559D01*
X172951635Y-61720932D01*
X173208033Y-62922667D01*
X173648520Y-64220213D01*
X174237362Y-65457635D01*
X174958585Y-66605049D01*
X175802303Y-67654713D01*
X176758632Y-68598888D01*
X177817684Y-69429830D01*
X178969577Y-70139800D01*
X180204423Y-70721055D01*
X181512338Y-71165854D01*
X182883437Y-71466455D01*
X184307833Y-71615118D01*
X185429667Y-71669448D01*
X185429667Y-59803057D01*
X185429667Y-47936667D01*
X184731167Y-47938218D01*
X183759780Y-47986212D01*
X182469760Y-48180576D01*
X181183370Y-48514835D01*
X179937534Y-48978929D01*
X178769177Y-49562795D01*
X178309603Y-49837348D01*
X177510686Y-50383887D01*
X176770571Y-50995792D01*
X176030102Y-51719646D01*
X175640288Y-52147240D01*
X174776570Y-53268941D01*
X174055767Y-54480582D01*
X173481280Y-55776745D01*
X173186862Y-56710940D01*
X172941711Y-57921230D01*
X172819864Y-59183881D01*
X172079931Y-59183881D01*
X172111930Y-58481103D01*
X172324476Y-57061541D01*
X172691951Y-55709877D01*
X173215255Y-54423944D01*
X173895286Y-53201581D01*
X174732943Y-52040623D01*
X175729125Y-50938907D01*
X175750771Y-50917365D01*
X176862666Y-49925357D01*
X178046768Y-49086242D01*
X179303631Y-48399796D01*
X180633813Y-47865794D01*
X182037870Y-47484013D01*
X183516358Y-47254229D01*
X185069833Y-47176218D01*
X185429667Y-47175721D01*
X186191667Y-47174667D01*
X186191667Y-59790000D01*
G37*
G36*
X179410402Y-56154944D02*
G01*
X179486459Y-56157520D01*
X180230686Y-56288141D01*
X180922663Y-56566422D01*
X181542983Y-56977488D01*
X182072239Y-57506466D01*
X182491024Y-58138484D01*
X182779932Y-58858667D01*
X182785553Y-58879007D01*
X182845677Y-59259389D01*
X182861458Y-59732418D01*
X182836015Y-60233355D01*
X182772465Y-60697461D01*
X182673925Y-61060000D01*
X182466108Y-61502334D01*
X182034711Y-62131341D01*
X181501892Y-62648536D01*
X180887813Y-63044521D01*
X180212637Y-63309899D01*
X179496523Y-63435270D01*
X178759636Y-63411237D01*
X178022135Y-63228401D01*
X177369411Y-62932787D01*
X176785138Y-62517414D01*
X176308055Y-61984286D01*
X175916825Y-61314000D01*
X175864477Y-61202872D01*
X175767094Y-60973952D01*
X175705714Y-60765695D01*
X175672226Y-60530610D01*
X175658516Y-60221208D01*
X175657231Y-59950318D01*
X176004892Y-59950318D01*
X176106029Y-60614657D01*
X176337608Y-61231333D01*
X176686178Y-61783542D01*
X177138291Y-62254483D01*
X177680495Y-62627352D01*
X178299340Y-62885346D01*
X178981377Y-63011664D01*
X179713155Y-62989502D01*
X180108406Y-62907491D01*
X180756466Y-62646811D01*
X181341175Y-62254116D01*
X181831264Y-61752394D01*
X182195465Y-61164630D01*
X182279615Y-60952187D01*
X182406558Y-60412742D01*
X182456124Y-59817159D01*
X182425196Y-59231554D01*
X182310655Y-58722044D01*
X182134313Y-58312958D01*
X181751219Y-57738367D01*
X181264282Y-57269649D01*
X180696502Y-56914438D01*
X180070876Y-56680369D01*
X179410402Y-56575080D01*
X178738077Y-56606204D01*
X178076900Y-56781377D01*
X177449868Y-57108235D01*
X176952018Y-57504240D01*
X176520485Y-58019518D01*
X176217971Y-58623098D01*
X176047647Y-59255119D01*
X176004892Y-59950318D01*
X175657231Y-59950318D01*
X175656471Y-59790000D01*
X175658858Y-59495394D01*
X175672731Y-59121070D01*
X175704189Y-58844853D01*
X175759229Y-58622579D01*
X175843848Y-58410085D01*
X176056766Y-58001469D01*
X176525251Y-57360622D01*
X177092918Y-56845264D01*
X177745143Y-56465117D01*
X178467304Y-56229899D01*
X179244776Y-56149333D01*
X179410402Y-56154944D01*
G37*
G36*
X179558606Y-54771172D02*
G01*
X179943816Y-54787700D01*
X180250010Y-54826537D01*
X180535267Y-54896511D01*
X180857667Y-55006447D01*
X181537171Y-55304981D01*
X182325900Y-55799366D01*
X182995461Y-56403298D01*
X183537121Y-57106940D01*
X183942147Y-57900453D01*
X184201807Y-58774000D01*
X184272296Y-59212076D01*
X184300142Y-60126761D01*
X184164331Y-61008244D01*
X183868103Y-61845904D01*
X183414696Y-62629116D01*
X182807350Y-63347258D01*
X182291765Y-63805396D01*
X181527363Y-64303781D01*
X180707221Y-64642689D01*
X179833722Y-64821208D01*
X178909248Y-64838427D01*
X178762679Y-64826892D01*
X177892035Y-64677462D01*
X177103060Y-64388921D01*
X176374553Y-63951516D01*
X175685315Y-63355496D01*
X175179564Y-62770953D01*
X174706521Y-62008244D01*
X174381760Y-61197628D01*
X174205591Y-60357050D01*
X174189000Y-59838282D01*
X174936969Y-59838282D01*
X175026696Y-60653666D01*
X175259205Y-61416020D01*
X175626777Y-62128198D01*
X176101904Y-62738214D01*
X176666817Y-63240878D01*
X177303747Y-63630998D01*
X177994925Y-63903383D01*
X178722581Y-64052840D01*
X179468946Y-64074179D01*
X180216250Y-63962209D01*
X180946724Y-63711738D01*
X181642599Y-63317574D01*
X182286105Y-62774526D01*
X182394802Y-62661584D01*
X182868805Y-62069009D01*
X183207374Y-61433916D01*
X183438251Y-60706513D01*
X183442051Y-60690235D01*
X183542717Y-59889282D01*
X183482172Y-59087253D01*
X183266659Y-58306920D01*
X182902418Y-57571055D01*
X182395690Y-56902429D01*
X182219528Y-56720062D01*
X181577368Y-56198066D01*
X180865829Y-55828290D01*
X180077924Y-55607735D01*
X179206667Y-55533402D01*
X179031048Y-55533760D01*
X178649755Y-55545929D01*
X178353066Y-55582378D01*
X178079438Y-55653149D01*
X177767333Y-55768286D01*
X177450431Y-55903402D01*
X176933598Y-56181133D01*
X176482555Y-56521239D01*
X176030345Y-56970044D01*
X175605648Y-57521182D01*
X175233449Y-58246333D01*
X175008221Y-59027268D01*
X174936969Y-59838282D01*
X174189000Y-59838282D01*
X174178323Y-59504458D01*
X174300265Y-58657797D01*
X174571725Y-57835014D01*
X174993013Y-57054056D01*
X175564437Y-56332869D01*
X176067267Y-55856416D01*
X176767706Y-55366541D01*
X177527131Y-55026697D01*
X178362640Y-54829706D01*
X179206667Y-54773980D01*
X179291333Y-54768390D01*
X179558606Y-54771172D01*
G37*
G36*
X190486527Y-65801551D02*
G01*
X190638166Y-65845196D01*
X190679000Y-65991925D01*
X190690496Y-66070252D01*
X190775622Y-66183899D01*
X190796612Y-66211921D01*
X191038833Y-66354361D01*
X191115132Y-66393283D01*
X191392211Y-66605438D01*
X191610333Y-66925524D01*
X191716234Y-67107617D01*
X191863235Y-67275266D01*
X192012500Y-67325088D01*
X192029407Y-67325342D01*
X192166145Y-67373951D01*
X192203000Y-67537000D01*
X192202669Y-67560682D01*
X192157767Y-67709178D01*
X192008204Y-67748667D01*
X191906795Y-67767638D01*
X191771183Y-67882756D01*
X191627945Y-68130407D01*
X191569058Y-68242748D01*
X191362281Y-68505522D01*
X191060740Y-68697612D01*
X190880071Y-68795068D01*
X190723917Y-68929677D01*
X190679000Y-69077871D01*
X190678641Y-69099665D01*
X190629850Y-69236326D01*
X190467333Y-69272667D01*
X190433080Y-69271977D01*
X190292025Y-69223889D01*
X190255667Y-69066705D01*
X190223602Y-68920331D01*
X190065167Y-68802878D01*
X190006499Y-68782848D01*
X189683140Y-68600196D01*
X189407801Y-68336367D01*
X189239975Y-68045935D01*
X189200592Y-67940137D01*
X189149852Y-67868140D01*
X189578333Y-67868140D01*
X189591354Y-67913967D01*
X189698027Y-68062035D01*
X189867528Y-68230484D01*
X190045477Y-68368682D01*
X190177496Y-68426000D01*
X190195007Y-68417376D01*
X190238326Y-68299427D01*
X190255667Y-68087333D01*
X190255667Y-67748667D01*
X190679000Y-67748667D01*
X190679000Y-68087333D01*
X190695547Y-68302508D01*
X190763103Y-68407137D01*
X190896142Y-68364803D01*
X191108846Y-68178513D01*
X191279959Y-67987343D01*
X191340126Y-67845289D01*
X191253698Y-67770458D01*
X191017667Y-67748667D01*
X190679000Y-67748667D01*
X190255667Y-67748667D01*
X189917000Y-67748667D01*
X189856252Y-67749575D01*
X189645182Y-67782863D01*
X189578333Y-67868140D01*
X189149852Y-67868140D01*
X189094472Y-67789558D01*
X188936767Y-67748667D01*
X188904305Y-67747986D01*
X188767112Y-67698605D01*
X188731667Y-67537000D01*
X188732237Y-67505843D01*
X188779355Y-67362603D01*
X188934155Y-67325333D01*
X189088907Y-67286531D01*
X189133985Y-67210962D01*
X189585676Y-67210962D01*
X189674331Y-67297916D01*
X189917000Y-67325333D01*
X190255667Y-67325333D01*
X190255667Y-66986667D01*
X190679000Y-66986667D01*
X190679000Y-67325333D01*
X191017667Y-67325333D01*
X191232841Y-67308786D01*
X191337471Y-67241230D01*
X191295136Y-67108191D01*
X191108846Y-66895487D01*
X190917676Y-66724374D01*
X190775622Y-66664207D01*
X190700791Y-66750635D01*
X190679000Y-66986667D01*
X190255667Y-66986667D01*
X190239656Y-66779785D01*
X190169683Y-66664339D01*
X190032553Y-66697296D01*
X189815799Y-66875507D01*
X189649449Y-67057418D01*
X189585676Y-67210962D01*
X189133985Y-67210962D01*
X189188130Y-67120192D01*
X189211850Y-67044994D01*
X189390109Y-66742496D01*
X189659659Y-66476556D01*
X189962104Y-66308419D01*
X190061588Y-66271554D01*
X190169683Y-66196168D01*
X190214110Y-66165185D01*
X190255667Y-66006434D01*
X190256347Y-65973972D01*
X190305728Y-65836778D01*
X190467333Y-65801333D01*
X190486527Y-65801551D01*
G37*
G36*
X202011736Y-45526117D02*
G01*
X202342916Y-45541532D01*
X202594104Y-45578630D01*
X202816605Y-45645922D01*
X203061724Y-45751918D01*
X203115779Y-45777859D01*
X203741092Y-46176245D01*
X204270642Y-46699968D01*
X204683111Y-47323505D01*
X204957184Y-48021333D01*
X205013693Y-48275631D01*
X205057455Y-48968225D01*
X204957942Y-49679224D01*
X204719623Y-50364564D01*
X204433391Y-50831630D01*
X204009528Y-51295399D01*
X203503758Y-51692630D01*
X202957756Y-51990919D01*
X202413200Y-52157862D01*
X202066667Y-52217020D01*
X202066667Y-59790000D01*
X202066667Y-67362980D01*
X202417606Y-67422890D01*
X202859641Y-67545160D01*
X203428444Y-67834894D01*
X203955522Y-68247461D01*
X204409050Y-68756826D01*
X204757201Y-69336949D01*
X204842979Y-69525076D01*
X204940163Y-69779445D01*
X204994739Y-70021792D01*
X205018369Y-70312512D01*
X205022713Y-70712000D01*
X205018471Y-70990483D01*
X204991172Y-71379909D01*
X204930608Y-71697901D01*
X204827481Y-72006094D01*
X204794380Y-72085031D01*
X204513656Y-72569729D01*
X204120937Y-73046275D01*
X203659718Y-73467822D01*
X203173497Y-73787521D01*
X203040872Y-73855814D01*
X202834726Y-73949933D01*
X202641754Y-74008680D01*
X202416335Y-74040244D01*
X202112846Y-74052814D01*
X201685667Y-74054577D01*
X201431466Y-74053538D01*
X201078129Y-74045494D01*
X200822321Y-74022234D01*
X200617816Y-73975209D01*
X200418389Y-73895867D01*
X200177812Y-73775658D01*
X199613568Y-73410086D01*
X199106079Y-72911809D01*
X198719287Y-72333601D01*
X198457447Y-71697979D01*
X198324809Y-71027457D01*
X198324984Y-70881333D01*
X199080296Y-70881333D01*
X199178777Y-71470049D01*
X199427895Y-72041370D01*
X199833205Y-72554942D01*
X200212439Y-72888398D01*
X200631755Y-73127040D01*
X201106393Y-73255790D01*
X201685667Y-73294333D01*
X201959157Y-73290481D01*
X202290279Y-73264028D01*
X202550648Y-73203378D01*
X202800093Y-73097990D01*
X202937959Y-73022785D01*
X203385580Y-72691508D01*
X203777234Y-72276577D01*
X204057402Y-71833812D01*
X204066795Y-71813578D01*
X204250063Y-71219620D01*
X204282199Y-70598664D01*
X204169319Y-69984771D01*
X203917543Y-69411999D01*
X203532988Y-68914407D01*
X203321747Y-68719086D01*
X202834925Y-68392108D01*
X202299846Y-68207979D01*
X201676086Y-68150060D01*
X201342109Y-68157454D01*
X201064196Y-68194426D01*
X200810654Y-68279243D01*
X200505484Y-68430086D01*
X200138534Y-68658471D01*
X199655239Y-69103219D01*
X199312649Y-69630750D01*
X199118442Y-70227857D01*
X199080296Y-70881333D01*
X198324984Y-70881333D01*
X198325626Y-70344551D01*
X198464151Y-69671778D01*
X198744637Y-69031651D01*
X199171336Y-68446688D01*
X199345416Y-68255710D01*
X198891383Y-67600022D01*
X198825518Y-67504926D01*
X198285805Y-66727983D01*
X197831393Y-66079246D01*
X197453804Y-65547782D01*
X197144561Y-65122655D01*
X196895186Y-64792932D01*
X196697202Y-64547678D01*
X196542131Y-64375959D01*
X196421495Y-64266840D01*
X196326818Y-64209388D01*
X196249622Y-64192667D01*
X196013000Y-64192667D01*
X196013000Y-67664000D01*
X196013000Y-71135333D01*
X191568000Y-71135333D01*
X187123000Y-71135333D01*
X187123000Y-59790000D01*
X187123000Y-49206667D01*
X187885000Y-49206667D01*
X187885000Y-59790000D01*
X187885000Y-70373333D01*
X191568000Y-70373333D01*
X195251000Y-70373333D01*
X195251000Y-59790000D01*
X195251000Y-56149333D01*
X196013000Y-56149333D01*
X196013000Y-59790000D01*
X196013000Y-63430667D01*
X196468929Y-63430667D01*
X196612888Y-63432403D01*
X196831353Y-63456199D01*
X196965879Y-63525771D01*
X197074688Y-63663500D01*
X197097249Y-63697653D01*
X197216366Y-63871834D01*
X197407926Y-64147852D01*
X197656518Y-64503836D01*
X197946730Y-64917917D01*
X198263150Y-65368223D01*
X198590367Y-65832883D01*
X198912969Y-66290029D01*
X199215545Y-66717788D01*
X199482684Y-67094290D01*
X199698973Y-67397665D01*
X199849002Y-67606042D01*
X199917359Y-67697550D01*
X199970653Y-67713828D01*
X200150659Y-67683494D01*
X200405646Y-67591717D01*
X200567160Y-67528164D01*
X200843022Y-67443264D01*
X201045195Y-67410000D01*
X201191964Y-67394052D01*
X201275286Y-67346500D01*
X201277187Y-67270692D01*
X201279589Y-67036428D01*
X201282246Y-66656031D01*
X201285107Y-66141710D01*
X201288123Y-65505673D01*
X201291241Y-64760129D01*
X201294412Y-63917285D01*
X201297584Y-62989351D01*
X201300707Y-61988533D01*
X201303730Y-60927041D01*
X201306602Y-59817083D01*
X201307293Y-59524289D01*
X201309671Y-58106284D01*
X201310003Y-56852772D01*
X201308251Y-55759703D01*
X201304376Y-54823030D01*
X201298340Y-54038703D01*
X201290104Y-53402676D01*
X201279629Y-52910898D01*
X201266876Y-52559323D01*
X201251807Y-52343900D01*
X201234383Y-52260583D01*
X201168232Y-52215507D01*
X200985929Y-52170000D01*
X200898821Y-52157355D01*
X200673764Y-52091519D01*
X200405646Y-51988283D01*
X200242444Y-51925094D01*
X200027952Y-51869900D01*
X199917219Y-51882450D01*
X199900563Y-51904059D01*
X199799095Y-52044114D01*
X199622064Y-52292477D01*
X199384475Y-52627828D01*
X199101335Y-53028847D01*
X198787651Y-53474218D01*
X198458427Y-53942619D01*
X198128671Y-54412734D01*
X197813388Y-54863243D01*
X197527585Y-55272826D01*
X197286267Y-55620167D01*
X196919798Y-56149333D01*
X196466399Y-56149333D01*
X196013000Y-56149333D01*
X195251000Y-56149333D01*
X195251000Y-49206667D01*
X191568000Y-49206667D01*
X187885000Y-49206667D01*
X187123000Y-49206667D01*
X187123000Y-48444667D01*
X191568000Y-48444667D01*
X196013000Y-48444667D01*
X196013000Y-51916000D01*
X196013000Y-55387333D01*
X196256644Y-55387333D01*
X196289677Y-55385779D01*
X196368693Y-55364793D01*
X196458915Y-55307592D01*
X196572515Y-55199462D01*
X196721663Y-55025690D01*
X196918532Y-54771561D01*
X197175292Y-54422362D01*
X197504114Y-53963379D01*
X197917169Y-53379897D01*
X198177928Y-53008316D01*
X198578545Y-52426416D01*
X198890733Y-51956802D01*
X199110922Y-51605061D01*
X199235543Y-51376776D01*
X199261025Y-51277534D01*
X198907275Y-50768837D01*
X198541394Y-50050596D01*
X198341631Y-49341717D01*
X198307534Y-48654079D01*
X199072324Y-48654079D01*
X199108881Y-49275292D01*
X199288156Y-49868477D01*
X199598610Y-50406230D01*
X200027952Y-50860357D01*
X200028701Y-50861149D01*
X200566889Y-51205831D01*
X201044661Y-51369986D01*
X201623743Y-51445939D01*
X201676086Y-51442741D01*
X202199846Y-51410739D01*
X202712030Y-51262768D01*
X203227957Y-50953763D01*
X203680846Y-50523254D01*
X204013072Y-50020477D01*
X204017040Y-50012304D01*
X204165448Y-49593708D01*
X204256995Y-49107454D01*
X204282877Y-48625243D01*
X204234291Y-48218774D01*
X204204728Y-48118805D01*
X204003265Y-47680487D01*
X203702307Y-47239886D01*
X203342255Y-46858608D01*
X203181361Y-46729647D01*
X202642884Y-46434455D01*
X202041336Y-46274969D01*
X201413627Y-46257980D01*
X200796667Y-46390278D01*
X200497196Y-46534722D01*
X200096698Y-46825606D01*
X199717929Y-47193674D01*
X199406481Y-47593336D01*
X199207945Y-47979000D01*
X199190027Y-48032241D01*
X199072324Y-48654079D01*
X198307534Y-48654079D01*
X198306682Y-48636906D01*
X198435239Y-47930867D01*
X198708445Y-47269984D01*
X199127322Y-46655865D01*
X199661307Y-46144286D01*
X200288667Y-45760691D01*
X200495293Y-45669237D01*
X200721014Y-45592320D01*
X200959994Y-45548299D01*
X201264217Y-45528355D01*
X201413627Y-45526693D01*
X201685667Y-45523667D01*
X202011736Y-45526117D01*
G37*
%TD*%
M02*
