M48
; DRILL file KiCad 10.0.6 date 2026-10-08T09:48:17
; FORMAT={-:-/ absolute / metric / decimal}
; #@! TF.CreationDate,2026-10-08T09:48:17+02:00
; #@! TF.GenerationSoftware,Kicad,Pcbnew,10.0.6
; #@! TF.FileFunction,Plated,1,4,PTH
FMAT,2
METRIC
; #@! TA.AperFunction,Plated,PTH,ViaDrill
T1C0.300
; #@! TA.AperFunction,Plated,PTH,ComponentDrill
T2C0.500
; #@! TA.AperFunction,Plated,PTH,ComponentDrill
T3C0.600
; #@! TA.AperFunction,Plated,PTH,ComponentDrill
T4C3.200
%
G90
G05
T1
X154.66Y-45.92
X154.66Y-47.84
X154.66Y-49.51
X154.66Y-51.92
X154.66Y-54.92
X154.66Y-57.92
X154.66Y-60.92
X154.66Y-63.92
X154.66Y-66.92
X154.66Y-69.92
X154.66Y-72.92
X155.8Y-70.35
X156.053Y-44.737
X156.219Y-75.169
X156.29Y-54.87
X156.76Y-68.75
X156.98Y-62.5
X157.02Y-63.43
X157.17Y-66.63
X157.24Y-61.75
X157.65Y-56.55
X157.67Y-73.61
X158.175Y-42.615
X158.341Y-77.291
X158.41Y-68.77
X158.956Y-74.716
X159.06Y-58.16
X159.08Y-75.49
X159.78Y-56.0
X159.81Y-44.03
X159.86Y-75.58
X159.87Y-63.71
X160.0Y-61.8
X160.09Y-60.36
X160.296Y-40.494
X160.462Y-79.412
X160.575Y-75.725
X160.7Y-63.2
X160.84Y-76.37
X161.11Y-70.75
X161.34Y-76.83
X161.65Y-57.35
X161.89Y-77.08
X162.325Y-74.05
X162.417Y-38.373
X162.48Y-61.55
X162.94Y-81.85
X163.0Y-69.99
X163.13Y-71.37
X164.09Y-75.24
X164.539Y-36.251
X164.675Y-69.125
X164.705Y-83.655
X164.9Y-71.44
X164.92Y-73.24
X165.7Y-66.15
X165.75Y-77.11
X165.95Y-75.94
X166.3Y-66.9
X166.32Y-85.31
X166.35Y-78.4
X166.53Y-37.8
X166.54Y-41.3
X166.66Y-34.13
X166.9Y-65.4
X166.91Y-72.46
X167.175Y-76.75
X167.44Y-36.95
X167.5Y-43.125
X167.58Y-74.28
X167.59Y-40.67
X167.62Y-70.44
X167.65Y-68.625
X167.88Y-42.13
X168.0Y-87.02
X168.41Y-36.05
X168.55Y-71.67
X168.9Y-40.1
X169.07Y-31.76
X169.29Y-77.59
X169.3Y-52.675
X169.3Y-74.56
X169.325Y-38.875
X169.34Y-67.92
X169.5Y-69.1
X169.57Y-50.1
X169.88Y-81.87
X169.96Y-52.01
X170.325Y-38.05
X170.37Y-89.38
X170.58Y-67.95
X170.61Y-70.14
X170.65Y-82.72
X170.75Y-73.05
X170.76Y-79.03
X170.903Y-29.887
X171.325Y-80.825
X171.45Y-69.05
X171.461Y-73.964
X171.63Y-83.41
X171.7Y-43.0
X171.956Y-74.459
X171.98Y-87.96
X172.0Y-41.5
X172.11Y-32.05
X172.168Y-73.257
X172.21Y-82.09
X172.37Y-84.4
X172.451Y-74.954
X172.663Y-73.752
X172.8Y-40.54
X172.81Y-88.38
X172.86Y-82.85
X172.875Y-72.55
X172.946Y-75.449
X173.01Y-84.67
X173.024Y-27.766
X173.13Y-89.01
X173.158Y-74.247
X173.19Y-92.14
X173.27Y-70.76
X173.3Y-51.8
X173.37Y-73.045
X173.441Y-75.944
X173.45Y-67.075
X173.53Y-69.03
X173.653Y-74.742
X173.865Y-73.54
X173.9Y-85.54
X173.92Y-89.08
X173.936Y-76.439
X174.11Y-30.11
X174.148Y-75.237
X174.2Y-58.01
X174.2Y-62.5
X174.275Y-79.125
X174.36Y-74.035
X174.431Y-76.934
X174.56Y-61.69
X174.643Y-75.732
X174.7Y-46.0
X174.78Y-29.13
X174.8Y-44.4
X174.8Y-64.8
X174.85Y-42.63
X174.855Y-74.53
X174.9Y-63.3
X175.04Y-93.98
X175.06Y-83.13
X175.08Y-36.15
X175.138Y-76.227
X175.35Y-75.025
X175.36Y-25.85
X175.439Y-69.0
X175.46Y-83.98
X175.62Y-84.75
X175.65Y-34.075
X175.66Y-56.4
X175.845Y-75.52
X176.11Y-47.44
X176.12Y-29.16
X176.26Y-32.14
X176.29Y-69.25
X176.3Y-71.55
X176.43Y-45.6
X176.46Y-76.82
X176.5Y-63.1
X176.6Y-33.63
X176.62Y-57.9
X176.65Y-46.23
X176.88Y-88.07
X177.0Y-55.5
X177.11Y-27.25
X177.15Y-67.3
X177.17Y-44.95
X177.298Y-74.219
X177.33Y-33.18
X177.4Y-48.7
X177.5Y-61.84
X177.52Y-69.27
X177.586Y-70.986
X177.6Y-67.9
X177.72Y-72.92
X177.8Y-66.075
X177.81Y-80.61
X177.9Y-31.63
X178.04Y-93.98
X178.23Y-73.3
X178.25Y-45.1
X178.36Y-25.85
X178.45Y-74.65
X178.46Y-67.46
X178.51Y-50.19
X178.52Y-33.53
X178.53Y-69.46
X178.68Y-59.72
X178.85Y-60.6
X178.89Y-48.12
X179.12Y-65.53
X179.18Y-67.34
X179.2Y-59.025
X179.275Y-30.8
X179.325Y-32.15
X179.46Y-71.84
X179.5Y-33.41
X179.64Y-29.61
X179.9Y-56.3
X180.0Y-38.25
X180.0Y-59.7
X180.2Y-73.25
X180.22Y-69.93
X180.25Y-77.725
X180.52Y-83.22
X180.525Y-30.825
X180.575Y-32.125
X180.67Y-88.45
X180.79Y-49.02
X181.04Y-93.98
X181.2Y-36.42
X181.2Y-56.4
X181.22Y-39.08
X181.39Y-78.9
X181.44Y-48.19
X181.44Y-64.99
X181.45Y-33.39
X181.5Y-63.08
X181.575Y-73.775
X181.59Y-51.66
X181.59Y-71.72
X181.79Y-25.85
X181.8Y-87.83
X181.85Y-56.0
X181.96Y-53.36
X181.97Y-88.56
X182.0Y-91.04
X182.03Y-50.22
X182.18Y-39.88
X182.2Y-74.975
X182.2Y-75.975
X182.2Y-76.975
X182.2Y-77.975
X182.2Y-83.25
X182.2Y-84.25
X182.2Y-85.25
X182.2Y-86.25
X182.35Y-64.56
X182.36Y-66.07
X182.6Y-51.225
X182.82Y-33.14
X182.87Y-81.95
X182.92Y-28.57
X183.0Y-35.53
X183.03Y-79.09
X183.12Y-70.12
X183.14Y-37.61
X183.15Y-40.325
X183.16Y-71.99
X183.17Y-30.99
X183.21Y-64.22
X183.21Y-68.13
X183.4Y-46.37
X183.44Y-51.7
X183.55Y-44.425
X183.575Y-47.9
X183.59Y-54.28
X183.7Y-74.975
X183.7Y-75.975
X183.7Y-76.975
X183.7Y-77.975
X183.7Y-83.25
X183.7Y-84.25
X183.7Y-85.25
X183.7Y-86.25
X183.725Y-28.3
X183.778Y-62.53
X183.83Y-55.47
X184.0Y-63.3
X184.04Y-93.98
X184.08Y-39.85
X184.09Y-66.37
X184.1Y-47.2
X184.12Y-73.67
X184.13Y-59.03
X184.14Y-59.78
X184.16Y-56.81
X184.16Y-60.58
X184.225Y-51.15
X184.28Y-61.76
X184.29Y-68.91
X184.31Y-31.09
X184.33Y-87.81
X184.47Y-28.55
X184.475Y-68.145
X184.5Y-31.86
X184.6Y-56.075
X184.67Y-70.41
X184.67Y-77.44
X184.68Y-75.24
X184.73Y-41.03
X184.78Y-33.2
X184.78Y-50.18
X184.85Y-37.66
X184.85Y-42.975
X184.89Y-79.91
X185.0Y-46.2
X185.075Y-46.925
X185.1Y-88.075
X185.15Y-58.43
X185.2Y-41.65
X185.21Y-51.67
X185.27Y-55.1
X185.275Y-67.075
X185.6Y-25.85
X185.7Y-44.375
X185.7Y-46.775
X185.72Y-29.96
X185.73Y-88.55
X185.75Y-53.025
X185.8Y-40.09
X185.8Y-70.8
X185.84Y-42.14
X185.88Y-59.36
X186.02Y-76.96
X186.19Y-68.96
X186.45Y-46.575
X186.45Y-49.76
X186.6Y-87.0
X186.69Y-78.28
X186.71Y-82.05
X187.04Y-93.98
X187.1Y-41.47
X187.14Y-43.15
X187.275Y-44.45
X187.275Y-46.725
X187.275Y-53.025
X187.3Y-40.45
X187.36Y-88.14
X187.775Y-87.575
X187.9Y-61.64
X187.95Y-25.85
X188.22Y-60.51
X188.25Y-55.36
X188.275Y-45.6
X188.38Y-58.93
X188.39Y-88.88
X188.41Y-41.43
X188.46Y-44.44
X188.775Y-50.95
X188.82Y-79.5
X188.82Y-83.21
X188.95Y-56.4
X189.01Y-87.41
X189.09Y-76.58
X189.27Y-52.8
X189.3Y-66.7
X189.325Y-69.1
X189.56Y-50.77
X189.61Y-47.49
X189.775Y-52.15
X189.79Y-25.85
X189.8Y-64.2
X189.93Y-60.45
X189.93Y-72.06
X189.93Y-74.53
X190.04Y-83.11
X190.08Y-75.38
X190.2Y-81.625
X190.27Y-66.625
X190.29Y-68.96
X190.7Y-73.1
X190.77Y-78.52
X190.85Y-69.83
X190.89Y-49.14
X190.938Y-66.562
X190.96Y-51.79
X190.98Y-93.98
X191.2Y-87.8
X191.37Y-69.0
X191.47Y-71.33
X191.52Y-60.41
X191.64Y-62.39
X191.66Y-79.32
X191.8Y-64.2
X192.0Y-66.61
X192.02Y-80.36
X192.175Y-61.05
X192.23Y-25.85
X192.3Y-77.5
X192.38Y-47.64
X192.475Y-62.1
X192.575Y-74.5
X192.6Y-73.2
X192.75Y-49.94
X192.8Y-56.5
X192.8Y-65.8
X192.85Y-60.41
X192.87Y-31.14
X192.99Y-62.68
X193.0Y-79.3
X193.03Y-68.43
X193.06Y-53.41
X193.09Y-32.75
X193.34Y-67.35
X193.54Y-55.34
X193.68Y-93.98
X193.94Y-44.36
X194.12Y-28.73
X194.15Y-64.38
X194.2Y-73.2
X194.225Y-74.5
X194.3Y-65.35
X194.45Y-48.25
X194.62Y-31.35
X194.62Y-79.99
X194.67Y-77.19
X194.69Y-81.49
X194.7Y-91.21
X194.875Y-75.35
X194.96Y-45.06
X195.06Y-25.85
X195.08Y-51.53
X195.22Y-54.9
X195.25Y-58.04
X195.31Y-53.98
X195.37Y-55.59
X195.395Y-29.945
X195.644Y-48.794
X195.71Y-59.28
X195.72Y-56.49
X195.76Y-77.76
X195.92Y-58.08
X195.925Y-82.4
X196.0Y-64.77
X196.04Y-79.15
X196.04Y-93.98
X196.17Y-44.36
X196.22Y-89.125
X196.22Y-89.75
X196.225Y-90.4
X196.4Y-73.8
X196.645Y-29.445
X196.67Y-72.69
X196.88Y-73.26
X196.91Y-82.39
X196.92Y-76.9
X197.03Y-62.52
X197.03Y-87.66
X197.06Y-67.3
X197.07Y-70.54
X197.1Y-79.14
X197.15Y-64.45
X197.3Y-83.08
X197.46Y-75.16
X197.68Y-58.84
X197.69Y-60.04
X197.73Y-81.26
X197.75Y-60.77
X197.8Y-74.11
X197.85Y-63.16
X197.98Y-80.04
X198.21Y-71.56
X198.25Y-91.26
X198.29Y-55.86
X198.42Y-58.17
X198.43Y-25.85
X198.54Y-31.21
X198.61Y-78.61
X198.76Y-44.31
X198.8Y-72.15
X198.8Y-75.7
X198.81Y-76.54
X198.82Y-85.16
X198.875Y-88.775
X198.96Y-81.41
X199.04Y-93.98
X199.4Y-80.7
X199.42Y-85.9
X199.43Y-62.67
X199.48Y-71.57
X199.55Y-78.0
X199.68Y-52.75
X199.8Y-90.59
X199.81Y-77.3
X199.91Y-70.88
X199.95Y-72.275
X199.95Y-84.02
X199.99Y-76.22
X200.07Y-44.38
X200.32Y-51.36
X200.41Y-66.05
X200.54Y-40.9
X200.55Y-72.6
X200.7Y-80.09
X200.75Y-70.43
X200.86Y-73.82
X200.89Y-25.85
X200.98Y-62.79
X201.0Y-55.32
X201.0Y-60.675
X201.175Y-77.55
X201.275Y-39.925
X201.35Y-85.82
X201.38Y-89.99
X201.41Y-76.62
X201.46Y-67.11
X201.47Y-79.32
X201.49Y-53.67
X201.81Y-74.81
X201.825Y-70.45
X202.0Y-41.0
X202.01Y-48.5
X202.04Y-93.98
X202.06Y-30.62
X202.09Y-77.51
X202.125Y-84.9
X202.134Y-81.784
X202.18Y-72.0
X202.225Y-69.125
X202.48Y-59.89
X202.49Y-61.1
X202.544Y-84.469
X202.58Y-44.76
X202.7Y-81.219
X202.7Y-82.35
X202.75Y-78.18
X202.83Y-28.82
X202.88Y-75.66
X203.175Y-70.0
X203.2Y-69.125
X203.223Y-93.187
X203.266Y-80.653
X203.266Y-81.784
X203.266Y-82.916
X203.3Y-26.64
X203.42Y-58.1
X203.44Y-78.93
X203.67Y-70.83
X203.675Y-73.625
X203.831Y-81.219
X203.831Y-82.35
X203.91Y-62.33
X203.97Y-61.39
X203.975Y-60.7
X204.008Y-79.433
X204.24Y-63.14
X204.25Y-90.71
X204.397Y-81.784
X204.42Y-74.41
X204.667Y-78.944
X204.75Y-91.69
X204.77Y-63.85
X205.053Y-28.563
X205.21Y-63.05
X205.27Y-38.64
X205.35Y-78.03
X205.384Y-78.784
X205.4Y-60.11
X205.42Y-72.97
X205.73Y-57.1
X205.914Y-83.725
X205.97Y-36.9
X206.1Y-78.775
X206.2Y-33.75
X206.425Y-66.487
X206.52Y-81.78
X206.56Y-82.6
X206.65Y-34.38
X206.66Y-64.8
X206.8Y-70.82
X206.97Y-81.04
X207.02Y-32.9
X207.025Y-78.6
X207.13Y-41.13
X207.175Y-30.685
X207.19Y-38.15
X207.34Y-57.02
X207.41Y-66.67
X207.466Y-88.944
X207.47Y-35.25
X207.49Y-74.5
X207.58Y-71.89
X207.67Y-85.66
X207.69Y-85.04
X207.89Y-58.75
X208.29Y-39.18
X208.33Y-79.47
X208.42Y-34.41
X208.44Y-81.16
X208.45Y-78.425
X208.8Y-40.7
X208.8Y-41.6
X209.21Y-78.04
X209.23Y-83.34
X209.47Y-61.92
X209.62Y-40.36
X209.63Y-55.35
X209.73Y-33.25
X209.975Y-83.725
X210.07Y-58.73
X210.425Y-77.7
X210.475Y-42.25
X210.525Y-53.45
X210.6Y-41.4
X210.66Y-73.35
X210.85Y-38.0
X210.95Y-82.85
X211.1Y-78.6
X211.44Y-38.58
X211.44Y-75.93
X211.45Y-81.8
X211.5Y-75.12
X211.55Y-80.7
X211.725Y-79.475
X211.94Y-65.37
X212.38Y-35.98
X212.4Y-39.62
X212.84Y-66.59
X213.59Y-65.61
X213.72Y-80.36
X213.725Y-82.65
X213.75Y-64.09
X213.8Y-78.58
X214.84Y-62.35
X214.864Y-74.436
X214.88Y-75.17
X215.08Y-64.26
X215.11Y-76.83
X215.115Y-55.795
X215.143Y-57.157
X215.16Y-38.64
X215.22Y-73.49
X215.34Y-63.2
X215.625Y-75.225
X215.951Y-80.459
X216.29Y-74.36
X216.4Y-52.3
X216.77Y-54.46
X217.29Y-58.3
X217.29Y-61.43
X217.781Y-41.291
X218.03Y-56.53
X218.073Y-78.337
X218.5Y-52.875
X219.49Y-49.91
X219.5Y-51.84
X219.903Y-43.413
X220.194Y-76.216
X220.86Y-49.69
X220.89Y-51.92
X221.75Y-74.66
X221.95Y-47.81
X222.56Y-46.14
X222.56Y-49.14
X222.56Y-52.14
X222.56Y-55.14
X222.56Y-58.14
X222.56Y-61.14
X222.56Y-64.14
X222.56Y-67.14
X222.56Y-70.14
X222.56Y-73.14
T2
X161.425Y-49.8
X162.128Y-48.103
X162.128Y-51.497
X163.825Y-47.4
X163.825Y-52.2
X165.522Y-48.103
X165.522Y-51.497
X166.225Y-49.8
T4
X163.825Y-49.8
T3
G00X216.215Y-55.62
M15
G01X217.315Y-55.62
M16
G05
G00X216.215Y-64.26
M15
G01X217.315Y-64.26
M16
G05
G00X220.545Y-55.62
M15
G01X221.345Y-55.62
M16
G05
G00X220.545Y-64.26
M15
G01X221.345Y-64.26
M16
G05
M30
