%TF.GenerationSoftware,KiCad,Pcbnew,10.0.6*%
%TF.CreationDate,2026-10-05T16:34:27+02:00*%
%TF.ProjectId,HAL_95,48414c5f-3935-42e6-9b69-6361645f7063,rev?*%
%TF.SameCoordinates,Original*%
%TF.FileFunction,Soldermask,Top*%
%TF.FilePolarity,Negative*%
%FSLAX46Y46*%
G04 Gerber Fmt 4.6, Leading zero omitted, Abs format (unit mm)*
G04 Created by KiCad (PCBNEW 10.0.6) date 2026-10-05 16:34:27*
%MOMM*%
%LPD*%
G01*
G04 APERTURE LIST*
G04 Aperture macros list*
%AMRoundRect*
0 Rectangle with rounded corners*
0 $1 Rounding radius*
0 $2 $3 $4 $5 $6 $7 $8 $9 X,Y pos of 4 corners*
0 Add a 4 corners polygon primitive as box body*
4,1,4,$2,$3,$4,$5,$6,$7,$8,$9,$2,$3,0*
0 Add four circle primitives for the rounded corners*
1,1,$1+$1,$2,$3*
1,1,$1+$1,$4,$5*
1,1,$1+$1,$6,$7*
1,1,$1+$1,$8,$9*
0 Add four rect primitives between the rounded corners*
20,1,$1+$1,$2,$3,$4,$5,0*
20,1,$1+$1,$4,$5,$6,$7,0*
20,1,$1+$1,$6,$7,$8,$9,0*
20,1,$1+$1,$8,$9,$2,$3,0*%
%AMRotRect*
0 Rectangle, with rotation*
0 The origin of the aperture is its center*
0 $1 length*
0 $2 width*
0 $3 Rotation angle, in degrees counterclockwise*
0 Add horizontal line*
21,1,$1,$2,0,0,$3*%
%AMFreePoly0*
4,1,6,0.500000,-0.750000,-0.650000,-0.750000,-0.150000,0.000000,-0.650000,0.750000,0.500000,0.750000,0.500000,-0.750000,0.500000,-0.750000,$1*%
%AMFreePoly1*
4,1,6,1.000000,0.000000,0.500000,-0.750000,-0.500000,-0.750000,-0.500000,0.750000,0.500000,0.750000,1.000000,0.000000,1.000000,0.000000,$1*%
G04 Aperture macros list end*
%ADD10C,0.000000*%
%ADD11RoundRect,0.140000X-0.219203X-0.021213X-0.021213X-0.219203X0.219203X0.021213X0.021213X0.219203X0*%
%ADD12RoundRect,0.140000X-0.021213X0.219203X-0.219203X0.021213X0.021213X-0.219203X0.219203X-0.021213X0*%
%ADD13RoundRect,0.225000X-0.335876X-0.017678X-0.017678X-0.335876X0.335876X0.017678X0.017678X0.335876X0*%
%ADD14R,0.740000X2.400000*%
%ADD15FreePoly0,0.000000*%
%ADD16FreePoly1,0.000000*%
%ADD17RoundRect,0.135000X0.226274X0.035355X0.035355X0.226274X-0.226274X-0.035355X-0.035355X-0.226274X0*%
%ADD18RoundRect,0.218750X-0.026517X0.335876X-0.335876X0.026517X0.026517X-0.335876X0.335876X-0.026517X0*%
%ADD19RoundRect,0.075000X-0.075000X-0.700000X0.075000X-0.700000X0.075000X0.700000X-0.075000X0.700000X0*%
%ADD20RoundRect,0.075000X-0.700000X-0.075000X0.700000X-0.075000X0.700000X0.075000X-0.700000X0.075000X0*%
%ADD21RoundRect,0.140000X0.021213X-0.219203X0.219203X-0.021213X-0.021213X0.219203X-0.219203X0.021213X0*%
%ADD22RoundRect,0.140000X0.219203X0.021213X0.021213X0.219203X-0.219203X-0.021213X-0.021213X-0.219203X0*%
%ADD23RoundRect,0.135000X0.135000X0.185000X-0.135000X0.185000X-0.135000X-0.185000X0.135000X-0.185000X0*%
%ADD24RoundRect,0.135000X-0.185000X0.135000X-0.185000X-0.135000X0.185000X-0.135000X0.185000X0.135000X0*%
%ADD25RoundRect,0.250000X-1.100000X0.250000X-1.100000X-0.250000X1.100000X-0.250000X1.100000X0.250000X0*%
%ADD26RoundRect,0.150000X-0.700000X0.150000X-0.700000X-0.150000X0.700000X-0.150000X0.700000X0.150000X0*%
%ADD27C,0.345000*%
%ADD28RoundRect,0.135000X-0.135000X-0.185000X0.135000X-0.185000X0.135000X0.185000X-0.135000X0.185000X0*%
%ADD29RoundRect,0.250000X0.362500X1.425000X-0.362500X1.425000X-0.362500X-1.425000X0.362500X-1.425000X0*%
%ADD30RoundRect,0.250000X-0.132583X0.503814X-0.503814X0.132583X0.132583X-0.503814X0.503814X-0.132583X0*%
%ADD31RoundRect,0.250000X-0.954594X-0.601041X-0.601041X-0.954594X0.954594X0.601041X0.601041X0.954594X0*%
%ADD32RoundRect,0.150000X-0.601041X-0.388909X-0.388909X-0.601041X0.601041X0.388909X0.388909X0.601041X0*%
%ADD33RoundRect,0.140000X-0.170000X0.140000X-0.170000X-0.140000X0.170000X-0.140000X0.170000X0.140000X0*%
%ADD34RoundRect,0.250000X-0.250000X-1.100000X0.250000X-1.100000X0.250000X1.100000X-0.250000X1.100000X0*%
%ADD35RoundRect,0.150000X-0.150000X-0.700000X0.150000X-0.700000X0.150000X0.700000X-0.150000X0.700000X0*%
%ADD36RoundRect,0.140000X0.170000X-0.140000X0.170000X0.140000X-0.170000X0.140000X-0.170000X-0.140000X0*%
%ADD37RoundRect,0.250000X0.250000X1.100000X-0.250000X1.100000X-0.250000X-1.100000X0.250000X-1.100000X0*%
%ADD38RoundRect,0.150000X0.150000X0.700000X-0.150000X0.700000X-0.150000X-0.700000X0.150000X-0.700000X0*%
%ADD39RoundRect,0.225000X0.017678X-0.335876X0.335876X-0.017678X-0.017678X0.335876X-0.335876X0.017678X0*%
%ADD40RoundRect,0.135000X0.035355X-0.226274X0.226274X-0.035355X-0.035355X0.226274X-0.226274X0.035355X0*%
%ADD41RoundRect,0.225000X0.250000X-0.225000X0.250000X0.225000X-0.250000X0.225000X-0.250000X-0.225000X0*%
%ADD42RoundRect,0.250000X-0.335876X0.866206X-0.866206X0.335876X0.335876X-0.866206X0.866206X-0.335876X0*%
%ADD43RoundRect,0.150000X0.587500X0.150000X-0.587500X0.150000X-0.587500X-0.150000X0.587500X-0.150000X0*%
%ADD44RoundRect,0.135000X0.185000X-0.135000X0.185000X0.135000X-0.185000X0.135000X-0.185000X-0.135000X0*%
%ADD45RoundRect,0.140000X-0.140000X-0.170000X0.140000X-0.170000X0.140000X0.170000X-0.140000X0.170000X0*%
%ADD46RoundRect,0.250000X0.954594X0.601041X0.601041X0.954594X-0.954594X-0.601041X-0.601041X-0.954594X0*%
%ADD47RoundRect,0.150000X0.601041X0.388909X0.388909X0.601041X-0.601041X-0.388909X-0.388909X-0.601041X0*%
%ADD48RoundRect,0.250000X-0.601041X0.954594X-0.954594X0.601041X0.601041X-0.954594X0.954594X-0.601041X0*%
%ADD49RoundRect,0.150000X-0.388909X0.601041X-0.601041X0.388909X0.388909X-0.601041X0.601041X-0.388909X0*%
%ADD50RoundRect,0.250000X0.400000X0.250000X-0.400000X0.250000X-0.400000X-0.250000X0.400000X-0.250000X0*%
%ADD51C,0.800000*%
%ADD52C,6.400000*%
%ADD53RoundRect,0.200000X-0.275000X0.200000X-0.275000X-0.200000X0.275000X-0.200000X0.275000X0.200000X0*%
%ADD54R,1.000000X0.900000*%
%ADD55RoundRect,0.140000X0.140000X0.170000X-0.140000X0.170000X-0.140000X-0.170000X0.140000X-0.170000X0*%
%ADD56C,2.000000*%
%ADD57O,1.800000X1.000000*%
%ADD58O,2.100000X1.000000*%
%ADD59RoundRect,0.150000X0.425000X-0.150000X0.425000X0.150000X-0.425000X0.150000X-0.425000X-0.150000X0*%
%ADD60RoundRect,0.075000X0.500000X-0.075000X0.500000X0.075000X-0.500000X0.075000X-0.500000X-0.075000X0*%
%ADD61C,0.650000*%
%ADD62RoundRect,0.087500X0.087500X-0.425000X0.087500X0.425000X-0.087500X0.425000X-0.087500X-0.425000X0*%
%ADD63R,0.900000X1.000000*%
%ADD64RoundRect,0.218750X-0.256250X0.218750X-0.256250X-0.218750X0.256250X-0.218750X0.256250X0.218750X0*%
%ADD65RoundRect,0.135000X-0.226274X-0.035355X-0.035355X-0.226274X0.226274X0.035355X0.035355X0.226274X0*%
%ADD66RoundRect,0.150000X0.150000X-0.512500X0.150000X0.512500X-0.150000X0.512500X-0.150000X-0.512500X0*%
%ADD67RoundRect,0.218750X0.218750X0.256250X-0.218750X0.256250X-0.218750X-0.256250X0.218750X-0.256250X0*%
%ADD68RoundRect,0.250000X-1.000000X1.950000X-1.000000X-1.950000X1.000000X-1.950000X1.000000X1.950000X0*%
%ADD69FreePoly0,45.000000*%
%ADD70FreePoly1,45.000000*%
%ADD71RoundRect,0.135000X-0.035355X0.226274X-0.226274X0.035355X0.035355X-0.226274X0.226274X-0.035355X0*%
%ADD72RoundRect,0.147500X-0.147500X-0.172500X0.147500X-0.172500X0.147500X0.172500X-0.147500X0.172500X0*%
%ADD73RotRect,2.700000X2.700000X225.000000*%
%ADD74RoundRect,0.062500X-0.203293X0.291682X-0.291682X0.203293X0.203293X-0.291682X0.291682X-0.203293X0*%
%ADD75RoundRect,0.062500X0.203293X0.291682X-0.291682X-0.203293X-0.203293X-0.291682X0.291682X0.203293X0*%
%ADD76RoundRect,0.100000X0.180312X-0.038891X-0.038891X0.180312X-0.180312X0.038891X0.038891X-0.180312X0*%
%ADD77RoundRect,0.150000X0.468458X-0.256326X-0.256326X0.468458X-0.468458X0.256326X0.256326X-0.468458X0*%
%ADD78RoundRect,0.100000X-0.415425X-0.556847X0.556847X0.415425X0.415425X0.556847X-0.556847X-0.415425X0*%
%ADD79RotRect,2.460000X2.310000X45.000000*%
%ADD80RoundRect,0.150000X0.512500X0.150000X-0.512500X0.150000X-0.512500X-0.150000X0.512500X-0.150000X0*%
G04 APERTURE END LIST*
%TO.C,JP2*%
G36*
X210750000Y-63250000D02*
G01*
X213200000Y-63250000D01*
X213200000Y-64750000D01*
X210750000Y-64750000D01*
X210750000Y-63250000D01*
G37*
D10*
%TO.C,JP1*%
G36*
X212934188Y-83826472D02*
G01*
X211201776Y-85558884D01*
X210141116Y-84498224D01*
X211873528Y-82765812D01*
X212934188Y-83826472D01*
G37*
%TD*%
D11*
%TO.C,C22*%
X207276005Y-84645370D03*
X206597183Y-83966548D03*
%TD*%
D12*
%TO.C,C42*%
X175185589Y-33589411D03*
X175864411Y-32910589D03*
%TD*%
D13*
%TO.C,C25*%
X200450000Y-83500000D03*
X199353984Y-82403984D03*
%TD*%
D14*
%TO.C,J1*%
X194960000Y-46690000D03*
X194960000Y-42790000D03*
X196230000Y-46690000D03*
X196230000Y-42790000D03*
X197500000Y-46690000D03*
X197500000Y-42790000D03*
X198770000Y-46690000D03*
X198770000Y-42790000D03*
X200040000Y-46690000D03*
X200040000Y-42790000D03*
X201310000Y-46690000D03*
X201310000Y-42790000D03*
X202580000Y-46690000D03*
X202580000Y-42790000D03*
%TD*%
D15*
%TO.C,JP2*%
X212700000Y-64000000D03*
D16*
X211250000Y-64000000D03*
%TD*%
D17*
%TO.C,R15*%
X200000000Y-78434711D03*
X200721248Y-79155959D03*
%TD*%
D18*
%TO.C,D5*%
X212743153Y-78681847D03*
X213856847Y-77568153D03*
%TD*%
D19*
%TO.C,U1*%
X184770000Y-54115000D03*
X185270000Y-54115000D03*
X185770000Y-54115000D03*
X186270000Y-54115000D03*
X186770000Y-54115000D03*
X187270000Y-54115000D03*
X187770000Y-54115000D03*
X188270000Y-54115000D03*
X188770000Y-54115000D03*
X189270000Y-54115000D03*
X189770000Y-54115000D03*
X190270000Y-54115000D03*
X190770000Y-54115000D03*
X191270000Y-54115000D03*
X191770000Y-54115000D03*
X192270000Y-54115000D03*
D20*
X194195000Y-56040000D03*
X194195000Y-56540000D03*
X194195000Y-57040000D03*
X194195000Y-57540000D03*
X194195000Y-58040000D03*
X194195000Y-58540000D03*
X194195000Y-59040000D03*
X194195000Y-59540000D03*
X194195000Y-60040000D03*
X194195000Y-60540000D03*
X194195000Y-61040000D03*
X194195000Y-61540000D03*
X194195000Y-62040000D03*
X194195000Y-62540000D03*
X194195000Y-63040000D03*
X194195000Y-63540000D03*
D19*
X192270000Y-65465000D03*
X191770000Y-65465000D03*
X191270000Y-65465000D03*
X190770000Y-65465000D03*
X190270000Y-65465000D03*
X189770000Y-65465000D03*
X189270000Y-65465000D03*
X188770000Y-65465000D03*
X188270000Y-65465000D03*
X187770000Y-65465000D03*
X187270000Y-65465000D03*
X186770000Y-65465000D03*
X186270000Y-65465000D03*
X185770000Y-65465000D03*
X185270000Y-65465000D03*
X184770000Y-65465000D03*
D20*
X182845000Y-63540000D03*
X182845000Y-63040000D03*
X182845000Y-62540000D03*
X182845000Y-62040000D03*
X182845000Y-61540000D03*
X182845000Y-61040000D03*
X182845000Y-60540000D03*
X182845000Y-60040000D03*
X182845000Y-59540000D03*
X182845000Y-59040000D03*
X182845000Y-58540000D03*
X182845000Y-58040000D03*
X182845000Y-57540000D03*
X182845000Y-57040000D03*
X182845000Y-56540000D03*
X182845000Y-56040000D03*
%TD*%
D21*
%TO.C,C15*%
X177089411Y-69660589D03*
X176410589Y-70339411D03*
%TD*%
D22*
%TO.C,C18*%
X172040589Y-83000589D03*
X172719411Y-83679411D03*
%TD*%
D23*
%TO.C,R13*%
X196150000Y-60025000D03*
X197170000Y-60025000D03*
%TD*%
D24*
%TO.C,R27*%
X185085000Y-49025000D03*
X185085000Y-48005000D03*
%TD*%
D25*
%TO.C,J5*%
X155425000Y-65575000D03*
X155425000Y-59375000D03*
D26*
X158625000Y-63725000D03*
X158625001Y-62475000D03*
X158625000Y-61225000D03*
%TD*%
D22*
%TO.C,C14*%
X177185589Y-71385589D03*
X177864411Y-72064411D03*
%TD*%
D27*
%TO.C,U8*%
X194070000Y-81490000D03*
X193570000Y-81490000D03*
X193070000Y-81490000D03*
X194070000Y-80990000D03*
X193570000Y-80990000D03*
X193070000Y-80990000D03*
X194070000Y-80490000D03*
X193570000Y-80490000D03*
X193070000Y-80490000D03*
%TD*%
D13*
%TO.C,C26*%
X206775000Y-89475000D03*
X205678984Y-88378984D03*
%TD*%
D28*
%TO.C,R6*%
X191220000Y-80900000D03*
X190200000Y-80900000D03*
%TD*%
%TO.C,R1*%
X170600000Y-50950000D03*
X169580000Y-50950000D03*
%TD*%
D29*
%TO.C,R7*%
X190327500Y-85330000D03*
X196252500Y-85330000D03*
%TD*%
D30*
%TO.C,R2*%
X167100000Y-79100000D03*
X168390470Y-77809530D03*
%TD*%
D31*
%TO.C,J4*%
X174647526Y-92738186D03*
X167611814Y-85702474D03*
D32*
X175602120Y-89167297D03*
X174718237Y-88283414D03*
X173834353Y-87399530D03*
X172950470Y-86515647D03*
X172066586Y-85631763D03*
X171182703Y-84747880D03*
%TD*%
D13*
%TO.C,C23*%
X199323008Y-84623008D03*
X198226992Y-83526992D03*
%TD*%
D18*
%TO.C,D4*%
X211375000Y-77275000D03*
X212488694Y-76161306D03*
%TD*%
D33*
%TO.C,C29*%
X189945000Y-73710000D03*
X189945000Y-72750000D03*
%TD*%
D34*
%TO.C,J9*%
X197470000Y-92940000D03*
X192520000Y-92940000D03*
D35*
X195620000Y-89740000D03*
X194370000Y-89740000D03*
%TD*%
D36*
%TO.C,C33*%
X196010000Y-79710000D03*
X196010000Y-80670000D03*
%TD*%
D37*
%TO.C,J6*%
X191045000Y-26745000D03*
X199745000Y-26745000D03*
D38*
X192895000Y-29945000D03*
X194145000Y-29945000D03*
X195395000Y-29945000D03*
X196645000Y-29945000D03*
X197895000Y-29945000D03*
%TD*%
D39*
%TO.C,C16*%
X179671016Y-69403984D03*
X178575000Y-70500000D03*
%TD*%
D40*
%TO.C,R20*%
X198650000Y-74850000D03*
X197928752Y-75571248D03*
%TD*%
D41*
%TO.C,C38*%
X161050000Y-60300000D03*
X161050000Y-61850000D03*
%TD*%
D42*
%TO.C,L1*%
X201336594Y-88280959D03*
X202856874Y-86760679D03*
%TD*%
D43*
%TO.C,Q2*%
X206025000Y-63850000D03*
X207900000Y-62900000D03*
X207900000Y-64800000D03*
%TD*%
D44*
%TO.C,R24*%
X203125000Y-60700000D03*
X203125000Y-61720000D03*
%TD*%
D11*
%TO.C,C39*%
X206668822Y-38598822D03*
X205990000Y-37920000D03*
%TD*%
D45*
%TO.C,C35*%
X196910000Y-81790000D03*
X195950000Y-81790000D03*
%TD*%
D33*
%TO.C,C31*%
X180612500Y-38205000D03*
X180612500Y-37245000D03*
%TD*%
D46*
%TO.C,J7*%
X208412474Y-32926814D03*
X215448186Y-39962526D03*
D47*
X207457880Y-36497703D03*
X208341763Y-37381586D03*
X209225647Y-38265470D03*
X210109530Y-39149353D03*
X210993414Y-40033237D03*
X211877297Y-40917120D03*
%TD*%
D37*
%TO.C,J3*%
X180625000Y-26700000D03*
X186825000Y-26700000D03*
D38*
X182475000Y-29900000D03*
X183725000Y-29900000D03*
X184975000Y-29900000D03*
%TD*%
D17*
%TO.C,R19*%
X199000000Y-79000000D03*
X199721248Y-79721248D03*
%TD*%
D48*
%TO.C,J12*%
X161626814Y-39937526D03*
X168662526Y-32901814D03*
D49*
X165197703Y-40892120D03*
X166081586Y-40008237D03*
X166965470Y-39124353D03*
X167849353Y-38240470D03*
X168733237Y-37356586D03*
X169617120Y-36472703D03*
%TD*%
D31*
%TO.C,J2*%
X162640000Y-80720000D03*
X155604288Y-73684288D03*
D32*
X163594594Y-77149111D03*
X162710711Y-76265228D03*
X161826827Y-75381344D03*
X160942944Y-74497461D03*
X160059060Y-73613577D03*
X159175177Y-72729694D03*
%TD*%
D50*
%TO.C,Y1*%
X177675000Y-59725000D03*
X175475000Y-59725000D03*
X175475000Y-57925000D03*
X177675000Y-57925000D03*
%TD*%
D48*
%TO.C,J11*%
X170177640Y-31336702D03*
X174561702Y-26952640D03*
D49*
X173748529Y-32291296D03*
X174632413Y-31407413D03*
X175516296Y-30523529D03*
%TD*%
D51*
%TO.C,H1*%
X166225000Y-49800000D03*
X165522056Y-51497056D03*
X165522056Y-48102944D03*
X163825000Y-52200000D03*
D52*
X163825000Y-49800000D03*
D51*
X163825000Y-47400000D03*
X162127944Y-51497056D03*
X162127944Y-48102944D03*
X161425000Y-49800000D03*
%TD*%
D53*
%TO.C,R4*%
X183925000Y-34850000D03*
X183925000Y-33200000D03*
%TD*%
D24*
%TO.C,R16*%
X157700000Y-68752500D03*
X157700000Y-67732500D03*
%TD*%
D36*
%TO.C,C1*%
X194660000Y-53960000D03*
X194660000Y-54920000D03*
%TD*%
D54*
%TO.C,SW1*%
X220150000Y-52875000D03*
X220150000Y-48775000D03*
X221750000Y-52875000D03*
X221750000Y-48775000D03*
%TD*%
D55*
%TO.C,C30*%
X182425000Y-31825000D03*
X183385000Y-31825000D03*
%TD*%
D56*
%TO.C,TP2*%
X213575000Y-53550000D03*
%TD*%
%TO.C,TP4*%
X202725000Y-69550000D03*
%TD*%
D45*
%TO.C,C10*%
X157225000Y-54275000D03*
X156265000Y-54275000D03*
%TD*%
%TO.C,C12*%
X177505000Y-61265000D03*
X176545000Y-61265000D03*
%TD*%
D57*
%TO.C,J10*%
X220945000Y-55620000D03*
D58*
X216765000Y-55620000D03*
D57*
X220945000Y-64260000D03*
D58*
X216765000Y-64260000D03*
D59*
X216190000Y-63140000D03*
X216190000Y-62340000D03*
D60*
X216190000Y-61690000D03*
X216190000Y-60690000D03*
X216190000Y-59190000D03*
X216190000Y-58190000D03*
D59*
X216190000Y-57540000D03*
X216190000Y-56740000D03*
X216190000Y-56740000D03*
X216190000Y-57540000D03*
D60*
X216190000Y-58690000D03*
X216190000Y-59690000D03*
X216190000Y-60190000D03*
X216190000Y-61190000D03*
D59*
X216190000Y-62340000D03*
X216190000Y-63140000D03*
D61*
X217265000Y-57050000D03*
X217265000Y-62830000D03*
%TD*%
D22*
%TO.C,C28*%
X200410589Y-71310589D03*
X201089411Y-71989411D03*
%TD*%
D62*
%TO.C,Q3*%
X201775000Y-63150000D03*
X202425000Y-63150000D03*
X203075000Y-63150000D03*
X203075000Y-64825000D03*
X202425000Y-64825000D03*
X201775000Y-64825000D03*
%TD*%
D40*
%TO.C,R8*%
X214864376Y-74435624D03*
X214143128Y-75156872D03*
%TD*%
D63*
%TO.C,SW3*%
X191575000Y-72300000D03*
X195675000Y-72300000D03*
X191575000Y-73900000D03*
X195675000Y-73900000D03*
%TD*%
D24*
%TO.C,R26*%
X186550000Y-49050000D03*
X186550000Y-48030000D03*
%TD*%
D64*
%TO.C,D6*%
X155850000Y-69112500D03*
X155850000Y-67537500D03*
%TD*%
D65*
%TO.C,R22*%
X203485624Y-77310624D03*
X202764376Y-76589376D03*
%TD*%
D55*
%TO.C,C13*%
X220395000Y-47400000D03*
X221355000Y-47400000D03*
%TD*%
D21*
%TO.C,C17*%
X162710000Y-70990000D03*
X162031178Y-71668822D03*
%TD*%
D44*
%TO.C,R10*%
X210397500Y-55325000D03*
X210397500Y-56345000D03*
%TD*%
D66*
%TO.C,U6*%
X182200000Y-36587500D03*
X184100000Y-36587500D03*
X184100000Y-38862500D03*
X183150000Y-38862500D03*
X182200000Y-38862500D03*
%TD*%
D55*
%TO.C,C8*%
X189340000Y-67280000D03*
X190300000Y-67280000D03*
%TD*%
D45*
%TO.C,C6*%
X192320000Y-67320000D03*
X191360000Y-67320000D03*
%TD*%
D67*
%TO.C,D7*%
X200850000Y-52750000D03*
X202425000Y-52750000D03*
%TD*%
D55*
%TO.C,C9*%
X189330000Y-68380000D03*
X190290000Y-68380000D03*
%TD*%
D11*
%TO.C,C21*%
X206451005Y-85445370D03*
X205772183Y-84766548D03*
%TD*%
D22*
%TO.C,C19*%
X206896178Y-80021178D03*
X207575000Y-80700000D03*
%TD*%
D68*
%TO.C,C37*%
X182950000Y-84824998D03*
X182950000Y-76425000D03*
%TD*%
D30*
%TO.C,R3*%
X169204765Y-81195235D03*
X170495235Y-79904765D03*
%TD*%
D45*
%TO.C,C41*%
X183685000Y-87800000D03*
X182725000Y-87800000D03*
%TD*%
D33*
%TO.C,C2*%
X182350000Y-65520000D03*
X182350000Y-64560000D03*
%TD*%
D17*
%TO.C,R18*%
X207728752Y-76978752D03*
X208450000Y-77700000D03*
%TD*%
D34*
%TO.C,J8*%
X189470000Y-92930000D03*
X179520000Y-92930000D03*
D35*
X187620000Y-89730000D03*
X186370000Y-89730000D03*
X185120000Y-89730000D03*
X183870000Y-89730000D03*
X182620000Y-89730000D03*
X181370000Y-89730000D03*
%TD*%
D55*
%TO.C,C5*%
X181650000Y-52390000D03*
X182610000Y-52390000D03*
%TD*%
D23*
%TO.C,R5*%
X191270000Y-78510000D03*
X192290000Y-78510000D03*
%TD*%
D69*
%TO.C,JP1*%
X212050304Y-83649696D03*
D70*
X211025000Y-84675000D03*
%TD*%
D71*
%TO.C,R21*%
X199500000Y-73975624D03*
X200221248Y-73254376D03*
%TD*%
D24*
%TO.C,R11*%
X210357500Y-61895000D03*
X210357500Y-60875000D03*
%TD*%
D44*
%TO.C,R25*%
X184475000Y-67125000D03*
X184475000Y-68145000D03*
%TD*%
D72*
%TO.C,D1*%
X172945000Y-50960000D03*
X171975000Y-50960000D03*
%TD*%
D54*
%TO.C,SW2*%
X156650000Y-48725000D03*
X156650000Y-52825000D03*
X155050000Y-48725000D03*
X155050000Y-52825000D03*
%TD*%
D23*
%TO.C,R17*%
X200995000Y-54710000D03*
X202015000Y-54710000D03*
%TD*%
D45*
%TO.C,C4*%
X194440000Y-65800000D03*
X193480000Y-65800000D03*
%TD*%
D21*
%TO.C,C40*%
X167414411Y-41685589D03*
X166735589Y-42364411D03*
%TD*%
D56*
%TO.C,TP3*%
X200275000Y-92200000D03*
%TD*%
D73*
%TO.C,U5*%
X203522183Y-81722183D03*
D74*
X205793764Y-82225997D03*
X205440210Y-82579550D03*
X205086657Y-82933103D03*
X204733103Y-83286657D03*
X204379550Y-83640210D03*
X204025997Y-83993764D03*
D75*
X203018369Y-83993764D03*
X202664816Y-83640210D03*
X202311263Y-83286657D03*
X201957709Y-82933103D03*
X201604156Y-82579550D03*
X201250602Y-82225997D03*
D74*
X201250602Y-81218369D03*
X201604156Y-80864816D03*
X201957709Y-80511263D03*
X202311263Y-80157709D03*
X202664816Y-79804156D03*
X203018369Y-79450602D03*
D75*
X204025997Y-79450602D03*
X204379550Y-79804156D03*
X204733103Y-80157709D03*
X205086657Y-80511263D03*
X205440210Y-80864816D03*
X205793764Y-81218369D03*
%TD*%
D12*
%TO.C,C27*%
X204900589Y-77619411D03*
X205579411Y-76940589D03*
%TD*%
D76*
%TO.C,Q1*%
X200440721Y-76733614D03*
X199175000Y-76175000D03*
X199882107Y-75467893D03*
%TD*%
D44*
%TO.C,R23*%
X201800000Y-60700000D03*
X201800000Y-61720000D03*
%TD*%
D13*
%TO.C,C24*%
X205548008Y-90673008D03*
X204451992Y-89576992D03*
%TD*%
D77*
%TO.C,U3*%
X202819581Y-74138083D03*
X204163083Y-72794581D03*
X205771751Y-74403249D03*
X205100000Y-75075000D03*
X204428249Y-75746751D03*
%TD*%
D78*
%TO.C,U2*%
X174080554Y-71002110D03*
X174540174Y-71461729D03*
X174999793Y-71921349D03*
X175459412Y-72380968D03*
X175919032Y-72840588D03*
X176378651Y-73300207D03*
X176838271Y-73759826D03*
X177297890Y-74219446D03*
X173249704Y-78267632D03*
X172790084Y-77808013D03*
X172330465Y-77348393D03*
X171870846Y-76888774D03*
X171411226Y-76429154D03*
X170951607Y-75969535D03*
X170491987Y-75509916D03*
X170032368Y-75050296D03*
D79*
X173665129Y-74634871D03*
%TD*%
D23*
%TO.C,R12*%
X196140000Y-58850000D03*
X197160000Y-58850000D03*
%TD*%
D45*
%TO.C,C3*%
X185240000Y-52410000D03*
X184280000Y-52410000D03*
%TD*%
%TO.C,C7*%
X192330000Y-68420000D03*
X191370000Y-68420000D03*
%TD*%
D36*
%TO.C,C34*%
X197090000Y-79700000D03*
X197090000Y-80660000D03*
%TD*%
D55*
%TO.C,C11*%
X176515000Y-56385000D03*
X177475000Y-56385000D03*
%TD*%
D13*
%TO.C,C20*%
X208593199Y-83937564D03*
X207497183Y-82841548D03*
%TD*%
D23*
%TO.C,R14*%
X196000000Y-63600000D03*
X197020000Y-63600000D03*
%TD*%
D40*
%TO.C,R9*%
X215625000Y-75225000D03*
X214903752Y-75946248D03*
%TD*%
D45*
%TO.C,C36*%
X193830000Y-31860000D03*
X192870000Y-31860000D03*
%TD*%
D80*
%TO.C,U4*%
X206750000Y-59675000D03*
X206750000Y-58725000D03*
X206750000Y-57775000D03*
X209025000Y-57775000D03*
X209025000Y-58725000D03*
X209025000Y-59675000D03*
%TD*%
M02*
